<svg width="63" height="63" viewBox="0 0 63 63" fill="none" xmlns="http://www.w3.org/2000/svg">
<path d="M62.8882 60.03L56.1382 39.78C55.9835 39.3355 55.6949 38.9498 55.3122 38.6758C54.9295 38.4019 54.4713 38.2531 54.0007 38.25H46.9807C50.8507 33.0525 54.0007 27.3375 54.0007 22.5C54.0007 16.5326 51.6301 10.8097 47.4106 6.5901C43.191 2.37053 37.468 0 31.5007 0C25.5333 0 19.8103 2.37053 15.5908 6.5901C11.3712 10.8097 9.00067 16.5326 9.00067 22.5C9.00067 27.3375 12.1507 33.0525 16.0207 38.25H9.00067C8.53001 38.2531 8.07186 38.4019 7.68914 38.6758C7.30641 38.9498 7.01788 39.3355 6.86317 39.78L0.113172 60.03C0.00159843 60.3684 -0.0280255 60.7284 0.0267383 61.0805C0.0815021 61.4325 0.219088 61.7665 0.428173 62.055C0.632948 62.3481 0.905728 62.5872 1.22314 62.7518C1.54055 62.9164 1.89313 63.0015 2.25067 63H60.7507C61.1082 63.0015 61.4608 62.9164 61.7782 62.7518C62.0956 62.5872 62.3684 62.3481 62.5732 62.055C62.7823 61.7665 62.9198 61.4325 62.9746 61.0805C63.0294 60.7284 62.9997 60.3684 62.8882 60.03ZM20.2507 18C20.2531 17.6511 20.3355 17.3075 20.4915 16.9954C20.6475 16.6834 20.873 16.4112 21.1507 16.2L30.1507 9.45C30.5386 9.15439 31.0129 8.9943 31.5007 8.9943C31.9884 8.9943 32.4627 9.15439 32.8507 9.45L41.8507 16.2C42.1283 16.4112 42.3538 16.6834 42.5099 16.9954C42.6659 17.3075 42.7483 17.6511 42.7507 18V29.25C42.7507 29.8467 42.5136 30.419 42.0917 30.841C41.6697 31.263 41.0974 31.5 40.5007 31.5H36.0007V24.75C36.0007 24.1533 35.7636 23.581 35.3417 23.159C34.9197 22.7371 34.3474 22.5 33.7507 22.5H29.2507C28.6539 22.5 28.0816 22.7371 27.6597 23.159C27.2377 23.581 27.0007 24.1533 27.0007 24.75V31.5H22.5007C21.9039 31.5 21.3316 31.263 20.9097 30.841C20.4877 30.419 20.2507 29.8467 20.2507 29.25V18ZM5.37817 58.5L10.6207 42.75H19.5982C22.8484 46.5153 26.3195 50.0841 29.9932 53.4375C30.4117 53.8002 30.9469 53.9999 31.5007 53.9999C32.0545 53.9999 32.5897 53.8002 33.0082 53.4375C36.6818 50.0841 40.1529 46.5153 43.4032 42.75H52.3807L57.6232 58.5H5.37817Z" fill="#C5AFDA" fill-opacity="0.6"/>
</svg>
