<svg width="64" height="64" viewBox="0 0 64 64" fill="none" xmlns="http://www.w3.org/2000/svg">
<path d="M59 1H5C2.79086 1 1 2.79086 1 5V59C1 61.2091 2.79086 63 5 63H59C61.2091 63 63 61.2091 63 59V5C63 2.79086 61.2091 1 59 1Z" stroke="#ADADAD" stroke-width="2"/>
<path d="M29.5 30.5C30.0523 30.5 30.5 30.0523 30.5 29.5V22.5C30.5 21.9477 30.9477 21.5 31.5 21.5H32.5C33.0523 21.5 33.5 21.9477 33.5 22.5V29.5C33.5 30.0523 33.9477 30.5 34.5 30.5H41.5C42.0523 30.5 42.5 30.9477 42.5 31.5V32.5C42.5 33.0523 42.0523 33.5 41.5 33.5H34.5C33.9477 33.5 33.5 33.9477 33.5 34.5V41.5C33.5 42.0523 33.0523 42.5 32.5 42.5H31.5C30.9477 42.5 30.5 42.0523 30.5 41.5V34.5C30.5 33.9477 30.0523 33.5 29.5 33.5H22.5C21.9477 33.5 21.5 33.0523 21.5 32.5V31.5C21.5 30.9477 21.9477 30.5 22.5 30.5H29.5Z" fill="#ADADAD"/>
</svg>
