<svg width="124" height="122" viewBox="0 0 124 122" fill="none" xmlns="http://www.w3.org/2000/svg">
<path d="M95.6134 24.125H46.0178L43.7734 94.5781H97.8747L96.7441 59.3516L95.6134 24.125ZM83.0247 41C82.611 41.4266 82.1151 41.7647 81.5668 41.9939C81.0186 42.2231 80.4295 42.3385 79.8353 42.3331H61.7959C60.902 42.3251 60.0304 42.0533 59.2904 41.5519C58.5503 41.0505 57.9748 40.3417 57.636 39.5145C57.2971 38.6872 57.2101 37.7784 57.3858 36.9019C57.5615 36.0254 57.992 35.2203 58.6234 34.5875C59.0345 34.1622 59.5276 33.8247 60.073 33.5956C60.6183 33.3664 61.2044 33.2503 61.7959 33.2544H79.8353C80.7306 33.2591 81.6046 33.5285 82.3472 34.0287C83.0898 34.5288 83.6679 35.2374 84.0088 36.0653C84.3497 36.8932 84.4382 37.8034 84.2631 38.6815C84.088 39.5595 83.6571 40.3662 83.0247 41Z" fill="#D4AAFA"/>
<path d="M54.1009 24.125H46.0178L43.7734 94.5612H97.8747L97.3684 78.9687C85.3897 75.3902 74.8067 68.203 67.0633 58.3879C59.3199 48.5728 54.7933 36.6077 54.1009 24.125Z" fill="#A585C1"/>
<path d="M68.7319 111.875H10.125L12.3863 39.1602H66.4875L68.7319 111.875Z" fill="#E2CBF9"/>
<path d="M18.6975 41.6239V39.1602H12.3863L10.125 111.875H68.7487L68.3606 99.7583C54.3349 97.981 41.4752 91.04 32.2922 80.2906C23.1091 69.5411 18.2621 55.755 18.6975 41.6239Z" fill="#C5AFDA"/>
<path d="M58.9752 48.5935C59.7606 47.37 59.0686 45.5252 57.4295 44.4729C55.7903 43.4206 53.8248 43.5593 53.0394 44.7828C52.2539 46.0062 52.946 47.8511 54.5851 48.9034C56.2242 49.9557 58.1897 49.817 58.9752 48.5935Z" fill="#FEF2DD"/>
<path d="M63.5106 51.106C63.9447 50.4212 63.5564 49.3968 62.6433 48.818C61.7302 48.2392 60.6381 48.3252 60.204 49.01C59.7699 49.6948 60.1582 50.7192 61.0713 51.298C61.9844 51.8768 63.0765 51.7909 63.5106 51.106Z" fill="#FEF2DD"/>
<path d="M77.9456 96.2656H99.5625L97.2506 22.4375H44.3812L43.875 37.4731H23.9963V40.8481H64.8506L66.9938 110.188H11.8125L14.0231 40.8481H20.25V37.4731H10.7494L8.4375 113.562H70.5375L69.9975 96.2656H74.4019V92.8906H69.8456L68.3269 43.9531H79.8356C80.6519 43.9597 81.4611 43.8017 82.2149 43.4886C82.9688 43.1754 83.6518 42.7136 84.2231 42.1306C85.0854 41.2577 85.6713 40.1501 85.9078 38.9461C86.1442 37.7421 86.0207 36.4952 85.5526 35.361C85.0845 34.2268 84.2926 33.2557 83.2759 32.5689C82.2591 31.8821 81.0626 31.5101 79.8356 31.4994H77.7769V34.8744H79.8356C80.3977 34.8856 80.9441 35.0616 81.4069 35.3807C81.8697 35.6998 82.2286 36.1479 82.4389 36.6692C82.6493 37.1906 82.7018 37.7622 82.59 38.3132C82.4782 38.8641 82.2069 39.37 81.81 39.7681C81.5532 40.0302 81.2457 40.2372 80.9062 40.3765C80.5668 40.5157 80.2025 40.5844 79.8356 40.5781H68.2256L68.1244 37.4394H59.0625C59.1396 36.7996 59.431 36.2048 59.8894 35.7519C60.1436 35.4911 60.4483 35.2848 60.7848 35.1455C61.1213 35.0062 61.4827 34.937 61.8469 34.9419H74.1825V31.5669H61.7962C60.9765 31.5494 60.1617 31.699 59.4016 32.0065C58.6415 32.314 57.952 32.773 57.375 33.3556C56.3232 34.4725 55.7221 35.9393 55.6875 37.4731H47.25L47.655 25.8125H93.9769L96.1875 92.8906H77.9456V96.2656Z" fill="#202C35"/>
<path d="M26.4766 48.2393V54.9893C26.4766 58.4265 27.842 61.7229 30.2725 64.1534C32.7029 66.5838 35.9994 67.9493 39.4366 67.9493C42.8738 67.9493 46.1702 66.5838 48.6007 64.1534C51.0311 61.7229 52.3966 58.4265 52.3966 54.9893V48.2393H49.0216V54.9893C49.0216 57.5314 48.0117 59.9693 46.2142 61.7669C44.4166 63.5644 41.9787 64.5743 39.4366 64.5743C36.8945 64.5743 34.4565 63.5644 32.6589 61.7669C30.8614 59.9693 29.8516 57.5314 29.8516 54.9893V48.2393H26.4766Z" fill="#202C35"/>
<path d="M82.3512 18.0825C82.0717 18.0824 81.8022 17.9869 81.5953 17.8147C81.3883 17.6424 81.2588 17.4057 81.2318 17.1507C81.2048 16.8956 81.2824 16.6405 81.4494 16.4351C81.6164 16.2296 81.8609 16.0885 82.1352 16.0392C87.5405 15.0643 89.5985 12.6677 90.605 6.17633C90.6243 6.04114 90.6727 5.91082 90.7474 5.79289C90.8221 5.67497 90.9215 5.57178 91.0399 5.48932C91.1584 5.40685 91.2935 5.34673 91.4375 5.31244C91.5814 5.27815 91.7314 5.27037 91.8787 5.28955C92.0259 5.30873 92.1676 5.35449 92.2954 5.42418C92.4233 5.49388 92.5348 5.58611 92.6235 5.69556C92.7122 5.80501 92.7763 5.9295 92.8122 6.06182C92.8481 6.19415 92.8549 6.33168 92.8325 6.46646C91.7 13.7746 88.9175 16.9171 82.5695 18.0625C82.4976 18.0758 82.4245 18.0824 82.3512 18.0825Z" fill="#222222"/>
<path d="M101.085 18.0825C101.012 18.0824 100.938 18.0758 100.866 18.0625C94.5191 16.9171 91.7373 13.7746 90.6048 6.46646C90.5823 6.33168 90.5892 6.19415 90.6251 6.06182C90.661 5.9295 90.7251 5.80501 90.8138 5.69556C90.9025 5.58611 91.014 5.49388 91.1419 5.42418C91.2697 5.35449 91.4114 5.30873 91.5586 5.28955C91.7059 5.27037 91.8558 5.27815 91.9998 5.31244C92.1438 5.34673 92.2789 5.40685 92.3973 5.48932C92.5158 5.57178 92.6152 5.67497 92.6899 5.79289C92.7646 5.91082 92.813 6.04114 92.8323 6.17633C93.8381 12.6677 95.8968 15.0636 101.302 16.0392C101.576 16.0885 101.821 16.2296 101.988 16.4351C102.155 16.6405 102.232 16.8956 102.205 17.1507C102.179 17.4057 102.049 17.6424 101.842 17.8147C101.635 17.9869 101.366 18.0824 101.086 18.0825H101.085ZM91.7171 28.8123C91.4464 28.8119 91.1849 28.7221 90.9806 28.5594C90.7763 28.3966 90.6429 28.1717 90.6048 27.9261C89.5983 21.4354 87.5403 19.0381 82.1343 18.0625C81.9874 18.0382 81.8473 17.9874 81.722 17.913C81.5968 17.8385 81.4889 17.742 81.4048 17.629C81.3206 17.516 81.2619 17.3887 81.2319 17.2547C81.2019 17.1207 81.2014 16.9825 81.2302 16.8482C81.2591 16.714 81.3168 16.5864 81.4 16.4728C81.4832 16.3592 81.5903 16.2619 81.7149 16.1866C81.8395 16.1113 81.9793 16.0595 82.1259 16.0342C82.2726 16.0089 82.4234 16.0106 82.5693 16.0392C88.9173 17.1853 91.6991 20.3278 92.8316 27.636C92.8735 27.9067 92.7964 28.1817 92.6172 28.4003C92.4381 28.619 92.1715 28.7635 91.8761 28.802C91.8234 28.8087 91.7703 28.8121 91.7171 28.8123Z" fill="#222222"/>
<path d="M91.7203 28.8132C91.6668 28.8131 91.6135 28.8096 91.5605 28.8029C91.4142 28.7838 91.2734 28.7385 91.1462 28.6696C91.019 28.6006 90.9078 28.5093 90.8191 28.401C90.7303 28.2926 90.6658 28.1693 90.629 28.0381C90.5923 27.9069 90.5842 27.7703 90.605 27.6362C91.7375 20.328 94.5193 17.1862 100.867 16.0394C101.013 16.0108 101.164 16.0091 101.311 16.0344C101.457 16.0597 101.597 16.1115 101.722 16.1868C101.846 16.2621 101.953 16.3594 102.037 16.473C102.12 16.5866 102.178 16.7142 102.206 16.8485C102.235 16.9827 102.235 17.1209 102.205 17.2549C102.175 17.3889 102.116 17.5162 102.032 17.6292C101.948 17.7422 101.84 17.8387 101.715 17.9132C101.589 17.9876 101.449 18.0384 101.302 18.0627C95.897 19.039 93.839 21.4356 92.8325 27.9263C92.7946 28.1721 92.6613 28.3971 92.457 28.56C92.2526 28.7229 91.9911 28.8128 91.7203 28.8132ZM100.813 30.3552C100.534 30.3543 100.266 30.2585 100.06 30.0863C99.8536 29.9141 99.7245 29.6779 99.6976 29.4235C99.6707 29.1691 99.7479 28.9145 99.9141 28.7093C100.08 28.504 100.324 28.3627 100.597 28.3127C104.674 27.577 106.229 25.7572 106.993 20.8251C107.038 20.5566 107.197 20.3152 107.434 20.1532C107.672 19.9912 107.97 19.9218 108.264 19.96C108.557 19.9982 108.822 20.141 109.001 20.3573C109.18 20.5736 109.259 20.8459 109.221 21.1152C108.321 26.9219 106.101 29.4216 101.032 30.336C100.96 30.349 100.887 30.3554 100.813 30.3552Z" fill="#222222"/>
<path d="M115.401 30.3557C115.327 30.3558 115.254 30.3494 115.182 30.3364C110.113 29.422 107.893 26.923 106.993 21.1157C106.955 20.8464 107.034 20.574 107.213 20.3577C107.392 20.1414 107.657 19.9987 107.95 19.9605C108.244 19.9222 108.542 19.9917 108.78 20.1536C109.017 20.3156 109.176 20.5571 109.221 20.8255C109.986 25.7577 111.54 27.5768 115.617 28.3124C115.891 28.3617 116.135 28.5028 116.302 28.7083C116.469 28.9137 116.547 29.1688 116.52 29.4239C116.493 29.6789 116.364 29.9156 116.157 30.0879C115.95 30.2601 115.68 30.3556 115.401 30.3557ZM108.106 38.7102C107.835 38.71 107.574 38.6201 107.369 38.4572C107.165 38.2943 107.031 38.0692 106.993 37.8233C106.228 32.8919 104.674 31.072 100.597 30.3364C100.45 30.3121 100.31 30.2613 100.185 30.1869C100.06 30.1124 99.9518 30.0159 99.8677 29.9029C99.7835 29.7899 99.7248 29.6626 99.6948 29.5286C99.6648 29.3945 99.6642 29.2564 99.6931 29.1221C99.722 28.9879 99.7797 28.8602 99.8629 28.7467C99.9461 28.6331 100.053 28.5358 100.178 28.4605C100.302 28.3852 100.442 28.3334 100.589 28.3081C100.736 28.2828 100.886 28.2845 101.032 28.3131C106.102 29.2275 108.322 31.7272 109.222 37.5339C109.243 37.668 109.235 37.8046 109.198 37.9359C109.161 38.0671 109.096 38.1904 109.007 38.2987C108.918 38.407 108.807 38.4981 108.68 38.567C108.552 38.6358 108.412 38.681 108.265 38.6999C108.213 38.7066 108.159 38.71 108.106 38.7102Z" fill="#222222"/>
<path d="M108.109 38.7092C108.056 38.7091 108.002 38.7057 107.95 38.6989C107.803 38.6799 107.662 38.6347 107.535 38.5659C107.408 38.497 107.297 38.4058 107.208 38.2975C107.119 38.1892 107.054 38.066 107.018 37.9348C106.981 37.8036 106.973 37.667 106.993 37.5329C107.893 31.7256 110.113 29.2265 115.182 28.3122C115.472 28.2641 115.772 28.3227 116.016 28.4753C116.259 28.6278 116.428 28.8621 116.485 29.1277C116.542 29.3932 116.483 29.6686 116.321 29.8946C116.158 30.1205 115.905 30.2789 115.617 30.3355C111.54 31.0711 109.986 32.8909 109.222 37.8224C109.184 38.0681 109.05 38.2931 108.846 38.4561C108.642 38.619 108.38 38.7089 108.109 38.7092ZM107.891 13.4367C107.611 13.4368 107.342 13.3415 107.135 13.1693C106.928 12.9971 106.798 12.7604 106.771 12.5053C106.744 12.2502 106.821 11.995 106.988 11.7895C107.155 11.5839 107.4 11.4428 107.674 11.3935C110.236 10.9315 111.167 9.82874 111.656 6.67243C111.675 6.53724 111.724 6.40691 111.798 6.28899C111.873 6.17106 111.973 6.06788 112.091 5.98541C112.209 5.90294 112.345 5.84282 112.489 5.80853C112.633 5.77424 112.782 5.76646 112.93 5.78565C113.077 5.80483 113.219 5.85059 113.346 5.92028C113.474 5.98997 113.586 6.08221 113.675 6.19166C113.763 6.30111 113.827 6.42559 113.863 6.55792C113.899 6.69024 113.906 6.82777 113.884 6.96255C113.366 10.3052 112.186 12.6826 108.109 13.4175C108.037 13.4304 107.964 13.4369 107.891 13.4367Z" fill="#222222"/>
<path d="M117.648 13.4367C117.575 13.4369 117.501 13.4305 117.429 13.4175C113.355 12.6819 112.174 10.3052 111.655 6.96187C111.632 6.82664 111.638 6.68848 111.673 6.55545C111.709 6.42242 111.772 6.29718 111.861 6.18705C111.95 6.07691 112.062 5.98408 112.19 5.91398C112.318 5.84387 112.461 5.79789 112.609 5.77871C112.757 5.75954 112.907 5.76756 113.052 5.80231C113.196 5.83705 113.332 5.89782 113.45 5.98108C113.569 6.06434 113.668 6.16841 113.742 6.28723C113.817 6.40604 113.864 6.53722 113.883 6.67312C114.372 9.82874 115.303 10.9315 117.865 11.3935C118.139 11.4428 118.384 11.584 118.551 11.7895C118.718 11.995 118.796 12.2502 118.768 12.5053C118.741 12.7604 118.612 12.9971 118.405 13.1693C118.198 13.3415 117.928 13.4368 117.648 13.4367ZM112.767 19.0254C112.497 19.0251 112.235 18.9352 112.031 18.7723C111.826 18.6093 111.693 18.3843 111.655 18.1386C111.166 14.9829 110.235 13.8788 107.673 13.4175C107.381 13.3646 107.123 13.2073 106.956 12.9801C106.79 12.7529 106.729 12.4745 106.787 12.2061C106.845 11.9377 107.016 11.7013 107.264 11.5489C107.512 11.3965 107.816 11.3406 108.108 11.3935C112.185 12.1291 113.364 14.5065 113.883 17.8491C113.904 17.9832 113.896 18.1198 113.859 18.251C113.822 18.3822 113.758 18.5054 113.669 18.6137C113.58 18.722 113.469 18.8132 113.341 18.882C113.214 18.9509 113.073 18.9961 112.927 19.0151C112.874 19.0218 112.821 19.0253 112.767 19.0254Z" fill="#222222"/>
<path d="M112.771 19.0258C112.718 19.0257 112.664 19.0223 112.611 19.0155C112.316 18.977 112.049 18.8326 111.87 18.6139C111.691 18.3953 111.614 18.1203 111.656 17.8495C112.175 14.5069 113.355 12.1295 117.431 11.3939C117.577 11.3653 117.727 11.3636 117.874 11.3889C118.021 11.4142 118.161 11.466 118.285 11.5413C118.41 11.6166 118.517 11.7139 118.6 11.8275C118.683 11.9411 118.741 12.0687 118.77 12.2029C118.799 12.3372 118.798 12.4754 118.768 12.6094C118.738 12.7434 118.679 12.8707 118.595 12.9837C118.511 13.0967 118.403 13.1932 118.278 13.2677C118.153 13.3421 118.013 13.3929 117.866 13.4172C115.304 13.8792 114.374 14.9833 113.883 18.139C113.845 18.3848 113.712 18.6098 113.508 18.7727C113.303 18.9356 113.042 19.0255 112.771 19.0258Z" fill="#222222"/>
</svg>
