<svg width="66" height="66" viewBox="0 0 66 66" fill="none" xmlns="http://www.w3.org/2000/svg">
<path d="M54.3864 17.5651H48.3034C47.7149 17.5651 47.1869 17.1911 46.9834 16.6384L45.3939 12.2604C44.7229 10.4041 42.9436 9.16113 40.9719 9.16113H25.0301C23.0556 9.16113 21.2791 10.4041 20.6109 12.2576L19.0159 16.6356C18.8124 17.1911 18.2816 17.5651 17.6959 17.5651H11.6129C7.33111 17.5651 3.84961 21.0439 3.84961 25.3229V49.0829C3.84961 53.3619 7.33111 56.8406 11.6101 56.8406H54.3864C58.6681 56.8406 62.1469 53.3591 62.1469 49.0829V25.3229C62.1496 21.0439 58.6681 17.5651 54.3864 17.5651ZM58.8496 49.0829C58.8496 51.5441 56.8449 53.5434 54.3864 53.5434H11.6129C9.15161 53.5434 7.14961 51.5414 7.14961 49.0829V25.3229C7.14961 22.8616 9.15436 20.8624 11.6129 20.8624H17.6959C19.6649 20.8624 21.4386 19.6194 22.1151 17.7659L23.7101 13.3824C23.9081 12.8324 24.4416 12.4584 25.0274 12.4584H40.9691C41.5576 12.4584 42.0884 12.8324 42.2891 13.3851L43.8814 17.7686C44.5579 19.6194 46.3344 20.8624 48.3006 20.8624H54.3836C56.8449 20.8624 58.8469 22.8644 58.8469 25.3229L58.8496 49.0829ZM32.9996 25.7161C26.7819 25.7161 21.7246 30.7734 21.7246 36.9911C21.7246 43.2089 26.7819 48.2661 32.9996 48.2661C39.2174 48.2661 44.2746 43.2089 44.2746 36.9911C44.2746 30.7734 39.2174 25.7161 32.9996 25.7161ZM32.9996 44.9661C28.6024 44.9661 25.0246 41.3856 25.0246 36.9911C25.0246 32.5966 28.6051 29.0161 32.9996 29.0161C37.3941 29.0161 40.9746 32.5966 40.9746 36.9911C40.9746 41.3856 37.3969 44.9661 32.9996 44.9661Z" fill="#757575" stroke="#757575"/>
</svg>
