<svg width="24" height="24" viewBox="0 0 24 24" fill="none" xmlns="http://www.w3.org/2000/svg">
<path d="M16.6154 6.22069L16.6162 6.2228C16.7614 6.61713 17.1384 6.88705 17.5654 6.88705H19.7774C21.0587 6.88705 22.1002 7.92853 22.0994 9.20773V9.20805V17.8481C22.0994 19.1269 21.0582 20.1691 19.7774 20.1691H4.22239C2.9423 20.1691 1.90039 19.1277 1.90039 17.8481V9.20805C1.90039 7.92854 2.94219 6.88705 4.22339 6.88705H6.43539C6.86128 6.88705 7.23977 6.61716 7.38488 6.22105L7.38518 6.22021L7.96519 4.62821L7.96575 4.62664C8.13689 4.15196 8.59401 3.83105 9.10239 3.83105H14.8994C15.4067 3.83105 15.8651 4.15192 16.0372 4.62803L16.0374 4.62869L16.6154 6.22069ZM21.9004 17.8481V17.848L21.8994 9.20805C21.8994 9.20804 21.8994 9.20802 21.8994 9.208C21.8994 8.03768 20.9473 7.08605 19.7764 7.08605H17.5644C17.0599 7.08605 16.6013 6.7658 16.4272 6.28983C16.4271 6.28968 16.4271 6.28954 16.427 6.2894L15.8484 4.69637C15.8484 4.69636 15.8484 4.69636 15.8483 4.69635C15.7039 4.29874 15.3239 4.03005 14.8984 4.03005H9.10139C8.67871 4.03005 8.29627 4.29711 8.1523 4.69571C8.15218 4.69604 8.15206 4.69637 8.15195 4.69669L7.5727 6.28862C7.57268 6.28868 7.57266 6.28873 7.57264 6.28879C7.39839 6.76599 6.94066 7.08605 6.43539 7.08605H4.22339C3.05385 7.08605 2.10039 8.03631 2.10039 9.20805V17.8481C2.10039 19.0184 3.05245 19.9701 4.22339 19.9701H19.7774C20.9469 19.9701 21.9004 19.0198 21.9004 17.8481ZM8.40039 13.4511C8.40039 11.4662 10.0155 9.85105 12.0004 9.85105C13.9852 9.85105 15.6004 11.4662 15.6004 13.4511C15.6004 15.4359 13.9852 17.0511 12.0004 17.0511C10.0155 17.0511 8.40039 15.4359 8.40039 13.4511ZM8.60039 13.4511C8.60039 15.3251 10.1251 16.8511 12.0004 16.8511C13.8756 16.8511 15.4004 15.3251 15.4004 13.4511C15.4004 11.5769 13.8745 10.0511 12.0004 10.0511C10.1262 10.0511 8.60039 11.5769 8.60039 13.4511Z" fill="#A585C1" stroke="#A585C1"/>
</svg>
