<svg width="128" height="128" viewBox="0 0 128 128" fill="none" xmlns="http://www.w3.org/2000/svg">
<g clip-path="url(#clip0_5215_5919)">
<path d="M76.1708 82.1954C76.1708 82.6926 76.3683 83.1695 76.72 83.5212C77.0716 83.8728 77.5485 84.0704 78.0458 84.0704H83.5608C83.2196 84.7165 82.7087 85.2574 82.0831 85.6349C81.4575 86.0125 80.7408 86.2124 80.01 86.2131H78.0458C77.6786 86.2131 77.3195 86.3209 77.0131 86.5231C76.7066 86.7253 76.4663 87.0131 76.3218 87.3507C76.1774 87.6883 76.1353 88.0608 76.2007 88.4221C76.2662 88.7834 76.4362 89.1176 76.6898 89.3831L84.5468 97.6096C84.7169 97.7877 84.9203 97.9305 85.1456 98.0299C85.3709 98.1294 85.6135 98.1835 85.8597 98.1891C86.1058 98.1948 86.3507 98.1519 86.5803 98.063C86.8099 97.974 87.0197 97.8407 87.1978 97.6706C87.3759 97.5005 87.5187 97.2971 87.6181 97.0718C87.7176 96.8465 87.7717 96.6039 87.7773 96.3577C87.783 96.1116 87.7401 95.8667 87.6512 95.6371C87.5622 95.4075 87.4289 95.1977 87.2588 95.0196L82.1445 89.6648C83.4559 89.2868 84.6451 88.5711 85.5932 87.5893C86.5412 86.6076 87.215 85.3941 87.547 84.0704H88.8495C89.3468 84.0704 89.8237 83.8728 90.1754 83.5212C90.527 83.1695 90.7245 82.6926 90.7245 82.1954C90.7245 81.6981 90.527 81.2212 90.1754 80.8695C89.8237 80.5179 89.3468 80.3204 88.8495 80.3204H87.5478C87.3601 79.5652 87.0594 78.8428 86.6558 78.1776H88.8493C89.3466 78.1776 89.8235 77.9801 90.1751 77.6284C90.5267 77.2768 90.7243 76.7999 90.7243 76.3026C90.7243 75.8053 90.5267 75.3284 90.1751 74.9768C89.8235 74.6251 89.3466 74.4276 88.8493 74.4276H78.0458C77.5485 74.4276 77.0716 74.6251 76.72 74.9768C76.3683 75.3284 76.1708 75.8053 76.1708 76.3026C76.1708 76.7999 76.3683 77.2768 76.72 77.6284C77.0716 77.9801 77.5485 78.1776 78.0458 78.1776H80.01C80.7407 78.1783 81.4574 78.3781 82.083 78.7556C82.7086 79.1331 83.2195 79.674 83.5608 80.3201H78.0458C77.5485 80.3201 77.0716 80.5176 76.72 80.8693C76.3683 81.2209 76.1708 81.6978 76.1708 82.1951V82.1954ZM118.625 58.9411H71.4045L69.9385 44.4868C69.6968 42.1702 69.0105 39.9219 67.9173 37.8651L67.1008 36.3286L67.0703 36.2688C67.0665 36.2608 67.0623 36.2528 67.0583 36.2451L60.202 22.6846C59.6557 21.6036 58.8312 20.6876 57.8135 20.0308C56.7957 19.374 55.6214 19.0001 54.4113 18.9476C54.3419 18.9448 54.2724 18.9456 54.203 18.9501L51.2713 19.1491C42.4863 19.7453 33.7016 20.3407 24.9173 20.9353L21.01 21.2016C20.3649 21.1813 19.7202 21.1507 19.076 21.1098C18.6178 21.0806 18.1503 21.0446 17.6593 21.0018C17.5684 20.1517 17.2149 19.351 16.6481 18.7108C16.0813 18.0707 15.3292 17.623 14.4963 17.4298L2.33055 14.3823C1.84815 14.2615 1.33753 14.3373 0.910997 14.593C0.484469 14.8487 0.17698 15.2633 0.0561737 15.7457C-0.0646324 16.2281 0.0111403 16.7387 0.266823 17.1653C0.522505 17.5918 0.937153 17.8993 1.41955 18.0201L13.6025 21.0721L13.6438 21.0818C13.7407 21.1039 13.8249 21.1635 13.8779 21.2476C13.9309 21.3317 13.9484 21.4334 13.9265 21.5303L7.8583 48.3018C7.84746 48.3499 7.82726 48.3953 7.79884 48.4355C7.77043 48.4758 7.73436 48.51 7.6927 48.5362C7.65104 48.5625 7.60461 48.5803 7.55606 48.5886C7.50752 48.5969 7.45782 48.5955 7.4098 48.5846L2.2898 47.4238C2.04964 47.3694 1.80112 47.3628 1.5584 47.4044C1.31569 47.446 1.08355 47.535 0.875236 47.6663C0.66692 47.7976 0.486507 47.9687 0.344299 48.1697C0.202091 48.3707 0.100873 48.5978 0.0464237 48.838C-0.00802568 49.0781 -0.0146398 49.3267 0.0269588 49.5694C0.0685575 49.8121 0.157554 50.0442 0.288868 50.2525C0.420182 50.4608 0.591241 50.6413 0.792278 50.7835C0.993315 50.9257 1.22039 51.0269 1.46055 51.0813L6.5808 52.2418C6.88257 52.3105 7.19107 52.3452 7.50055 52.3453C8.43474 52.3428 9.34046 52.0235 10.0697 51.4396C10.799 50.8558 11.3087 50.0419 11.5155 49.1308L11.5455 48.9983L15.1503 51.4891C16.0501 52.1109 17.032 52.6045 18.0678 52.9556L23.0903 54.6681C22.3654 55.1607 21.7838 55.8364 21.4045 56.6265C21.0252 57.4167 20.8618 58.2931 20.9308 59.1668C20.9333 59.2161 20.9375 59.2656 20.9438 59.3161C21.06 60.5504 21.6325 61.6969 22.5494 62.5314C23.4663 63.3658 24.6615 63.8281 25.9013 63.8278C25.9596 63.8278 26.0188 63.8268 26.0775 63.8248C27.172 63.7868 28.2669 63.7485 29.362 63.7098C28.9144 64.6421 28.7523 65.6859 28.8961 66.71C29.0399 67.7341 29.4832 68.6928 30.1703 69.4657C30.8574 70.2386 31.7576 70.7912 32.7578 71.054C33.758 71.3168 34.8135 71.2782 35.7918 70.9428L38.8951 69.8813V104.301C38.8978 106.787 39.8864 109.17 41.644 110.927C43.4015 112.685 45.7845 113.674 48.2701 113.676H118.625C121.111 113.674 123.494 112.685 125.251 110.927C127.009 109.17 127.997 106.787 128 104.301V68.3161C127.997 65.8305 127.009 63.4476 125.251 61.69C123.494 59.9325 121.111 58.9439 118.625 58.9411ZM25.9475 60.0771C25.6317 60.0873 25.324 59.9761 25.0875 59.7665C24.851 59.5568 24.7038 59.2646 24.6761 58.9498C24.6748 58.9354 24.6733 58.921 24.6715 58.9066L24.6708 58.8936C24.6447 58.6021 24.7235 58.3108 24.8928 58.0721C25.0622 57.8334 25.311 57.6628 25.5948 57.5911C25.9365 57.5048 26.5603 57.3076 27.5473 56.9933C27.9521 56.8643 28.4168 56.7161 28.7748 56.6058L35.2248 58.8048L33.7833 59.8033C31.1703 59.8958 28.5583 59.9871 25.9473 60.0771H25.9475ZM39.2388 65.8006L34.5738 67.3961C34.3768 67.4632 34.1679 67.4885 33.9605 67.4704C33.7532 67.4523 33.5519 67.3912 33.3694 67.291C33.187 67.1909 33.0274 67.0537 32.9009 66.8885C32.7744 66.7232 32.6837 66.5334 32.6345 66.3311C32.5633 66.0304 32.5858 65.715 32.699 65.4275C32.8122 65.1399 33.0107 64.8938 33.2678 64.7223L35.2336 63.3606C35.4301 63.2697 35.6095 63.1453 35.7635 62.9931L39.2816 60.5561L41.5103 61.8251C40.4349 62.9412 39.6542 64.3074 39.2388 65.8006ZM39.37 56.2916C39.2674 56.2331 39.1594 56.1845 39.0476 56.1463L29.4641 52.8788L29.4368 52.8696L19.2731 49.4046C18.5658 49.1649 17.8954 48.8279 17.281 48.4033L12.936 45.4008C12.7772 45.2912 12.6024 45.2067 12.4178 45.1503L17.0518 24.7078C17.0888 24.7133 17.1255 24.7203 17.1635 24.7236C18.4364 24.8378 19.7124 24.9142 20.9898 24.9526C21.047 24.9543 21.106 24.9536 21.164 24.9496L25.1715 24.6766C33.9569 24.0828 42.7415 23.4874 51.5253 22.8906L54.3405 22.6993C54.8685 22.7379 55.3775 22.9124 55.818 23.2059C56.2585 23.4994 56.6155 23.9019 56.8543 24.3743L63.7108 37.9346L63.7708 38.0526C63.7769 38.0646 63.783 38.0765 63.7893 38.0883L64.605 39.6233C65.4717 41.2537 66.016 43.0358 66.2083 44.8721L67.635 58.9411H63.0445L61.7783 48.6641C61.745 48.3932 61.6529 48.1328 61.5085 47.9012C61.3641 47.6696 61.1709 47.4723 60.9423 47.3231L58.7395 45.8858C58.7273 45.8776 58.7163 45.8683 58.7038 45.8601L52.9358 42.0996C52.3017 41.6865 51.5896 41.408 50.8435 41.2814C50.0974 41.1548 49.3332 41.1828 48.5983 41.3636C47.8635 41.5444 47.1736 41.8742 46.5714 42.3325C45.9692 42.7908 45.4676 43.368 45.0975 44.0281C44.7798 44.5936 44.5651 45.211 44.4633 45.8516C44.4468 45.9458 44.4338 46.0433 44.4248 46.1376C44.4033 46.3329 44.3925 46.5293 44.3926 46.7258C44.3889 47.5627 44.5769 48.3892 44.9422 49.1421C45.3075 49.8949 45.8404 50.5541 46.5 51.0691L60.716 62.2616L60.7211 62.2656L63.6973 64.6091C64.0126 64.8541 64.2612 65.1745 64.4203 65.5408C64.6225 66.0076 64.6743 66.5258 64.5685 67.0233C64.5278 67.2089 64.4654 67.3891 64.3825 67.5601C64.3785 67.5691 64.3736 67.5776 64.3698 67.5866C64.1694 67.9903 63.8598 68.3298 63.4763 68.5665C63.0927 68.8032 62.6505 68.9277 62.1998 68.9258C61.7805 68.9269 61.3684 68.8176 61.0048 68.6088L39.37 56.2916ZM66.927 70.4778C67.0057 70.384 67.0811 70.2884 67.1533 70.1911H111.492C111.826 71.4536 112.489 72.6051 113.413 73.5286C114.336 74.4522 115.488 75.1149 116.75 75.4496V97.1676C115.488 97.5023 114.336 98.165 113.413 99.0886C112.489 100.012 111.826 101.164 111.492 102.426H55.4035C55.0689 101.164 54.4061 100.012 53.4826 99.0886C52.559 98.165 51.4075 97.5023 50.1451 97.1676V75.4496C51.4075 75.1149 52.559 74.4522 53.4826 73.5286C54.4061 72.6051 55.0689 71.4536 55.4035 70.1911H56.2045L59.1501 71.8681C60.4045 72.5818 61.8693 72.8335 63.29 72.5796C64.7107 72.3256 65.9976 71.582 66.927 70.4778ZM58.9125 56.0686L48.815 48.1188C48.6039 47.9534 48.4336 47.7419 48.317 47.5003C48.2004 47.2588 48.1407 46.9938 48.1426 46.7256C48.1425 46.6639 48.1459 46.6024 48.1528 46.5411C48.1548 46.5253 48.1558 46.5126 48.1573 46.4968C48.1603 46.4808 48.1628 46.4648 48.1653 46.4488C48.1972 46.2424 48.2662 46.0433 48.3688 45.8613C48.4878 45.6492 48.649 45.4637 48.8426 45.3163C49.0361 45.169 49.2579 45.063 49.494 45.0049C49.7302 44.9467 49.9759 44.9377 50.2157 44.9783C50.4555 45.0189 50.6844 45.1084 50.8883 45.2411L52.4908 46.2861L52.4978 46.2911L58.163 49.9873L58.9125 56.0686ZM124.25 104.301C124.248 105.793 123.655 107.222 122.601 108.277C121.546 109.331 120.116 109.925 118.625 109.926H48.2701C46.7787 109.925 45.349 109.331 44.2945 108.277C43.24 107.222 42.6468 105.793 42.6451 104.301V68.3161C42.6464 67.4328 42.8554 66.5621 43.2551 65.7744C43.6548 64.9866 44.234 64.3039 44.946 63.7811L51.9735 67.7821C51.9217 67.9554 51.8953 68.1352 51.8951 68.3161C51.8939 69.2772 51.5116 70.1985 50.8321 70.8781C50.1525 71.5577 49.2311 71.94 48.2701 71.9411C47.7728 71.9411 47.2959 72.1386 46.9442 72.4903C46.5926 72.8419 46.3951 73.3188 46.3951 73.8161V98.8011C46.3951 99.2984 46.5926 99.7753 46.9442 100.127C47.2959 100.479 47.7728 100.676 48.2701 100.676C49.2311 100.677 50.1525 101.06 50.8321 101.739C51.5116 102.419 51.8939 103.34 51.8951 104.301C51.8951 104.798 52.0926 105.275 52.4442 105.627C52.7959 105.979 53.2728 106.176 53.7701 106.176H113.125C113.622 106.176 114.099 105.979 114.451 105.627C114.803 105.275 115 104.798 115 104.301C115.001 103.34 115.383 102.419 116.063 101.739C116.743 101.06 117.664 100.677 118.625 100.676C119.122 100.676 119.599 100.479 119.951 100.127C120.303 99.7753 120.5 99.2984 120.5 98.8011V73.8161C120.5 73.3188 120.303 72.8419 119.951 72.4903C119.599 72.1386 119.122 71.9411 118.625 71.9411C117.664 71.94 116.743 71.5577 116.063 70.8781C115.383 70.1985 115.001 69.2772 115 68.3161C115 67.8188 114.803 67.3419 114.451 66.9903C114.099 66.6386 113.622 66.4411 113.125 66.4411H68.368C68.3597 65.6152 68.186 64.7993 67.8573 64.0416C67.6463 63.5581 67.3733 63.1042 67.0453 62.6911H118.625C120.116 62.6928 121.546 63.286 122.601 64.3405C123.655 65.395 124.248 66.8248 124.25 68.3161V104.301Z" fill="#A585C1"/>
</g>
<defs>
<clipPath id="clip0_5215_5919">
<rect width="128" height="128" fill="white"/>
</clipPath>
</defs>
</svg>
