<svg width="30" height="30" viewBox="0 0 30 30" fill="none" xmlns="http://www.w3.org/2000/svg">
<path d="M7.50055 7.65984L7.5 19.6875C7.5 22.1728 9.43413 24.2063 11.8793 24.365L12.1875 24.375L20.4645 24.3763C20.078 25.468 19.0366 26.25 17.8125 26.25H11.25C8.1434 26.25 5.625 23.7316 5.625 20.625V10.3125C5.625 9.08772 6.40789 8.04578 7.50055 7.65984ZM21.5625 3.75C23.1158 3.75 24.375 5.0092 24.375 6.5625V19.6875C24.375 21.2408 23.1158 22.5 21.5625 22.5H12.1875C10.6342 22.5 9.375 21.2408 9.375 19.6875V6.5625C9.375 5.0092 10.6342 3.75 12.1875 3.75H21.5625ZM21.5625 5.625H12.1875C11.6697 5.625 11.25 6.04473 11.25 6.5625V19.6875C11.25 20.2053 11.6697 20.625 12.1875 20.625H21.5625C22.0803 20.625 22.5 20.2053 22.5 19.6875V6.5625C22.5 6.04473 22.0803 5.625 21.5625 5.625Z" fill="#A585C1"/>
</svg>
