<svg width="20" height="22" viewBox="0 0 20 22" fill="none" xmlns="http://www.w3.org/2000/svg">
<path d="M1 5H19" stroke="#ADADAD" stroke-miterlimit="10" stroke-linecap="round" stroke-linejoin="round"/>
<path d="M14.5272 21H5.47122C4.96652 20.9731 4.49293 20.7477 4.15369 20.3731C3.81444 19.9984 3.63706 19.5049 3.66022 19V5H6.37622V3C6.35307 2.49495 6.53059 2.00124 6.87004 1.62657C7.20949 1.2519 7.68334 1.02666 8.18822 1H11.8102C12.3149 1.02692 12.7885 1.25226 13.1277 1.62691C13.467 2.00155 13.6444 2.49512 13.6212 3V5H16.3382V19C16.3614 19.5049 16.184 19.9984 15.8447 20.3731C15.5055 20.7477 15.0319 20.9731 14.5272 21Z" stroke="#ADADAD" stroke-miterlimit="10" stroke-linecap="round" stroke-linejoin="round"/>
<path d="M8 8.72461V16.7076" stroke="#ADADAD" stroke-miterlimit="10" stroke-linecap="round" stroke-linejoin="round"/>
<path d="M12 8.72461V16.7076" stroke="#ADADAD" stroke-miterlimit="10" stroke-linecap="round" stroke-linejoin="round"/>
</svg>
