<svg width="18" height="18" viewBox="0 0 18 18" fill="none" xmlns="http://www.w3.org/2000/svg">
<path d="M17.5176 2.92217L15.0635 0.465297C14.7524 0.166718 14.3378 0 13.9066 0C13.4754 0 13.0608 0.166718 12.7496 0.465297L1.75476 11.572C1.70624 11.6211 1.67088 11.6817 1.65192 11.7481L0.015481 17.4783C-0.00434899 17.5484 -0.00514259 17.6225 0.0131818 17.693C0.0315062 17.7636 0.0682869 17.8279 0.11974 17.8795C0.171193 17.9311 0.23546 17.968 0.305929 17.9866C0.376398 18.0051 0.450525 18.0045 0.520682 17.9848L6.24758 16.3469C6.31537 16.3285 6.37733 16.2931 6.42755 16.244L17.5214 5.23762C17.8279 4.93054 18 4.5144 18 4.08053C18 3.64667 17.8279 3.23053 17.5214 2.92345L17.5176 2.92217ZM10.9615 3.43643L12.4694 4.94835L4.61114 12.8101L4.04681 11.6813C4.01284 11.6132 3.96055 11.556 3.89583 11.516C3.8311 11.476 3.75651 11.4549 3.68044 11.455H3.02484L10.9615 3.43643ZM1.00532 16.9949L1.54265 15.1307L2.86929 16.4575L1.00532 16.9949ZM5.72696 15.6462L3.76914 16.2003L1.79975 14.2307L2.35895 12.274H3.43362L4.13808 13.6882C4.17761 13.7671 4.24165 13.8312 4.32062 13.8707L5.73467 14.5753V15.6501L5.72696 15.6462ZM6.54453 14.9738V14.3181C6.54465 14.2421 6.52353 14.1675 6.48356 14.1027C6.44359 14.038 6.38635 13.9857 6.31829 13.9517L5.18962 13.3873L13.0504 5.52946L14.5558 7.03495L6.54453 14.9738ZM16.9404 4.66936L15.1407 6.45641L11.5413 2.8566L13.3281 1.05669C13.4839 0.907699 13.6911 0.824541 13.9066 0.824541C14.1221 0.824541 14.3293 0.907699 14.4851 1.05669L16.9391 3.51099C17.0151 3.58693 17.0754 3.67712 17.1166 3.77639C17.1577 3.87566 17.1789 3.98207 17.1789 4.08953C17.1789 4.197 17.1577 4.30341 17.1166 4.40268C17.0754 4.50195 17.0151 4.59213 16.9391 4.66808L16.9404 4.66936Z" fill="#ADADAD"/>
</svg>
