<svg width="25" height="25" viewBox="0 0 25 25" fill="none" xmlns="http://www.w3.org/2000/svg">
<g clip-path="url(#clip0_5215_3071)">
<path d="M19.3886 0H5.61136C2.51229 0 0 2.51229 0 5.61136V19.3886C0 22.4877 2.51229 25 5.61136 25H19.3886C22.4877 25 25 22.4877 25 19.3886V5.61136C25 2.51229 22.4877 0 19.3886 0Z" fill="url(#paint0_linear_5215_3071)"/>
<path d="M8.65866 4.33008H16.4522C16.6254 4.41667 16.8852 4.41667 17.0584 4.50327C17.8184 4.62644 18.5289 4.95912 19.1102 5.46394C19.6915 5.96875 20.1205 6.62568 20.349 7.36091C20.4769 7.78459 20.5639 8.21955 20.6088 8.65983V16.2802C20.485 17.246 20.1284 18.1672 19.5696 18.9646C19.0903 19.52 18.4894 19.9574 17.8135 20.2427C17.1377 20.5281 16.4052 20.6537 15.6729 20.61H9.17823C8.0192 20.6662 6.87961 20.2966 5.97422 19.5708C5.42365 19.0951 4.98916 18.4998 4.70399 17.8304C4.41883 17.161 4.29053 16.4353 4.32891 15.7087V9.64702C4.3146 9.21224 4.34361 8.77712 4.4155 8.34809C4.50295 7.46031 4.86797 6.62266 5.45871 5.9542C6.04944 5.28574 6.83583 4.82047 7.70612 4.6245L8.65866 4.33008ZM5.97422 12.5566V15.9338C5.93729 16.3639 5.99483 16.7968 6.14279 17.2023C6.29075 17.6078 6.52556 17.9761 6.83078 18.2813C7.136 18.5865 7.50425 18.8213 7.90974 18.9693C8.31524 19.1172 8.74817 19.1748 9.17823 19.1378C11.4297 19.2244 13.6812 19.2244 15.9326 19.1378C17.9243 19.1378 19.0501 17.9255 19.1367 15.9338C19.2233 13.6823 19.2233 11.4309 19.1367 9.1794C19.1591 8.75274 19.0916 8.32612 18.9385 7.92722C18.7854 7.52833 18.5502 7.16608 18.2481 6.86396C17.946 6.56184 17.5837 6.32662 17.1848 6.17354C16.7859 6.02046 16.3593 5.95295 15.9326 5.97538C13.6812 5.88879 11.4297 5.88879 9.17823 5.97538C8.74817 5.93846 8.31524 5.996 7.90974 6.14396C7.50425 6.29192 7.136 6.52673 6.83078 6.83195C6.52556 7.13717 6.29075 7.50542 6.14279 7.91091C5.99483 8.3164 5.93729 8.74934 5.97422 9.1794V12.5566Z" fill="white"/>
<path d="M8.34766 12.5908C8.34994 11.4662 8.79772 10.3882 9.59298 9.59298C10.3882 8.79772 11.4662 8.34994 12.5908 8.34766C13.7092 8.36981 14.7757 8.82397 15.5667 9.61496C16.3577 10.406 16.8118 11.4724 16.834 12.5908C16.8317 13.7155 16.3839 14.7934 15.5887 15.5887C14.7934 16.3839 13.7155 16.8317 12.5908 16.834C11.4724 16.8118 10.406 16.3577 9.61496 15.5667C8.82397 14.7757 8.36981 13.7092 8.34766 12.5908ZM12.5908 9.90637C12.0649 9.89781 11.5483 10.0465 11.1074 10.3334C10.6665 10.6203 10.3213 11.0323 10.1161 11.5166C9.91081 12.001 9.85487 12.5356 9.95539 13.0519C10.0559 13.5682 10.3083 14.0428 10.6803 14.4147C11.0522 14.7867 11.5268 15.0391 12.0431 15.1396C12.5595 15.2402 13.0941 15.1842 13.5784 14.979C14.0627 14.7737 14.4747 14.4285 14.7616 13.9876C15.0485 13.5467 15.1972 13.0302 15.1887 12.5042C15.1887 11.8152 14.915 11.1545 14.4278 10.6673C13.9406 10.1801 13.2798 9.90637 12.5908 9.90637Z" fill="white"/>
<path d="M15.8815 8.17453C15.8766 8.03676 15.9002 7.89947 15.9507 7.77121C16.0012 7.64295 16.0776 7.52645 16.1751 7.42898C16.2725 7.3315 16.389 7.25513 16.5173 7.20463C16.6456 7.15412 16.7829 7.13055 16.9206 7.13538C17.1902 7.15362 17.4441 7.26896 17.6351 7.46002C17.8262 7.65109 17.9415 7.90493 17.9598 8.17453C17.9598 8.45012 17.8503 8.71443 17.6554 8.90931C17.4605 9.10419 17.1962 9.21367 16.9206 9.21367C16.645 9.21367 16.3807 9.10419 16.1858 8.90931C15.991 8.71443 15.8815 8.45012 15.8815 8.17453Z" fill="white"/>
</g>
<defs>
<linearGradient id="paint0_linear_5215_3071" x1="-1.59335" y1="26.3855" x2="27.849" y2="-2.62383" gradientUnits="userSpaceOnUse">
<stop stop-color="#FED576"/>
<stop offset="0.26" stop-color="#F47133"/>
<stop offset="0.61" stop-color="#BC3081"/>
<stop offset="1" stop-color="#4C63D2"/>
</linearGradient>
<clipPath id="clip0_5215_3071">
<rect width="25" height="25" fill="white"/>
</clipPath>
</defs>
</svg>
