<svg width="64" height="56" viewBox="0 0 64 56" fill="none" xmlns="http://www.w3.org/2000/svg">
<path d="M56.3108 7.67764C54.9062 6.2724 53.2386 5.15766 51.403 4.39712C49.5675 3.63657 47.6002 3.24512 45.6133 3.24512C43.6265 3.24512 41.6591 3.63657 39.8236 4.39712C37.9881 5.15766 36.3204 6.2724 34.9158 7.67764L32.0008 10.5926L29.0858 7.67764C26.2487 4.84048 22.4007 3.24659 18.3883 3.24659C14.376 3.24659 10.528 4.84048 7.69082 7.67764C4.85366 10.5148 3.25977 14.3628 3.25977 18.3751C3.25977 22.3875 4.85366 26.2355 7.69082 29.0726L10.6058 31.9876L32.0008 53.3826L53.3958 31.9876L56.3108 29.0726C57.7161 27.6681 58.8308 26.0004 59.5913 24.1649C60.3519 22.3293 60.7433 20.362 60.7433 18.3751C60.7433 16.3883 60.3519 14.4209 59.5913 12.5854C58.8308 10.7499 57.7161 9.08222 56.3108 7.67764V7.67764Z" stroke="#3C3C3C" stroke-width="5" stroke-linecap="round" stroke-linejoin="round"/>
</svg>
