<svg width="124" height="111" viewBox="0 0 124 111" fill="none" xmlns="http://www.w3.org/2000/svg">
<g clip-path="url(#clip0_5932_3006)">
<path d="M122.913 59.7436C122.868 59.7437 122.825 59.7301 122.788 59.7048L62.6247 17.9906C62.4416 17.8643 62.2241 17.7967 62.0013 17.7971C61.7785 17.7975 61.5612 17.8658 61.3785 17.9927L1.6482 59.7044C1.60095 59.7374 1.54248 59.7504 1.48564 59.7404C1.4288 59.7305 1.37825 59.6985 1.34512 59.6515C1.31198 59.6044 1.29896 59.5462 1.30894 59.4896C1.31892 59.433 1.35106 59.3827 1.39831 59.3497L61.1287 17.638C61.3844 17.4603 61.6887 17.3648 62.0006 17.3643C62.3125 17.3637 62.617 17.4583 62.8734 17.6352L123.037 59.3493C123.075 59.3756 123.104 59.4134 123.119 59.4571C123.134 59.5007 123.134 59.548 123.12 59.592C123.106 59.636 123.079 59.6744 123.041 59.7017C123.004 59.729 122.959 59.7437 122.913 59.7436L122.913 59.7436Z" fill="#3F3D56"/>
<path d="M5.06152 61.2213L62.0606 19.165L119.492 64.2138L64.9975 96.3761L35.4115 89.6621L5.06152 61.2213Z" fill="#E6E6E6"/>
<path d="M19.8507 110.61H9.74792C9.57502 110.61 9.40376 110.576 9.24396 110.511C9.08415 110.445 8.93893 110.348 8.81658 110.227C8.69424 110.105 8.59719 109.961 8.53097 109.802C8.46475 109.643 8.43066 109.472 8.43066 109.3C8.43066 109.128 8.46475 108.957 8.53097 108.798C8.59719 108.639 8.69424 108.495 8.81658 108.373C8.93893 108.252 9.08415 108.155 9.24396 108.089C9.40376 108.024 9.57502 107.99 9.74792 107.99H19.8507C20.0236 107.99 20.1949 108.024 20.3547 108.089C20.5145 108.155 20.6597 108.252 20.7821 108.373C20.9044 108.495 21.0015 108.639 21.0677 108.798C21.1339 108.957 21.168 109.128 21.168 109.3C21.168 109.472 21.1339 109.643 21.0677 109.802C21.0015 109.961 20.9044 110.105 20.7821 110.227C20.6597 110.348 20.5145 110.445 20.3547 110.511C20.1949 110.576 20.0236 110.61 19.8507 110.61Z" fill="#C5AFDA"/>
<path d="M62.8622 84.6452C62.6482 84.6454 62.4362 84.6041 62.238 84.5235L27.085 70.002V24.5473C27.0854 24.1454 27.246 23.76 27.5315 23.4758C27.817 23.1916 28.204 23.0317 28.6078 23.0312H96.0464C96.4501 23.0317 96.8372 23.1916 97.1226 23.4758C97.4081 23.76 97.5687 24.1454 97.5692 24.5473V70.0337L97.5031 70.0618L63.5053 84.5164C63.3017 84.6015 63.083 84.6453 62.8622 84.6452Z" fill="white"/>
<path d="M62.8606 84.7542C62.6324 84.7545 62.4063 84.7105 62.195 84.6246L26.9746 70.0752V24.5482C26.9751 24.1175 27.1472 23.7046 27.453 23.4001C27.7589 23.0956 28.1736 22.9243 28.6062 22.9238H96.0448C96.4773 22.9243 96.8921 23.0956 97.1979 23.4001C97.5038 23.7046 97.6759 24.1175 97.6764 24.5482V70.1061L63.5464 84.6168C63.3293 84.7077 63.0961 84.7544 62.8606 84.7542ZM27.4097 69.7859L62.361 84.2241C62.687 84.3558 63.0521 84.3536 63.3764 84.2181L97.2413 69.8201V24.5482C97.2409 24.2324 97.1147 23.9296 96.8904 23.7063C96.6661 23.483 96.362 23.3574 96.0448 23.357H28.6062C28.289 23.3574 27.9849 23.483 27.7606 23.7063C27.5363 23.9296 27.4101 24.2324 27.4097 24.5482L27.4097 69.7859Z" fill="#3F3D56"/>
<path d="M122.477 59.3096H122.434L97.4596 69.9264L63.2901 84.4524C63.1566 84.5083 63.0133 84.5375 62.8684 84.5382C62.7236 84.539 62.58 84.5113 62.4459 84.4568L27.193 69.896L1.60545 59.3269L1.56636 59.3096H1.52281C1.11907 59.31 0.731998 59.4699 0.446513 59.7541C0.161029 60.0383 0.000447977 60.4237 0 60.8256V126.666C0.000448552 127.068 0.161029 127.453 0.446513 127.738C0.731998 128.022 1.11907 128.182 1.52281 128.182H122.477C122.881 128.182 123.268 128.022 123.553 127.738C123.839 127.453 124 127.068 124 126.666V60.8256C124 60.4237 123.839 60.0383 123.553 59.7541C123.268 59.4699 122.881 59.31 122.477 59.3096ZM123.565 126.666C123.565 126.953 123.45 127.229 123.246 127.432C123.042 127.635 122.766 127.749 122.477 127.749H1.52281C1.23436 127.749 0.957764 127.635 0.753802 127.432C0.54984 127.229 0.435203 126.953 0.435088 126.666V60.8256C0.435482 60.5456 0.544591 60.2765 0.739601 60.0747C0.934612 59.8729 1.20043 59.754 1.48149 59.7427L27.193 70.3638L62.2785 84.8574C62.6583 85.0113 63.0839 85.0089 63.4619 84.8509L97.4596 70.3963L122.521 59.7427C122.801 59.7548 123.066 59.8741 123.261 60.0758C123.455 60.2775 123.564 60.546 123.565 60.8256V126.666Z" fill="#3F3D56"/>
<path d="M62.5104 71.7571C61.2126 71.7595 59.9493 71.3417 58.9109 70.5667L58.8466 70.5186L45.2912 60.1861C44.6634 59.7072 44.1365 59.1099 43.7406 58.4283C43.3447 57.7467 43.0875 56.9942 42.9837 56.2136C42.8799 55.433 42.9316 54.6398 43.1358 53.8791C43.3399 53.1184 43.6925 52.4052 44.1735 51.7802C44.6545 51.1552 45.2545 50.6307 45.9391 50.2365C46.6238 49.8424 47.3797 49.5863 48.1637 49.483C48.9477 49.3796 49.7445 49.4311 50.5086 49.6343C51.2726 49.8376 51.989 50.1887 52.6168 50.6675L61.3969 57.3702L82.1458 30.4305C82.627 29.8056 83.2271 29.2813 83.9119 28.8873C84.5967 28.4934 85.3527 28.2376 86.1368 28.1346C86.9208 28.0315 87.7176 28.0833 88.4816 28.2868C89.2456 28.4903 89.9618 28.8417 90.5894 29.3208L90.4604 29.4952L90.5927 29.3233C91.8587 30.292 92.687 31.7211 92.896 33.297C93.105 34.8729 92.6775 36.467 91.7073 37.7296L67.3017 69.4172C66.7372 70.1474 66.0114 70.7383 65.1805 71.1441C64.3495 71.5499 63.4359 71.7596 62.5104 71.7571Z" fill="#A585C1"/>
</g>
<defs>
<clipPath id="clip0_5932_3006">
<rect width="124" height="110.819" fill="white"/>
</clipPath>
</defs>
</svg>
