<svg width="12" height="99" viewBox="0 0 12 99" fill="none" xmlns="http://www.w3.org/2000/svg">
<path d="M1.228 87.38L11 87.38L11 89.34L4.644 89.34L11 91.958L11 93.442L4.644 96.074L11 96.074L11 98.034L1.228 98.034L1.228 95.808L8.494 92.7L1.228 89.592L1.228 87.38ZM11.126 81.9982C11.126 82.7449 10.9627 83.4169 10.636 84.0142C10.3 84.6115 9.82867 85.0829 9.222 85.4282C8.61533 85.7642 7.91533 85.9322 7.122 85.9322C6.32867 85.9322 5.62867 85.7595 5.022 85.4142C4.41533 85.0595 3.94867 84.5789 3.622 83.9722C3.286 83.3655 3.118 82.6889 3.118 81.9422C3.118 81.1955 3.286 80.5189 3.622 79.9122C3.94867 79.3055 4.41533 78.8295 5.022 78.4842C5.62867 78.1295 6.32867 77.9522 7.122 77.9522C7.91533 77.9522 8.61533 78.1342 9.222 78.4982C9.82867 78.8529 10.3 79.3382 10.636 79.9542C10.9627 80.5609 11.126 81.2422 11.126 81.9982ZM9.418 81.9982C9.418 81.6435 9.334 81.3122 9.166 81.0042C8.98867 80.6869 8.72733 80.4349 8.382 80.2482C8.03667 80.0615 7.61667 79.9682 7.122 79.9682C6.38467 79.9682 5.82 80.1642 5.428 80.5562C5.02667 80.9389 4.826 81.4102 4.826 81.9702C4.826 82.5302 5.02667 83.0015 5.428 83.3842C5.82 83.7575 6.38467 83.9442 7.122 83.9442C7.85933 83.9442 8.42867 83.7622 8.83 83.3982C9.222 83.0249 9.418 82.5582 9.418 81.9982ZM7.094 77.0185C6.31 77.0185 5.61467 76.8645 5.008 76.5565C4.40133 76.2391 3.93467 75.8098 3.608 75.2685C3.28133 74.7271 3.118 74.1251 3.118 73.4625C3.118 72.9585 3.23 72.4778 3.454 72.0205C3.66867 71.5631 3.958 71.1991 4.322 70.9285L0.639999 70.9285L0.639999 68.9405L11 68.9405L11 70.9285L9.852 70.9285C10.2347 71.1711 10.5427 71.5118 10.776 71.9505C11.0093 72.3891 11.126 72.8978 11.126 73.4765C11.126 74.1298 10.958 74.7271 10.622 75.2685C10.286 75.8098 9.81467 76.2391 9.208 76.5565C8.592 76.8645 7.88733 77.0185 7.094 77.0185ZM7.122 70.9145C6.646 70.9145 6.24 71.0078 5.904 71.1945C5.55867 71.3811 5.29733 71.6331 5.12 71.9505C4.93333 72.2678 4.84 72.6085 4.84 72.9725C4.84 73.3365 4.92867 73.6725 5.106 73.9805C5.28333 74.2885 5.54467 74.5405 5.89 74.7365C6.226 74.9231 6.62733 75.0165 7.094 75.0165C7.56067 75.0165 7.97133 74.9231 8.326 74.7365C8.67133 74.5405 8.93733 74.2885 9.124 73.9805C9.31067 73.6631 9.404 73.3271 9.404 72.9725C9.404 72.6085 9.31533 72.2678 9.138 71.9505C8.95133 71.6331 8.69 71.3811 8.354 71.1945C8.00867 71.0078 7.598 70.9145 7.122 70.9145ZM7.094 67.5302C6.31 67.5302 5.61467 67.3762 5.008 67.0682C4.40133 66.7509 3.93466 66.3262 3.608 65.7942C3.28133 65.2529 3.118 64.6509 3.118 63.9882C3.118 63.4095 3.23466 62.9055 3.468 62.4762C3.70133 62.0375 3.99533 61.6875 4.35 61.4262L3.244 61.4262L3.244 59.4522L11 59.4522L11 61.4262L9.866 61.4262C10.23 61.6782 10.5333 62.0282 10.776 62.4762C11.0093 62.9149 11.126 63.4235 11.126 64.0022C11.126 64.6555 10.958 65.2529 10.622 65.7942C10.286 66.3262 9.81467 66.7509 9.208 67.0682C8.592 67.3762 7.88733 67.5302 7.094 67.5302ZM7.122 61.4262C6.646 61.4262 6.24 61.5195 5.904 61.7062C5.55866 61.8929 5.29733 62.1449 5.12 62.4622C4.93333 62.7795 4.84 63.1202 4.84 63.4842C4.84 63.8482 4.92866 64.1842 5.106 64.4922C5.28333 64.8002 5.54467 65.0522 5.89 65.2482C6.226 65.4349 6.62733 65.5282 7.094 65.5282C7.56066 65.5282 7.97133 65.4349 8.326 65.2482C8.67133 65.0522 8.93733 64.8002 9.124 64.4922C9.31067 64.1749 9.404 63.8389 9.404 63.4842C9.404 63.1202 9.31533 62.7795 9.138 62.4622C8.95133 62.1449 8.69 61.8929 8.354 61.7062C8.00866 61.5195 7.598 61.4262 7.122 61.4262ZM6.1 54.678C5.13866 54.678 4.28 54.4633 3.524 54.034C2.75866 53.5953 2.166 53.0026 1.746 52.256C1.31666 51.5 1.102 50.6553 1.102 49.722C1.102 48.63 1.382 47.6733 1.942 46.852C2.502 46.0306 3.27666 45.4566 4.266 45.13L4.266 47.384C3.79933 47.608 3.44933 47.9253 3.216 48.336C2.98266 48.7373 2.866 49.204 2.866 49.736C2.866 50.3053 3.00133 50.814 3.272 51.262C3.53333 51.7006 3.90666 52.046 4.392 52.298C4.87733 52.5406 5.44666 52.662 6.1 52.662C6.744 52.662 7.31333 52.5406 7.808 52.298C8.29333 52.046 8.67133 51.7006 8.942 51.262C9.20333 50.814 9.334 50.3053 9.334 49.736C9.334 49.204 9.21733 48.7373 8.984 48.336C8.74133 47.9253 8.38666 47.608 7.92 47.384L7.92 45.13C8.91866 45.4566 9.698 46.0306 10.258 46.852C10.8087 47.664 11.084 48.6206 11.084 49.722C11.084 50.6553 10.874 51.5 10.454 52.256C10.0247 53.0026 9.432 53.5953 8.676 54.034C7.92 54.4633 7.06133 54.678 6.1 54.678ZM4.448 41.4959C4.03733 41.2439 3.71533 40.9172 3.482 40.5159C3.24866 40.1052 3.132 39.6385 3.132 39.1159L5.19 39.1159L5.19 39.6339C5.19 40.2499 5.33466 40.7165 5.624 41.0339C5.91333 41.3419 6.41733 41.4959 7.136 41.4959L11 41.4959L11 43.4559L3.244 43.4559L3.244 41.4959L4.448 41.4959ZM6.954 30.5857C7.234 30.5857 7.486 30.6044 7.71 30.6417L7.71 36.3117C8.27 36.2651 8.70866 36.0691 9.026 35.7237C9.34333 35.3784 9.502 34.9537 9.502 34.4497C9.502 33.7217 9.18933 33.2037 8.564 32.8957L8.564 30.7817C9.31066 31.0057 9.92666 31.4351 10.412 32.0697C10.888 32.7044 11.126 33.4837 11.126 34.4077C11.126 35.1544 10.9627 35.8264 10.636 36.4237C10.3 37.0117 9.82866 37.4737 9.222 37.8097C8.61533 38.1364 7.91533 38.2997 7.122 38.2997C6.31933 38.2997 5.61466 38.1364 5.008 37.8097C4.40133 37.4831 3.93466 37.0257 3.608 36.4377C3.28133 35.8497 3.118 35.1731 3.118 34.4077C3.118 33.6704 3.27666 33.0124 3.594 32.4337C3.91133 31.8457 4.364 31.3931 4.952 31.0757C5.53066 30.7491 6.198 30.5857 6.954 30.5857ZM6.394 32.6157C5.89 32.6251 5.48866 32.8071 5.19 33.1617C4.882 33.5164 4.728 33.9504 4.728 34.4637C4.728 34.9491 4.87733 35.3597 5.176 35.6957C5.46533 36.0224 5.87133 36.2231 6.394 36.2977L6.394 32.6157ZM7.094 29.6591C6.31 29.6591 5.61466 29.5051 5.008 29.1971C4.40133 28.8798 3.93466 28.4551 3.608 27.9231C3.28133 27.3818 3.118 26.7798 3.118 26.1171C3.118 25.5384 3.23466 25.0344 3.468 24.6051C3.70133 24.1664 3.99533 23.8164 4.35 23.5551L3.244 23.5551L3.244 21.5811L11 21.5811L11 23.5551L9.866 23.5551C10.23 23.8071 10.5333 24.1571 10.776 24.6051C11.0093 25.0438 11.126 25.5524 11.126 26.1311C11.126 26.7844 10.958 27.3818 10.622 27.9231C10.286 28.4551 9.81466 28.8798 9.208 29.1971C8.592 29.5051 7.88733 29.6591 7.094 29.6591ZM7.122 23.5551C6.646 23.5551 6.24 23.6484 5.904 23.8351C5.55866 24.0218 5.29733 24.2738 5.12 24.5911C4.93333 24.9084 4.84 25.2491 4.84 25.6131C4.84 25.9771 4.92866 26.3131 5.106 26.6211C5.28333 26.9291 5.54466 27.1811 5.89 27.3771C6.226 27.5638 6.62733 27.6571 7.094 27.6571C7.56066 27.6571 7.97133 27.5638 8.326 27.3771C8.67133 27.1811 8.93733 26.9291 9.124 26.6211C9.31066 26.3038 9.404 25.9678 9.404 25.6131C9.404 25.2491 9.31533 24.9084 9.138 24.5911C8.95133 24.2738 8.69 24.0218 8.354 23.8351C8.00866 23.6484 7.598 23.5551 7.122 23.5551ZM4.854 17.3848L8.606 17.3848C8.86733 17.3848 9.05866 17.3241 9.18 17.2028C9.292 17.0721 9.348 16.8575 9.348 16.5588L9.348 15.6488L11 15.6488L11 16.8808C11 18.5328 10.1973 19.3588 8.592 19.3588L4.854 19.3588L4.854 20.2828L3.244 20.2828L3.244 19.3588L1.326 19.3588L1.326 17.3848L3.244 17.3848L3.244 15.6488L4.854 15.6488L4.854 17.3848ZM11.126 10.7951C11.126 11.5417 10.9627 12.2137 10.636 12.8111C10.3 13.4084 9.82866 13.8797 9.222 14.2251C8.61533 14.5611 7.91533 14.7291 7.122 14.7291C6.32866 14.7291 5.62866 14.5564 5.022 14.2111C4.41533 13.8564 3.94866 13.3757 3.622 12.7691C3.286 12.1624 3.118 11.4857 3.118 10.7391C3.118 9.99241 3.286 9.31574 3.622 8.70908C3.94866 8.10241 4.41533 7.62641 5.022 7.28108C5.62866 6.92641 6.32866 6.74908 7.122 6.74908C7.91533 6.74908 8.61533 6.93108 9.222 7.29508C9.82866 7.64974 10.3 8.13508 10.636 8.75108C10.9627 9.35774 11.126 10.0391 11.126 10.7951ZM9.418 10.7951C9.418 10.4404 9.334 10.1091 9.166 9.80108C8.98866 9.48374 8.72733 9.23174 8.382 9.04508C8.03666 8.85841 7.61666 8.76508 7.122 8.76508C6.38466 8.76508 5.82 8.96108 5.428 9.35308C5.02666 9.73574 4.826 10.2071 4.826 10.7671C4.826 11.3271 5.02666 11.7984 5.428 12.1811C5.82 12.5544 6.38466 12.7411 7.122 12.7411C7.85933 12.7411 8.42866 12.5591 8.83 12.1951C9.222 11.8217 9.418 11.3551 9.418 10.7951ZM4.448 3.35134C4.03733 3.09934 3.71533 2.77268 3.482 2.37134C3.24866 1.96068 3.132 1.49401 3.132 0.971343L5.19 0.971343L5.19 1.48934C5.19 2.10534 5.33466 2.57201 5.624 2.88934C5.91333 3.19734 6.41733 3.35134 7.136 3.35134L11 3.35134L11 5.31134L3.244 5.31134L3.244 3.35134L4.448 3.35134Z" fill="#A585C1"/>
</svg>
