<svg width="129" height="122" viewBox="0 0 129 122" fill="none" xmlns="http://www.w3.org/2000/svg">
<path d="M44.9367 104.881C45.5043 104.881 46.0486 104.655 46.4499 104.254C46.8512 103.853 47.0766 103.308 47.0766 102.741V92.0415C47.0766 91.474 46.8512 90.9297 46.4499 90.5284C46.0486 90.1271 45.5043 89.9016 44.9367 89.9016C44.3692 89.9016 43.8249 90.1271 43.4236 90.5284C43.0223 90.9297 42.7969 91.474 42.7969 92.0415V102.741C42.7969 103.308 43.0223 103.853 43.4236 104.254C43.8249 104.655 44.3692 104.881 44.9367 104.881ZM44.9367 83.482C45.5043 83.482 46.0486 83.2566 46.4499 82.8553C46.8512 82.454 47.0766 81.9097 47.0766 81.3421V70.6428C47.0766 70.0753 46.8512 69.531 46.4499 69.1297C46.0486 68.7284 45.5043 68.5029 44.9367 68.5029C44.3692 68.5029 43.8249 68.7284 43.4236 69.1297C43.0223 69.531 42.7969 70.0753 42.7969 70.6428V81.3421C42.7969 81.9097 43.0223 82.454 43.4236 82.8553C43.8249 83.2566 44.3692 83.482 44.9367 83.482Z" fill="#A585C1"/>
<path d="M8.55948 122H119.833C122.103 122 124.28 121.098 125.885 119.493C127.49 117.888 128.392 115.711 128.392 113.441V102.741C128.392 102.174 128.167 101.629 127.765 101.228C127.364 100.827 126.82 100.601 126.252 100.601C122.563 100.601 119.026 99.1359 116.417 96.5274C113.809 93.9189 112.343 90.3811 112.343 86.6922C112.343 83.0032 113.809 79.4654 116.417 76.8569C119.026 74.2484 122.563 72.783 126.252 72.783C126.82 72.783 127.364 72.5576 127.765 72.1562C128.167 71.755 128.392 71.2107 128.392 70.6431V57.8039C128.389 56.4116 127.93 55.0586 127.085 53.9522C127.88 52.7466 128.325 51.3432 128.367 49.8994C128.41 48.4555 128.05 47.0283 127.327 45.7779L122.572 37.5543C122.431 37.3108 122.244 37.0973 122.022 36.926C121.799 36.7548 121.544 36.6291 121.273 36.5561C121.001 36.4832 120.718 36.4645 120.44 36.501C120.161 36.5375 119.892 36.6286 119.649 36.769C116.864 38.3771 113.554 38.813 110.448 37.9809C107.342 37.1488 104.693 35.1168 103.085 32.332C101.477 29.5471 101.041 26.2375 101.873 23.1312C102.705 20.0249 104.737 17.3764 107.522 15.7683C108.011 15.4822 108.367 15.0148 108.514 14.4676C108.661 13.9204 108.586 13.3375 108.305 12.8453L102.598 2.96335C101.805 1.60363 100.507 0.611983 98.987 0.204051C97.4666 -0.203881 95.8467 0.00488725 94.4795 0.784958L6.84758 51.3843H6.41961C4.71702 51.3843 3.08417 52.0607 1.88026 53.2646C0.67635 54.4685 0 56.1013 0 57.8039V70.6431C0 71.2107 0.22545 71.755 0.626753 72.1562C1.02806 72.5576 1.57234 72.783 2.13987 72.783C5.82881 72.783 9.36665 74.2484 11.9751 76.8569C14.5836 79.4654 16.049 83.0032 16.049 86.6922C16.049 90.3811 14.5836 93.9189 11.9751 96.5274C9.36665 99.1359 5.82881 100.601 2.13987 100.601C1.57234 100.601 1.02806 100.827 0.626753 101.228C0.22545 101.629 0 102.174 0 102.741V113.441C0 115.711 0.9018 117.888 2.50701 119.493C4.11223 121.098 6.28936 122 8.55948 122ZM96.6194 4.49121C97.0021 4.27273 97.4556 4.21423 97.8812 4.32844C98.3068 4.44266 98.67 4.72035 98.8919 5.10107L103.6 13.2497C100.443 15.6733 98.2754 19.1614 97.4994 23.0645C96.7234 26.9676 97.3923 31.0196 99.3816 34.4662C101.371 37.9128 104.545 40.5191 108.313 41.7997C112.08 43.0803 116.185 42.9481 119.863 41.4275L123.616 47.9284C123.939 48.4892 124.101 49.1282 124.083 49.7751C124.066 50.4219 123.87 51.0514 123.518 51.594C123.013 51.4612 122.494 51.3908 121.973 51.3843H15.4071L96.6194 4.49121ZM4.27974 104.755C8.70235 104.231 12.7791 102.103 15.7372 98.7736C18.6954 95.4444 20.3293 91.1457 20.3293 86.6922C20.3293 82.2386 18.6954 77.9399 15.7372 74.6107C12.7791 71.2815 8.70235 69.1533 4.27974 68.6295V57.8039C4.27974 57.2364 4.50519 56.6921 4.90649 56.2908C5.3078 55.8895 5.85208 55.6641 6.41961 55.6641H42.7974V59.9438C42.7974 60.5113 43.0228 61.0556 43.4241 61.4569C43.8254 61.8582 44.3697 62.0837 44.9373 62.0837C45.5048 62.0837 46.0491 61.8582 46.4504 61.4569C46.8517 61.0556 47.0771 60.5113 47.0771 59.9438V55.6641H121.973C122.54 55.6641 123.084 55.8895 123.486 56.2908C123.887 56.6921 124.112 57.2364 124.112 57.8039V68.6295C119.69 69.1533 115.613 71.2815 112.655 74.6107C109.697 77.9399 108.063 82.2386 108.063 86.6922C108.063 91.1457 109.697 95.4444 112.655 98.7736C115.613 102.103 119.69 104.231 124.112 104.755V113.441C124.112 114.576 123.662 115.664 122.859 116.467C122.056 117.269 120.968 117.72 119.833 117.72H47.0771V113.441C47.0771 112.873 46.8517 112.329 46.4504 111.927C46.0491 111.526 45.5048 111.301 44.9373 111.301C44.3697 111.301 43.8254 111.526 43.4241 111.927C43.0228 112.329 42.7974 112.873 42.7974 113.441V117.72H8.55948C7.42442 117.72 6.33585 117.269 5.53325 116.467C4.73064 115.664 4.27974 114.576 4.27974 113.441V104.755Z" fill="#A585C1"/>
<path d="M68.4755 83.4822C70.1684 83.4822 71.8233 82.9802 73.2309 82.0397C74.6385 81.0992 75.7356 79.7624 76.3834 78.1983C77.0313 76.6343 77.2008 74.9133 76.8705 73.2529C76.5402 71.5925 75.725 70.0674 74.528 68.8703C73.3309 67.6732 71.8057 66.858 70.1454 66.5278C68.485 66.1975 66.764 66.367 65.1999 67.0148C63.6359 67.6627 62.2991 68.7598 61.3585 70.1674C60.418 71.575 59.916 73.2299 59.916 74.9228C59.916 77.1929 60.8178 79.37 62.423 80.9752C64.0282 82.5804 66.2054 83.4822 68.4755 83.4822ZM68.4755 70.643C69.3219 70.643 70.1494 70.894 70.8532 71.3643C71.557 71.8346 72.1055 72.503 72.4295 73.285C72.7534 74.067 72.8381 74.9275 72.673 75.7577C72.5079 76.5879 72.1003 77.3505 71.5017 77.949C70.9032 78.5475 70.1406 78.9551 69.3104 79.1203C68.4802 79.2854 67.6197 79.2007 66.8377 78.8767C66.0557 78.5528 65.3873 78.0043 64.917 77.3005C64.4468 76.5967 64.1958 75.7692 64.1958 74.9228C64.1958 73.7877 64.6467 72.6991 65.4493 71.8965C66.2519 71.0939 67.3404 70.643 68.4755 70.643ZM94.1539 92.0417C92.461 92.0417 90.8061 92.5437 89.3985 93.4843C87.9909 94.4248 86.8938 95.7616 86.246 97.3256C85.5982 98.8897 85.4286 100.611 85.7589 102.271C86.0892 103.931 86.9044 105.457 88.1015 106.654C89.2985 107.851 90.8237 108.666 92.4841 108.996C94.1444 109.326 95.8655 109.157 97.4295 108.509C98.9935 107.861 100.33 106.764 101.271 105.357C102.211 103.949 102.713 102.294 102.713 100.601C102.713 98.3311 101.812 96.1539 100.206 94.5487C98.6012 92.9435 96.424 92.0417 94.1539 92.0417ZM94.1539 104.881C93.3075 104.881 92.48 104.63 91.7762 104.16C91.0724 103.689 90.5239 103.021 90.2 102.239C89.876 101.457 89.7913 100.596 89.9564 99.7663C90.1216 98.9361 90.5292 98.1735 91.1277 97.575C91.7262 96.9764 92.4888 96.5688 93.319 96.4037C94.1492 96.2386 95.0097 96.3233 95.7917 96.6472C96.5737 96.9712 97.2421 97.5197 97.7124 98.2235C98.1827 98.9273 98.4337 99.7547 98.4337 100.601C98.4337 101.736 97.9828 102.825 97.1802 103.627C96.3776 104.43 95.289 104.881 94.1539 104.881ZM61.8034 100.601C61.8018 101.92 62.1922 103.21 62.9253 104.307C63.6583 105.404 64.7008 106.258 65.9203 106.761C67.1398 107.265 68.4814 107.394 69.7745 107.133C71.0677 106.872 72.2542 106.233 73.1832 105.296L98.6926 79.4636C99.8833 78.2525 100.551 76.6222 100.551 74.9238C100.551 73.2255 99.8833 71.5951 98.6926 70.3841C97.4667 69.2263 95.8444 68.5812 94.1582 68.5812C92.472 68.5812 90.8497 69.2263 89.6238 70.3841L63.7806 95.8935C63.1558 96.5082 62.6593 97.2409 62.3199 98.0491C61.9805 98.8572 61.8049 99.7247 61.8034 100.601ZM66.7871 98.9321L92.6432 73.4077C92.8388 73.1939 93.0759 73.022 93.34 72.9025C93.604 72.7831 93.8896 72.7185 94.1794 72.7127C94.4692 72.707 94.7571 72.7601 95.0257 72.869C95.2943 72.9779 95.538 73.1402 95.742 73.346C95.946 73.5519 96.1061 73.7971 96.2125 74.0667C96.3189 74.3363 96.3694 74.6247 96.361 74.9145C96.3525 75.2042 96.2853 75.4892 96.1634 75.7521C96.0415 76.0151 95.8675 76.2505 95.6518 76.4442L70.1446 102.287C69.9243 102.508 69.6627 102.683 69.3748 102.802C69.0869 102.921 68.7783 102.983 68.4666 102.983C68.155 102.983 67.8463 102.922 67.5583 102.803C67.2703 102.684 67.0087 102.509 66.7882 102.288C66.5677 102.068 66.3928 101.807 66.2735 101.519C66.1541 101.231 66.0926 100.922 66.0925 100.611C66.0924 100.299 66.1537 99.9902 66.2729 99.7022C66.3921 99.4142 66.5668 99.1526 66.7871 98.9321Z" fill="#A585C1"/>
</svg>
