<svg width="329" height="114" viewBox="0 0 329 114" fill="none" xmlns="http://www.w3.org/2000/svg">
<rect x="1" y="1" width="327" height="112" stroke="#3C3C3C" stroke-width="2"/>
<path d="M137.553 15.6958C137.553 16.1625 137.441 16.5965 137.217 16.9978C136.993 17.3991 136.652 17.7258 136.195 17.9778C135.738 18.2298 135.173 18.3558 134.501 18.3558C133.848 18.3558 133.264 18.2391 132.751 18.0058C132.247 17.7631 131.841 17.4365 131.533 17.0258C131.234 16.6058 131.062 16.1298 131.015 15.5978H132.373C132.401 15.8778 132.494 16.1531 132.653 16.4238C132.821 16.6851 133.054 16.9045 133.353 17.0818C133.661 17.2498 134.03 17.3338 134.459 17.3338C135.019 17.3338 135.448 17.1845 135.747 16.8858C136.046 16.5871 136.195 16.2045 136.195 15.7378C136.195 15.3365 136.088 15.0098 135.873 14.7578C135.668 14.5058 135.411 14.3098 135.103 14.1698C134.795 14.0205 134.375 13.8618 133.843 13.6938C133.218 13.4885 132.714 13.2971 132.331 13.1198C131.958 12.9331 131.636 12.6578 131.365 12.2938C131.104 11.9298 130.973 11.4491 130.973 10.8518C130.973 10.3385 131.094 9.88581 131.337 9.49381C131.589 9.10181 131.944 8.79848 132.401 8.58381C132.868 8.36915 133.414 8.26181 134.039 8.26181C135.01 8.26181 135.78 8.49981 136.349 8.97581C136.918 9.44248 137.25 10.0398 137.343 10.7678H135.971C135.896 10.3758 135.696 10.0305 135.369 9.73181C135.042 9.43315 134.599 9.28381 134.039 9.28381C133.526 9.28381 133.115 9.41915 132.807 9.68981C132.499 9.95115 132.345 10.3245 132.345 10.8098C132.345 11.1925 132.443 11.5051 132.639 11.7478C132.844 11.9811 133.096 12.1678 133.395 12.3078C133.694 12.4385 134.104 12.5878 134.627 12.7558C135.262 12.9611 135.77 13.1571 136.153 13.3438C136.545 13.5305 136.876 13.8151 137.147 14.1978C137.418 14.5711 137.553 15.0705 137.553 15.6958ZM139.042 8.31781C139.042 8.08448 139.121 7.89781 139.28 7.75781C139.439 7.60848 139.649 7.53381 139.91 7.53381C140.171 7.53381 140.381 7.60848 140.54 7.75781C140.699 7.89781 140.778 8.08448 140.778 8.31781C140.778 8.55115 140.699 8.74248 140.54 8.89181C140.381 9.03181 140.171 9.10181 139.91 9.10181C139.649 9.10181 139.439 9.03181 139.28 8.89181C139.121 8.74248 139.042 8.55115 139.042 8.31781ZM140.54 10.5718V18.2578H139.266V10.5718H140.54ZM143.33 17.1798H147.446V18.2578H141.93V17.2358L145.85 11.6498H142.042V10.5718H147.306V11.6078L143.33 17.1798ZM155.906 13.9878C155.906 14.2585 155.888 14.4918 155.85 14.6878H149.704C149.732 15.5651 149.98 16.2231 150.446 16.6618C150.922 17.1005 151.501 17.3198 152.182 17.3198C152.798 17.3198 153.312 17.1658 153.722 16.8578C154.142 16.5405 154.399 16.1205 154.492 15.5978H155.85C155.757 16.1298 155.547 16.6058 155.22 17.0258C154.903 17.4458 154.488 17.7725 153.974 18.0058C153.461 18.2391 152.882 18.3558 152.238 18.3558C151.501 18.3558 150.848 18.1971 150.278 17.8798C149.709 17.5625 149.261 17.1098 148.934 16.5218C148.617 15.9245 148.458 15.2245 148.458 14.4218C148.458 13.6191 148.617 12.9191 148.934 12.3218C149.261 11.7245 149.709 11.2671 150.278 10.9498C150.848 10.6325 151.501 10.4738 152.238 10.4738C152.985 10.4738 153.634 10.6325 154.184 10.9498C154.744 11.2671 155.169 11.6918 155.458 12.2238C155.757 12.7558 155.906 13.3438 155.906 13.9878ZM154.618 14.0718C154.646 13.5025 154.553 13.0265 154.338 12.6438C154.124 12.2611 153.83 11.9765 153.456 11.7898C153.083 11.6031 152.677 11.5098 152.238 11.5098C151.538 11.5098 150.95 11.7291 150.474 12.1678C149.998 12.5971 149.742 13.2318 149.704 14.0718H154.618ZM165.4 8.28981C166.604 8.28981 167.598 8.58848 168.382 9.18581C169.166 9.77381 169.707 10.5811 170.006 11.6078H168.662C168.41 10.9545 168.004 10.4365 167.444 10.0538C166.884 9.66181 166.198 9.46581 165.386 9.46581C164.742 9.46581 164.163 9.62448 163.65 9.94181C163.146 10.2498 162.744 10.6978 162.446 11.2858C162.156 11.8645 162.012 12.5458 162.012 13.3298C162.012 14.1045 162.156 14.7811 162.446 15.3598C162.744 15.9385 163.146 16.3865 163.65 16.7038C164.163 17.0118 164.742 17.1658 165.386 17.1658C166.198 17.1658 166.884 16.9745 167.444 16.5918C168.004 16.1998 168.41 15.6771 168.662 15.0238H170.006C169.707 16.0505 169.166 16.8625 168.382 17.4598C167.598 18.0478 166.604 18.3418 165.4 18.3418C164.476 18.3418 163.659 18.1318 162.95 17.7118C162.24 17.2825 161.685 16.6898 161.284 15.9338C160.892 15.1685 160.696 14.3005 160.696 13.3298C160.696 12.3498 160.892 11.4771 161.284 10.7118C161.685 9.94648 162.24 9.35381 162.95 8.93381C163.659 8.50448 164.476 8.28981 165.4 8.28981ZM175.756 10.4458C176.652 10.4458 177.375 10.7351 177.926 11.3138C178.476 11.8831 178.752 12.7091 178.752 13.7918V18.2578H177.478V13.9038C177.478 13.1385 177.282 12.5505 176.89 12.1398C176.498 11.7291 175.966 11.5238 175.294 11.5238C174.594 11.5238 174.034 11.7525 173.614 12.2098C173.194 12.6578 172.984 13.3158 172.984 14.1838V18.2578H171.71V7.89781H172.984V12.3918C173.18 11.7665 173.525 11.2858 174.02 10.9498C174.524 10.6138 175.102 10.4458 175.756 10.4458ZM183.856 10.4738C184.602 10.4738 185.232 10.6605 185.746 11.0338C186.268 11.4071 186.632 11.9065 186.838 12.5318V10.5718H188.112V18.2578H186.838V16.2978C186.632 16.9231 186.268 17.4225 185.746 17.7958C185.232 18.1691 184.602 18.3558 183.856 18.3558C183.174 18.3558 182.568 18.1971 182.036 17.8798C181.504 17.5625 181.084 17.1098 180.776 16.5218C180.477 15.9245 180.328 15.2245 180.328 14.4218C180.328 13.6191 180.477 12.9191 180.776 12.3218C181.084 11.7245 181.504 11.2671 182.036 10.9498C182.568 10.6325 183.174 10.4738 183.856 10.4738ZM184.22 11.6078C183.436 11.6078 182.806 11.8598 182.33 12.3638C181.863 12.8585 181.63 13.5445 181.63 14.4218C181.63 15.2991 181.863 15.9898 182.33 16.4938C182.806 16.9885 183.436 17.2358 184.22 17.2358C184.724 17.2358 185.172 17.1191 185.564 16.8858C185.965 16.6525 186.278 16.3258 186.502 15.9058C186.726 15.4765 186.838 14.9818 186.838 14.4218C186.838 13.8618 186.726 13.3671 186.502 12.9378C186.278 12.5085 185.965 12.1818 185.564 11.9578C185.172 11.7245 184.724 11.6078 184.22 11.6078ZM191.413 12.1258C191.665 11.5938 192.034 11.1831 192.519 10.8938C193.005 10.5951 193.583 10.4458 194.255 10.4458V11.8318H193.863C193.145 11.8318 192.557 12.0185 192.099 12.3918C191.642 12.7558 191.413 13.3625 191.413 14.2118V18.2578H190.139V10.5718H191.413V12.1258ZM199.18 17.1378V18.2578H198.228C197.444 18.2578 196.856 18.0711 196.464 17.6978C196.082 17.3245 195.89 16.6991 195.89 15.8218V11.6778H194.742V10.5718H195.89V8.65381H197.178V10.5718H199.166V11.6778H197.178V15.8498C197.178 16.3445 197.267 16.6851 197.444 16.8718C197.631 17.0491 197.948 17.1378 198.396 17.1378H199.18Z" fill="#3C3C3C"/>
<rect x="0.5" y="25.5" width="50.1169" height="21.7186" stroke="#3C3C3C"/>
<path d="M1.72331 35.164C1.72331 33.628 2.01131 32.256 2.58731 31.048C3.17131 29.84 3.93931 28.868 4.89131 28.132H5.95931V28.24C3.83931 29.96 2.77931 32.268 2.77931 35.164C2.77931 38.068 3.83931 40.38 5.95931 42.1V42.208H4.89131C3.93931 41.464 3.17131 40.492 2.58731 39.292C2.01131 38.092 1.72331 36.716 1.72331 35.164ZM6.47306 31.48C6.47306 31.28 6.54106 31.12 6.67706 31C6.81306 30.872 6.99306 30.808 7.21706 30.808C7.44106 30.808 7.62106 30.872 7.75706 31C7.89306 31.12 7.96106 31.28 7.96106 31.48C7.96106 31.68 7.89306 31.844 7.75706 31.972C7.62106 32.092 7.44106 32.152 7.21706 32.152C6.99306 32.152 6.81306 32.092 6.67706 31.972C6.54106 31.844 6.47306 31.68 6.47306 31.48ZM7.75706 33.412V40H6.66506V33.412H7.75706ZM12.9807 33.304C13.7487 33.304 14.3687 33.552 14.8407 34.048C15.3127 34.536 15.5487 35.244 15.5487 36.172V40H14.4567V36.268C14.4567 35.612 14.2887 35.108 13.9527 34.756C13.6167 34.404 13.1607 34.228 12.5847 34.228C11.9847 34.228 11.5047 34.424 11.1447 34.816C10.7847 35.2 10.6047 35.764 10.6047 36.508V40H9.51272V33.412H10.6047V34.972C10.7727 34.436 11.0687 34.024 11.4927 33.736C11.9247 33.448 12.4207 33.304 12.9807 33.304ZM20.1397 33.328C20.9797 33.328 21.6757 33.552 22.2277 34C22.7797 34.448 23.1197 35.048 23.2477 35.8H22.0957C22.0157 35.328 21.7957 34.96 21.4357 34.696C21.0837 34.424 20.6437 34.288 20.1157 34.288C19.7317 34.288 19.3797 34.376 19.0597 34.552C18.7477 34.728 18.4957 35 18.3037 35.368C18.1117 35.728 18.0157 36.176 18.0157 36.712C18.0157 37.248 18.1117 37.7 18.3037 38.068C18.4957 38.428 18.7477 38.696 19.0597 38.872C19.3797 39.048 19.7317 39.136 20.1157 39.136C20.6437 39.136 21.0837 39 21.4357 38.728C21.7957 38.456 22.0157 38.084 22.0957 37.612H23.2477C23.1197 38.372 22.7797 38.976 22.2277 39.424C21.6757 39.864 20.9797 40.084 20.1397 40.084C19.5077 40.084 18.9477 39.948 18.4597 39.676C17.9717 39.404 17.5877 39.016 17.3077 38.512C17.0357 38 16.8997 37.4 16.8997 36.712C16.8997 36.024 17.0357 35.424 17.3077 34.912C17.5877 34.4 17.9717 34.008 18.4597 33.736C18.9477 33.464 19.5077 33.328 20.1397 33.328ZM28.1448 33.304C28.9128 33.304 29.5328 33.552 30.0048 34.048C30.4768 34.536 30.7128 35.244 30.7128 36.172V40H29.6208V36.268C29.6208 35.612 29.4528 35.108 29.1168 34.756C28.7808 34.404 28.3248 34.228 27.7488 34.228C27.1488 34.228 26.6688 34.424 26.3088 34.816C25.9488 35.2 25.7688 35.764 25.7688 36.508V40H24.6768V31.12H25.7688V34.972C25.9368 34.436 26.2328 34.024 26.6568 33.736C27.0888 33.448 27.5848 33.304 28.1448 33.304ZM38.4477 36.34C38.4477 36.572 38.4317 36.772 38.3997 36.94H33.1317C33.1557 37.692 33.3677 38.256 33.7677 38.632C34.1757 39.008 34.6717 39.196 35.2557 39.196C35.7837 39.196 36.2237 39.064 36.5757 38.8C36.9357 38.528 37.1557 38.168 37.2357 37.72H38.3997C38.3197 38.176 38.1397 38.584 37.8597 38.944C37.5877 39.304 37.2317 39.584 36.7917 39.784C36.3517 39.984 35.8557 40.084 35.3037 40.084C34.6717 40.084 34.1117 39.948 33.6237 39.676C33.1357 39.404 32.7517 39.016 32.4717 38.512C32.1997 38 32.0637 37.4 32.0637 36.712C32.0637 36.024 32.1997 35.424 32.4717 34.912C32.7517 34.4 33.1357 34.008 33.6237 33.736C34.1117 33.464 34.6717 33.328 35.3037 33.328C35.9437 33.328 36.4997 33.464 36.9717 33.736C37.4517 34.008 37.8157 34.372 38.0637 34.828C38.3197 35.284 38.4477 35.788 38.4477 36.34ZM37.3437 36.412C37.3677 35.924 37.2877 35.516 37.1037 35.188C36.9197 34.86 36.6677 34.616 36.3477 34.456C36.0277 34.296 35.6797 34.216 35.3037 34.216C34.7037 34.216 34.1997 34.404 33.7917 34.78C33.3837 35.148 33.1637 35.692 33.1317 36.412H37.3437ZM41.94 33.328C42.684 33.328 43.28 33.524 43.728 33.916C44.184 34.3 44.46 34.82 44.556 35.476H43.512C43.464 35.084 43.3 34.764 43.02 34.516C42.748 34.26 42.38 34.132 41.916 34.132C41.524 34.132 41.216 34.228 40.992 34.42C40.776 34.604 40.668 34.856 40.668 35.176C40.668 35.416 40.74 35.612 40.884 35.764C41.036 35.908 41.22 36.02 41.436 36.1C41.66 36.172 41.964 36.252 42.348 36.34C42.836 36.452 43.228 36.568 43.524 36.688C43.828 36.8 44.084 36.984 44.292 37.24C44.508 37.496 44.616 37.84 44.616 38.272C44.616 38.808 44.412 39.244 44.004 39.58C43.604 39.916 43.068 40.084 42.396 40.084C41.612 40.084 40.972 39.896 40.476 39.52C39.98 39.144 39.688 38.62 39.6 37.948H40.656C40.696 38.348 40.868 38.672 41.172 38.92C41.484 39.168 41.892 39.292 42.396 39.292C42.772 39.292 43.064 39.196 43.272 39.004C43.488 38.812 43.596 38.56 43.596 38.248C43.596 37.992 43.52 37.788 43.368 37.636C43.216 37.484 43.028 37.368 42.804 37.288C42.58 37.208 42.272 37.124 41.88 37.036C41.392 36.924 41 36.812 40.704 36.7C40.416 36.588 40.168 36.412 39.96 36.172C39.76 35.924 39.66 35.592 39.66 35.176C39.66 34.624 39.864 34.18 40.272 33.844C40.68 33.5 41.236 33.328 41.94 33.328ZM49.2792 35.164C49.2792 36.708 48.9872 38.084 48.4032 39.292C47.8272 40.492 47.0632 41.464 46.1112 42.208H45.0432V42.1C47.1552 40.372 48.2112 38.06 48.2112 35.164C48.2112 33.748 47.9472 32.46 47.4192 31.3C46.8992 30.132 46.1072 29.112 45.0432 28.24V28.132H46.1112C47.0632 28.868 47.8272 29.84 48.4032 31.048C48.9872 32.256 49.2792 33.628 49.2792 35.164Z" fill="#3C3C3C"/>
<rect x="50.5" y="25.5" width="27.3983" height="21.7186" stroke="#3C3C3C"/>
<path d="M63.6193 40L61.4953 36.652L59.5633 40H58.3033L60.8833 35.692L58.2553 31.54H59.5633L61.6393 34.828L63.5833 31.54H64.8433L62.2513 35.776L64.9153 40H63.6193ZM71.3803 37.804C71.3803 38.204 71.2843 38.576 71.0923 38.92C70.9003 39.264 70.6083 39.544 70.2163 39.76C69.8243 39.976 69.3403 40.084 68.7643 40.084C68.2043 40.084 67.7043 39.984 67.2643 39.784C66.8323 39.576 66.4843 39.296 66.2203 38.944C65.9643 38.584 65.8163 38.176 65.7763 37.72H66.9403C66.9643 37.96 67.0443 38.196 67.1803 38.428C67.3243 38.652 67.5243 38.84 67.7803 38.992C68.0443 39.136 68.3603 39.208 68.7283 39.208C69.2083 39.208 69.5763 39.08 69.8323 38.824C70.0883 38.568 70.2163 38.24 70.2163 37.84C70.2163 37.496 70.1243 37.216 69.9403 37C69.7643 36.784 69.5443 36.616 69.2803 36.496C69.0163 36.368 68.6563 36.232 68.2003 36.088C67.6643 35.912 67.2323 35.748 66.9043 35.596C66.5843 35.436 66.3083 35.2 66.0763 34.888C65.8523 34.576 65.7403 34.164 65.7403 33.652C65.7403 33.212 65.8443 32.824 66.0523 32.488C66.2683 32.152 66.5723 31.892 66.9643 31.708C67.3643 31.524 67.8323 31.432 68.3683 31.432C69.2003 31.432 69.8603 31.636 70.3483 32.044C70.8363 32.444 71.1203 32.956 71.2003 33.58H70.0243C69.9603 33.244 69.7883 32.948 69.5083 32.692C69.2283 32.436 68.8483 32.308 68.3683 32.308C67.9283 32.308 67.5763 32.424 67.3123 32.656C67.0483 32.88 66.9163 33.2 66.9163 33.616C66.9163 33.944 67.0003 34.212 67.1683 34.42C67.3443 34.62 67.5603 34.78 67.8163 34.9C68.0723 35.012 68.4243 35.14 68.8723 35.284C69.4163 35.46 69.8523 35.628 70.1803 35.788C70.5163 35.948 70.8003 36.192 71.0323 36.52C71.2643 36.84 71.3803 37.268 71.3803 37.804Z" fill="#3C3C3C"/>
<rect x="78.5" y="25.5" width="27.3983" height="21.7186" stroke="#3C3C3C"/>
<path d="M95.3178 37.804C95.3178 38.204 95.2218 38.576 95.0298 38.92C94.8378 39.264 94.5458 39.544 94.1538 39.76C93.7618 39.976 93.2778 40.084 92.7018 40.084C92.1418 40.084 91.6418 39.984 91.2018 39.784C90.7698 39.576 90.4218 39.296 90.1578 38.944C89.9018 38.584 89.7538 38.176 89.7138 37.72H90.8778C90.9018 37.96 90.9818 38.196 91.1178 38.428C91.2618 38.652 91.4618 38.84 91.7178 38.992C91.9818 39.136 92.2978 39.208 92.6658 39.208C93.1458 39.208 93.5138 39.08 93.7698 38.824C94.0258 38.568 94.1538 38.24 94.1538 37.84C94.1538 37.496 94.0618 37.216 93.8778 37C93.7018 36.784 93.4818 36.616 93.2178 36.496C92.9538 36.368 92.5938 36.232 92.1378 36.088C91.6018 35.912 91.1698 35.748 90.8418 35.596C90.5218 35.436 90.2458 35.2 90.0138 34.888C89.7898 34.576 89.6778 34.164 89.6778 33.652C89.6778 33.212 89.7818 32.824 89.9898 32.488C90.2058 32.152 90.5098 31.892 90.9018 31.708C91.3018 31.524 91.7698 31.432 92.3058 31.432C93.1378 31.432 93.7978 31.636 94.2858 32.044C94.7738 32.444 95.0578 32.956 95.1378 33.58H93.9618C93.8978 33.244 93.7258 32.948 93.4458 32.692C93.1658 32.436 92.7858 32.308 92.3058 32.308C91.8658 32.308 91.5138 32.424 91.2498 32.656C90.9858 32.88 90.8538 33.2 90.8538 33.616C90.8538 33.944 90.9378 34.212 91.1058 34.42C91.2818 34.62 91.4978 34.78 91.7538 34.9C92.0098 35.012 92.3618 35.14 92.8098 35.284C93.3538 35.46 93.7898 35.628 94.1178 35.788C94.4538 35.948 94.7378 36.192 94.9698 36.52C95.2018 36.84 95.3178 37.268 95.3178 37.804Z" fill="#3C3C3C"/>
<rect x="106.5" y="25.5" width="27.3983" height="21.7186" stroke="#3C3C3C"/>
<path d="M123.739 31.684V40H122.647V33.364L119.995 40H119.023L116.359 33.388V40H115.267V31.684H116.575L119.527 38.668L122.431 31.684H123.739Z" fill="#3C3C3C"/>
<rect x="133.5" y="25.5" width="27.3983" height="21.7186" stroke="#3C3C3C"/>
<path d="M146.366 39.148H149.366V40H145.274V31.54H146.366V39.148Z" fill="#3C3C3C"/>
<rect x="161.5" y="25.5" width="27.3983" height="21.7186" stroke="#3C3C3C"/>
<path d="M174.928 40L172.804 36.652L170.872 40H169.612L172.192 35.692L169.564 31.54H170.872L172.948 34.828L174.892 31.54H176.152L173.56 35.776L176.224 40H174.928ZM178.429 39.148H181.429V40H177.337V31.54H178.429V39.148Z" fill="#3C3C3C"/>
<rect x="189.5" y="25.5" width="27.3983" height="21.7186" stroke="#3C3C3C"/>
<path d="M193.936 39.16C195.296 38.248 196.384 37.344 197.2 36.448C198.016 35.544 198.424 34.704 198.424 33.928C198.424 33.448 198.3 33.064 198.052 32.776C197.812 32.48 197.42 32.332 196.876 32.332C196.316 32.332 195.892 32.512 195.604 32.872C195.316 33.224 195.156 33.712 195.124 34.336H194.044C194.1 33.392 194.392 32.668 194.92 32.164C195.448 31.652 196.128 31.396 196.96 31.396C197.752 31.396 198.38 31.608 198.844 32.032C199.308 32.456 199.54 33.056 199.54 33.832C199.54 34.472 199.332 35.124 198.916 35.788C198.508 36.444 197.992 37.056 197.368 37.624C196.752 38.184 196.116 38.66 195.46 39.052H199.756V39.952H193.936V39.16ZM205.832 40L203.708 36.652L201.776 40H200.516L203.096 35.692L200.468 31.54H201.776L203.852 34.828L205.796 31.54H207.056L204.464 35.776L207.128 40H205.832ZM209.333 39.148H212.333V40H208.241V31.54H209.333V39.148Z" fill="#3C3C3C"/>
<rect x="217.5" y="25.5" width="27.3983" height="21.7186" stroke="#3C3C3C"/>
<path d="M224.891 31.312C225.435 31.312 225.903 31.408 226.295 31.6C226.687 31.792 226.983 32.056 227.183 32.392C227.383 32.728 227.483 33.108 227.483 33.532C227.483 34.06 227.327 34.504 227.015 34.864C226.711 35.224 226.263 35.44 225.671 35.512V35.584C226.287 35.744 226.767 35.992 227.111 36.328C227.463 36.664 227.639 37.128 227.639 37.72C227.639 38.416 227.407 38.984 226.943 39.424C226.479 39.864 225.811 40.084 224.939 40.084C224.067 40.084 223.359 39.86 222.815 39.412C222.279 38.956 221.963 38.292 221.867 37.42H222.947C223.019 37.948 223.219 38.368 223.547 38.68C223.883 38.992 224.335 39.148 224.903 39.148C225.439 39.148 225.851 39.012 226.139 38.74C226.427 38.46 226.571 38.1 226.571 37.66C226.571 37.132 226.363 36.732 225.947 36.46C225.539 36.18 224.955 36.04 224.195 36.04H223.907V35.128H224.195C225.667 35.128 226.403 34.636 226.403 33.652C226.403 33.22 226.267 32.876 225.995 32.62C225.723 32.364 225.347 32.236 224.867 32.236C224.387 32.236 223.983 32.376 223.655 32.656C223.327 32.928 223.135 33.332 223.079 33.868H222.011C222.067 33.068 222.343 32.444 222.839 31.996C223.343 31.54 224.027 31.312 224.891 31.312ZM233.961 40L231.837 36.652L229.905 40H228.645L231.225 35.692L228.597 31.54H229.905L231.981 34.828L233.925 31.54H235.185L232.593 35.776L235.257 40H233.961ZM237.462 39.148H240.462V40H236.37V31.54H237.462V39.148Z" fill="#3C3C3C"/>
<rect x="244.5" y="25.5" width="27.3983" height="21.7186" stroke="#3C3C3C"/>
<path d="M248.487 38.056V37.144L252.831 31.48H254.007V37.108H255.255V38.056H254.007V40H252.903V38.056H248.487ZM252.975 32.812L249.639 37.108H252.975V32.812ZM261.149 40L259.025 36.652L257.093 40H255.833L258.413 35.692L255.785 31.54H257.093L259.169 34.828L261.113 31.54H262.373L259.781 35.776L262.445 40H261.149ZM264.65 39.148H267.65V40H263.558V31.54H264.65V39.148Z" fill="#3C3C3C"/>
<rect x="272.5" y="25.5" width="27.3983" height="21.7186" stroke="#3C3C3C"/>
<path d="M282.523 32.404H278.179V35.236C278.379 34.964 278.667 34.748 279.043 34.588C279.419 34.428 279.831 34.348 280.279 34.348C280.879 34.348 281.375 34.476 281.767 34.732C282.167 34.98 282.459 35.312 282.643 35.728C282.835 36.136 282.931 36.592 282.931 37.096C282.931 37.968 282.687 38.68 282.199 39.232C281.711 39.784 280.995 40.06 280.051 40.06C279.203 40.06 278.511 39.832 277.975 39.376C277.439 38.912 277.139 38.292 277.075 37.516H278.155C278.243 38.012 278.447 38.4 278.767 38.68C279.095 38.952 279.507 39.088 280.003 39.088C280.619 39.088 281.083 38.904 281.395 38.536C281.707 38.168 281.863 37.684 281.863 37.084C281.863 36.5 281.703 36.044 281.383 35.716C281.063 35.388 280.611 35.224 280.027 35.224C279.611 35.224 279.247 35.316 278.935 35.5C278.623 35.676 278.387 35.916 278.227 36.22H277.171V31.432H282.523V32.404ZM289.125 40L287.001 36.652L285.069 40H283.809L286.389 35.692L283.761 31.54H285.069L287.145 34.828L289.089 31.54H290.349L287.757 35.776L290.421 40H289.125ZM292.626 39.148H295.626V40H291.534V31.54H292.626V39.148Z" fill="#3C3C3C"/>
<rect x="300.5" y="25.5" width="27.3983" height="21.7186" stroke="#3C3C3C"/>
<path d="M309.569 33.796C309.505 33.292 309.333 32.904 309.053 32.632C308.781 32.352 308.401 32.212 307.913 32.212C307.233 32.212 306.717 32.476 306.365 33.004C306.021 33.532 305.849 34.368 305.849 35.512L305.861 35.956C305.981 35.476 306.257 35.096 306.689 34.816C307.121 34.528 307.629 34.384 308.213 34.384C309.053 34.384 309.709 34.636 310.181 35.14C310.661 35.644 310.901 36.348 310.901 37.252C310.901 37.78 310.797 38.26 310.589 38.692C310.381 39.116 310.061 39.456 309.629 39.712C309.205 39.96 308.677 40.084 308.045 40.084C306.837 40.084 306.005 39.704 305.549 38.944C305.101 38.184 304.877 37.152 304.877 35.848C304.877 34.344 305.117 33.216 305.597 32.464C306.085 31.704 306.877 31.324 307.973 31.324C308.781 31.324 309.401 31.552 309.833 32.008C310.273 32.464 310.533 33.06 310.613 33.796H309.569ZM305.981 37.072C305.981 37.656 306.149 38.148 306.485 38.548C306.829 38.94 307.341 39.136 308.021 39.136C308.581 39.136 309.029 38.972 309.365 38.644C309.701 38.308 309.869 37.84 309.869 37.24C309.869 36.592 309.701 36.1 309.365 35.764C309.029 35.42 308.565 35.248 307.973 35.248C307.637 35.248 307.317 35.316 307.013 35.452C306.709 35.588 306.461 35.796 306.269 36.076C306.077 36.348 305.981 36.68 305.981 37.072ZM317.155 40L315.031 36.652L313.099 40H311.839L314.419 35.692L311.791 31.54H313.099L315.175 34.828L317.119 31.54H318.379L315.787 35.776L318.451 40H317.155ZM320.656 39.148H323.656V40H319.564V31.54H320.656V39.148Z" fill="#3C3C3C"/>
<rect x="0.5" y="47.5" width="50.1169" height="21.7186" stroke="#3C3C3C"/>
<path d="M7.24228 57.62C7.76228 57.732 8.18228 57.98 8.50228 58.364C8.83028 58.748 8.99428 59.2 8.99428 59.72C8.99428 60.408 8.75828 60.96 8.28628 61.376C7.82228 61.792 7.14628 62 6.25828 62H3.11428V53.54H6.21028C7.05828 53.54 7.70228 53.728 8.14228 54.104C8.58228 54.48 8.80228 54.996 8.80228 55.652C8.80228 56.196 8.65428 56.636 8.35828 56.972C8.07028 57.308 7.69828 57.524 7.24228 57.62ZM4.20628 57.248H6.03028C6.56628 57.248 6.97428 57.124 7.25428 56.876C7.54228 56.628 7.68628 56.28 7.68628 55.832C7.68628 55.4 7.54628 55.06 7.26628 54.812C6.98628 54.564 6.55828 54.44 5.98228 54.44H4.20628V57.248ZM6.05428 61.088C6.63028 61.088 7.07428 60.956 7.38628 60.692C7.70628 60.428 7.86628 60.056 7.86628 59.576C7.86628 59.104 7.70228 58.736 7.37428 58.472C7.05428 58.2 6.60628 58.064 6.03028 58.064H4.20628V61.088H6.05428ZM16.2125 55.412V62H15.1205V60.452C14.9525 60.988 14.6525 61.4 14.2205 61.688C13.7965 61.968 13.3005 62.108 12.7325 62.108C11.9725 62.108 11.3565 61.864 10.8845 61.376C10.4125 60.88 10.1765 60.172 10.1765 59.252V55.412H11.2685V59.144C11.2685 59.8 11.4365 60.308 11.7725 60.668C12.1085 61.02 12.5645 61.196 13.1405 61.196C13.7405 61.196 14.2205 61.004 14.5805 60.62C14.9405 60.228 15.1205 59.66 15.1205 58.916V55.412H16.2125ZM20.0259 55.328C20.7699 55.328 21.3659 55.524 21.8139 55.916C22.2699 56.3 22.5459 56.82 22.6419 57.476H21.5979C21.5499 57.084 21.3859 56.764 21.1059 56.516C20.8339 56.26 20.4659 56.132 20.0019 56.132C19.6099 56.132 19.3019 56.228 19.0779 56.42C18.8619 56.604 18.7539 56.856 18.7539 57.176C18.7539 57.416 18.8259 57.612 18.9699 57.764C19.1219 57.908 19.3059 58.02 19.5219 58.1C19.7459 58.172 20.0499 58.252 20.4339 58.34C20.9219 58.452 21.3139 58.568 21.6099 58.688C21.9139 58.8 22.1699 58.984 22.3779 59.24C22.5939 59.496 22.7019 59.84 22.7019 60.272C22.7019 60.808 22.4979 61.244 22.0899 61.58C21.6899 61.916 21.1539 62.084 20.4819 62.084C19.6979 62.084 19.0579 61.896 18.5619 61.52C18.0659 61.144 17.7739 60.62 17.6859 59.948H18.7419C18.7819 60.348 18.9539 60.672 19.2579 60.92C19.5699 61.168 19.9779 61.292 20.4819 61.292C20.8579 61.292 21.1499 61.196 21.3579 61.004C21.5739 60.812 21.6819 60.56 21.6819 60.248C21.6819 59.992 21.6059 59.788 21.4539 59.636C21.3019 59.484 21.1139 59.368 20.8899 59.288C20.6659 59.208 20.3579 59.124 19.9659 59.036C19.4779 58.924 19.0859 58.812 18.7899 58.7C18.5019 58.588 18.2539 58.412 18.0459 58.172C17.8459 57.924 17.7459 57.592 17.7459 57.176C17.7459 56.624 17.9499 56.18 18.3579 55.844C18.7659 55.5 19.3219 55.328 20.0259 55.328ZM27.3052 61.04V62H26.4892C25.8172 62 25.3132 61.84 24.9772 61.52C24.6492 61.2 24.4852 60.664 24.4852 59.912V56.36H23.5012V55.412H24.4852V53.768H25.5892V55.412H27.2932V56.36H25.5892V59.936C25.5892 60.36 25.6652 60.652 25.8172 60.812C25.9772 60.964 26.2492 61.04 26.6332 61.04H27.3052Z" fill="#3C3C3C"/>
<rect x="50.5" y="47.5" width="27.3983" height="21.7186" stroke="#3C3C3C"/>
<path d="M61.6505 53.312C62.1945 53.312 62.6625 53.408 63.0545 53.6C63.4465 53.792 63.7425 54.056 63.9425 54.392C64.1425 54.728 64.2425 55.108 64.2425 55.532C64.2425 56.06 64.0865 56.504 63.7745 56.864C63.4705 57.224 63.0225 57.44 62.4305 57.512V57.584C63.0465 57.744 63.5265 57.992 63.8705 58.328C64.2225 58.664 64.3985 59.128 64.3985 59.72C64.3985 60.416 64.1665 60.984 63.7025 61.424C63.2385 61.864 62.5705 62.084 61.6985 62.084C60.8265 62.084 60.1185 61.86 59.5745 61.412C59.0385 60.956 58.7225 60.292 58.6265 59.42H59.7065C59.7785 59.948 59.9785 60.368 60.3065 60.68C60.6425 60.992 61.0945 61.148 61.6625 61.148C62.1985 61.148 62.6105 61.012 62.8985 60.74C63.1865 60.46 63.3305 60.1 63.3305 59.66C63.3305 59.132 63.1225 58.732 62.7065 58.46C62.2985 58.18 61.7145 58.04 60.9545 58.04H60.6665V57.128H60.9545C62.4265 57.128 63.1625 56.636 63.1625 55.652C63.1625 55.22 63.0265 54.876 62.7545 54.62C62.4825 54.364 62.1065 54.236 61.6265 54.236C61.1465 54.236 60.7425 54.376 60.4145 54.656C60.0865 54.928 59.8945 55.332 59.8385 55.868H58.7705C58.8265 55.068 59.1025 54.444 59.5985 53.996C60.1025 53.54 60.7865 53.312 61.6505 53.312ZM65.6329 61.16C66.9929 60.248 68.0809 59.344 68.8969 58.448C69.7129 57.544 70.1209 56.704 70.1209 55.928C70.1209 55.448 69.9969 55.064 69.7489 54.776C69.5089 54.48 69.1169 54.332 68.5729 54.332C68.0129 54.332 67.5889 54.512 67.3009 54.872C67.0129 55.224 66.8529 55.712 66.8209 56.336H65.7409C65.7969 55.392 66.0889 54.668 66.6169 54.164C67.1449 53.652 67.8249 53.396 68.6569 53.396C69.4489 53.396 70.0769 53.608 70.5409 54.032C71.0049 54.456 71.2369 55.056 71.2369 55.832C71.2369 56.472 71.0289 57.124 70.6129 57.788C70.2049 58.444 69.6889 59.056 69.0649 59.624C68.4489 60.184 67.8129 60.66 67.1569 61.052H71.4529V61.952H65.6329V61.16Z" fill="#3C3C3C"/>
<rect x="78.5" y="47.5" width="27.3983" height="21.7186" stroke="#3C3C3C"/>
<path d="M88.8341 53.311C89.3781 53.311 89.8461 53.407 90.2381 53.599C90.6301 53.791 90.9261 54.055 91.1261 54.391C91.3261 54.727 91.4261 55.107 91.4261 55.531C91.4261 56.059 91.2701 56.503 90.9581 56.863C90.6541 57.223 90.2061 57.439 89.6141 57.511V57.583C90.2301 57.743 90.7101 57.991 91.0541 58.327C91.4061 58.663 91.5821 59.127 91.5821 59.719C91.5821 60.415 91.3501 60.983 90.8861 61.423C90.4221 61.863 89.7541 62.083 88.8821 62.083C88.0101 62.083 87.3021 61.859 86.7581 61.411C86.2221 60.955 85.9061 60.291 85.8101 59.419H86.8901C86.9621 59.947 87.1621 60.367 87.4901 60.679C87.8261 60.991 88.2781 61.147 88.8461 61.147C89.3821 61.147 89.7941 61.011 90.0821 60.739C90.3701 60.459 90.5141 60.099 90.5141 59.659C90.5141 59.131 90.3061 58.731 89.8901 58.459C89.4821 58.179 88.8981 58.039 88.1381 58.039H87.8501V57.127H88.1381C89.6101 57.127 90.3461 56.635 90.3461 55.651C90.3461 55.219 90.2101 54.875 89.9381 54.619C89.6661 54.363 89.2901 54.235 88.8101 54.235C88.3301 54.235 87.9261 54.375 87.5981 54.655C87.2701 54.927 87.0781 55.331 87.0221 55.867H85.9541C86.0101 55.067 86.2861 54.443 86.7821 53.995C87.2861 53.539 87.9701 53.311 88.8341 53.311ZM92.6845 60.055V59.143L97.0285 53.479H98.2045V59.107H99.4525V60.055H98.2045V61.999H97.1005V60.055H92.6845ZM97.1725 54.811L93.8365 59.107H97.1725V54.811Z" fill="#3C3C3C"/>
<rect x="106.5" y="47.5" width="27.3983" height="21.7186" stroke="#3C3C3C"/>
<path d="M115.828 53.311C116.372 53.311 116.84 53.407 117.232 53.599C117.624 53.791 117.92 54.055 118.12 54.391C118.32 54.727 118.42 55.107 118.42 55.531C118.42 56.059 118.264 56.503 117.952 56.863C117.648 57.223 117.2 57.439 116.608 57.511V57.583C117.224 57.743 117.704 57.991 118.048 58.327C118.4 58.663 118.576 59.127 118.576 59.719C118.576 60.415 118.344 60.983 117.88 61.423C117.416 61.863 116.748 62.083 115.876 62.083C115.004 62.083 114.296 61.859 113.752 61.411C113.216 60.955 112.9 60.291 112.804 59.419H113.884C113.956 59.947 114.156 60.367 114.484 60.679C114.82 60.991 115.272 61.147 115.84 61.147C116.376 61.147 116.788 61.011 117.076 60.739C117.364 60.459 117.508 60.099 117.508 59.659C117.508 59.131 117.3 58.731 116.884 58.459C116.476 58.179 115.892 58.039 115.132 58.039H114.844V57.127H115.132C116.604 57.127 117.34 56.635 117.34 55.651C117.34 55.219 117.204 54.875 116.932 54.619C116.66 54.363 116.284 54.235 115.804 54.235C115.324 54.235 114.92 54.375 114.592 54.655C114.264 54.927 114.072 55.331 114.016 55.867H112.948C113.004 55.067 113.28 54.443 113.776 53.995C114.28 53.539 114.964 53.311 115.828 53.311ZM124.767 55.795C124.703 55.291 124.531 54.903 124.251 54.631C123.979 54.351 123.599 54.211 123.111 54.211C122.431 54.211 121.915 54.475 121.563 55.003C121.219 55.531 121.047 56.367 121.047 57.511L121.059 57.955C121.179 57.475 121.455 57.095 121.887 56.815C122.319 56.527 122.827 56.383 123.411 56.383C124.251 56.383 124.907 56.635 125.379 57.139C125.859 57.643 126.099 58.347 126.099 59.251C126.099 59.779 125.995 60.259 125.787 60.691C125.579 61.115 125.259 61.455 124.827 61.711C124.403 61.959 123.875 62.083 123.243 62.083C122.035 62.083 121.203 61.703 120.747 60.943C120.299 60.183 120.075 59.151 120.075 57.847C120.075 56.343 120.315 55.215 120.795 54.463C121.283 53.703 122.075 53.323 123.171 53.323C123.979 53.323 124.599 53.551 125.031 54.007C125.471 54.463 125.731 55.059 125.811 55.795H124.767ZM121.179 59.071C121.179 59.655 121.347 60.147 121.683 60.547C122.027 60.939 122.539 61.135 123.219 61.135C123.779 61.135 124.227 60.971 124.563 60.643C124.899 60.307 125.067 59.839 125.067 59.239C125.067 58.591 124.899 58.099 124.563 57.763C124.227 57.419 123.763 57.247 123.171 57.247C122.835 57.247 122.515 57.315 122.211 57.451C121.907 57.587 121.659 57.795 121.467 58.075C121.275 58.347 121.179 58.679 121.179 59.071Z" fill="#3C3C3C"/>
<rect x="133.5" y="47.5" width="27.3983" height="21.7186" stroke="#3C3C3C"/>
<path d="M143.805 53.312C144.349 53.312 144.817 53.408 145.209 53.6C145.601 53.792 145.897 54.056 146.097 54.392C146.297 54.728 146.397 55.108 146.397 55.532C146.397 56.06 146.241 56.504 145.929 56.864C145.625 57.224 145.177 57.44 144.585 57.512V57.584C145.201 57.744 145.681 57.992 146.025 58.328C146.377 58.664 146.553 59.128 146.553 59.72C146.553 60.416 146.321 60.984 145.857 61.424C145.393 61.864 144.725 62.084 143.853 62.084C142.981 62.084 142.273 61.86 141.729 61.412C141.193 60.956 140.877 60.292 140.781 59.42H141.861C141.933 59.948 142.133 60.368 142.461 60.68C142.797 60.992 143.249 61.148 143.817 61.148C144.353 61.148 144.765 61.012 145.053 60.74C145.341 60.46 145.485 60.1 145.485 59.66C145.485 59.132 145.277 58.732 144.861 58.46C144.453 58.18 143.869 58.04 143.109 58.04H142.821V57.128H143.109C144.581 57.128 145.317 56.636 145.317 55.652C145.317 55.22 145.181 54.876 144.909 54.62C144.637 54.364 144.261 54.236 143.781 54.236C143.301 54.236 142.897 54.376 142.569 54.656C142.241 54.928 142.049 55.332 141.993 55.868H140.925C140.981 55.068 141.257 54.444 141.753 53.996C142.257 53.54 142.941 53.312 143.805 53.312ZM148.135 55.532C148.135 55.116 148.247 54.736 148.471 54.392C148.695 54.048 149.027 53.776 149.467 53.576C149.907 53.376 150.431 53.276 151.039 53.276C151.647 53.276 152.167 53.376 152.599 53.576C153.039 53.776 153.371 54.048 153.595 54.392C153.819 54.736 153.931 55.116 153.931 55.532C153.931 56.004 153.803 56.412 153.547 56.756C153.291 57.1 152.903 57.344 152.383 57.488C152.943 57.64 153.379 57.904 153.691 58.28C154.003 58.656 154.159 59.12 154.159 59.672C154.159 60.472 153.875 61.1 153.307 61.556C152.739 62.012 151.983 62.24 151.039 62.24C150.095 62.24 149.339 62.012 148.771 61.556C148.203 61.1 147.919 60.472 147.919 59.672C147.919 59.12 148.071 58.656 148.375 58.28C148.687 57.904 149.123 57.64 149.683 57.488C149.163 57.344 148.775 57.1 148.519 56.756C148.263 56.412 148.135 56.004 148.135 55.532ZM149.215 55.688C149.215 56.168 149.379 56.54 149.707 56.804C150.035 57.06 150.479 57.188 151.039 57.188C151.599 57.188 152.039 57.06 152.359 56.804C152.687 56.54 152.851 56.168 152.851 55.688C152.851 55.208 152.687 54.84 152.359 54.584C152.031 54.32 151.591 54.188 151.039 54.188C150.487 54.188 150.043 54.32 149.707 54.584C149.379 54.84 149.215 55.208 149.215 55.688ZM148.987 59.612C148.987 60.156 149.171 60.58 149.539 60.884C149.907 61.18 150.407 61.328 151.039 61.328C151.663 61.328 152.159 61.176 152.527 60.872C152.895 60.568 153.079 60.148 153.079 59.612C153.079 59.068 152.887 58.656 152.503 58.376C152.119 58.096 151.631 57.956 151.039 57.956C150.439 57.956 149.947 58.096 149.563 58.376C149.179 58.656 148.987 59.068 148.987 59.612Z" fill="#3C3C3C"/>
<rect x="161.5" y="47.5" width="27.3983" height="21.7186" stroke="#3C3C3C"/>
<path d="M168.466 60.056V59.144L172.81 53.48H173.986V59.108H175.234V60.056H173.986V62H172.882V60.056H168.466ZM172.954 54.812L169.618 59.108H172.954V54.812ZM176.219 57.716C176.219 59.076 176.443 60.136 176.891 60.896C177.339 61.656 178.115 62.036 179.219 62.036C180.323 62.036 181.099 61.656 181.547 60.896C182.003 60.136 182.231 59.076 182.231 57.716C182.231 56.372 182.003 55.32 181.547 54.56C181.099 53.8 180.323 53.42 179.219 53.42C178.115 53.42 177.339 53.8 176.891 54.56C176.443 55.312 176.219 56.364 176.219 57.716ZM181.151 57.716C181.151 58.412 181.099 58.996 180.995 59.468C180.899 59.932 180.711 60.304 180.431 60.584C180.151 60.864 179.747 61.004 179.219 61.004C178.699 61.004 178.299 60.864 178.019 60.584C177.739 60.304 177.547 59.932 177.443 59.468C177.347 58.996 177.299 58.412 177.299 57.716C177.299 57.028 177.347 56.452 177.443 55.988C177.547 55.524 177.739 55.156 178.019 54.884C178.299 54.604 178.699 54.464 179.219 54.464C179.747 54.464 180.151 54.604 180.431 54.884C180.711 55.156 180.899 55.524 180.995 55.988C181.099 56.452 181.151 57.028 181.151 57.716Z" fill="#3C3C3C"/>
<rect x="189.5" y="47.5" width="27.3983" height="21.7186" stroke="#3C3C3C"/>
<path d="M196.747 60.056V59.144L201.091 53.48H202.267V59.108H203.515V60.056H202.267V62H201.163V60.056H196.747ZM201.235 54.812L197.899 59.108H201.235V54.812ZM204.32 61.16C205.68 60.248 206.768 59.344 207.584 58.448C208.4 57.544 208.808 56.704 208.808 55.928C208.808 55.448 208.684 55.064 208.436 54.776C208.196 54.48 207.804 54.332 207.26 54.332C206.7 54.332 206.276 54.512 205.988 54.872C205.7 55.224 205.54 55.712 205.508 56.336H204.428C204.484 55.392 204.776 54.668 205.304 54.164C205.832 53.652 206.512 53.396 207.344 53.396C208.136 53.396 208.764 53.608 209.228 54.032C209.692 54.456 209.924 55.056 209.924 55.832C209.924 56.472 209.716 57.124 209.3 57.788C208.892 58.444 208.376 59.056 207.752 59.624C207.136 60.184 206.5 60.66 205.844 61.052H210.14V61.952H204.32V61.16Z" fill="#3C3C3C"/>
<rect x="217.5" y="47.5" width="27.3983" height="21.7186" stroke="#3C3C3C"/>
<path d="M223.431 60.056V59.144L227.775 53.48H228.951V59.108H230.199V60.056H228.951V62H227.847V60.056H223.431ZM227.919 54.812L224.583 59.108H227.919V54.812ZM230.872 60.056V59.144L235.216 53.48H236.392V59.108H237.64V60.056H236.392V62H235.288V60.056H230.872ZM235.36 54.812L232.024 59.108H235.36V54.812Z" fill="#3C3C3C"/>
<rect x="244.5" y="47.5" width="27.3983" height="21.7186" stroke="#3C3C3C"/>
<path d="M251.425 60.056V59.144L255.769 53.48H256.945V59.108H258.193V60.056H256.945V62H255.841V60.056H251.425ZM255.913 54.812L252.577 59.108H255.913V54.812ZM263.954 55.796C263.89 55.292 263.718 54.904 263.438 54.632C263.166 54.352 262.786 54.212 262.298 54.212C261.618 54.212 261.102 54.476 260.75 55.004C260.406 55.532 260.234 56.368 260.234 57.512L260.246 57.956C260.366 57.476 260.642 57.096 261.074 56.816C261.506 56.528 262.014 56.384 262.598 56.384C263.438 56.384 264.094 56.636 264.566 57.14C265.046 57.644 265.286 58.348 265.286 59.252C265.286 59.78 265.182 60.26 264.974 60.692C264.766 61.116 264.446 61.456 264.014 61.712C263.59 61.96 263.062 62.084 262.43 62.084C261.222 62.084 260.39 61.704 259.934 60.944C259.486 60.184 259.262 59.152 259.262 57.848C259.262 56.344 259.502 55.216 259.982 54.464C260.47 53.704 261.262 53.324 262.358 53.324C263.166 53.324 263.786 53.552 264.218 54.008C264.658 54.464 264.918 55.06 264.998 55.796H263.954ZM260.366 59.072C260.366 59.656 260.534 60.148 260.87 60.548C261.214 60.94 261.726 61.136 262.406 61.136C262.966 61.136 263.414 60.972 263.75 60.644C264.086 60.308 264.254 59.84 264.254 59.24C264.254 58.592 264.086 58.1 263.75 57.764C263.414 57.42 262.95 57.248 262.358 57.248C262.022 57.248 261.702 57.316 261.398 57.452C261.094 57.588 260.846 57.796 260.654 58.076C260.462 58.348 260.366 58.68 260.366 59.072Z" fill="#3C3C3C"/>
<rect x="272.5" y="47.5" width="27.3983" height="21.7186" stroke="#3C3C3C"/>
<path d="M279.401 60.056V59.144L283.745 53.48H284.921V59.108H286.169V60.056H284.921V62H283.817V60.056H279.401ZM283.889 54.812L280.553 59.108H283.889V54.812ZM287.323 55.532C287.323 55.116 287.435 54.736 287.659 54.392C287.883 54.048 288.215 53.776 288.655 53.576C289.095 53.376 289.619 53.276 290.227 53.276C290.835 53.276 291.355 53.376 291.787 53.576C292.227 53.776 292.559 54.048 292.783 54.392C293.007 54.736 293.119 55.116 293.119 55.532C293.119 56.004 292.991 56.412 292.735 56.756C292.479 57.1 292.091 57.344 291.571 57.488C292.131 57.64 292.567 57.904 292.879 58.28C293.191 58.656 293.347 59.12 293.347 59.672C293.347 60.472 293.063 61.1 292.495 61.556C291.927 62.012 291.171 62.24 290.227 62.24C289.283 62.24 288.527 62.012 287.959 61.556C287.391 61.1 287.107 60.472 287.107 59.672C287.107 59.12 287.259 58.656 287.563 58.28C287.875 57.904 288.311 57.64 288.871 57.488C288.351 57.344 287.963 57.1 287.707 56.756C287.451 56.412 287.323 56.004 287.323 55.532ZM288.403 55.688C288.403 56.168 288.567 56.54 288.895 56.804C289.223 57.06 289.667 57.188 290.227 57.188C290.787 57.188 291.227 57.06 291.547 56.804C291.875 56.54 292.039 56.168 292.039 55.688C292.039 55.208 291.875 54.84 291.547 54.584C291.219 54.32 290.779 54.188 290.227 54.188C289.675 54.188 289.231 54.32 288.895 54.584C288.567 54.84 288.403 55.208 288.403 55.688ZM288.175 59.612C288.175 60.156 288.359 60.58 288.727 60.884C289.095 61.18 289.595 61.328 290.227 61.328C290.851 61.328 291.347 61.176 291.715 60.872C292.083 60.568 292.267 60.148 292.267 59.612C292.267 59.068 292.075 58.656 291.691 58.376C291.307 58.096 290.819 57.956 290.227 57.956C289.627 57.956 289.135 58.096 288.751 58.376C288.367 58.656 288.175 59.068 288.175 59.612Z" fill="#3C3C3C"/>
<rect x="300.5" y="47.5" width="27.3983" height="21.7186" stroke="#3C3C3C"/>
<path d="M312.501 54.404H308.157V57.236C308.357 56.964 308.645 56.748 309.021 56.588C309.397 56.428 309.809 56.348 310.257 56.348C310.857 56.348 311.353 56.476 311.745 56.732C312.145 56.98 312.437 57.312 312.621 57.728C312.813 58.136 312.909 58.592 312.909 59.096C312.909 59.968 312.665 60.68 312.177 61.232C311.689 61.784 310.973 62.06 310.029 62.06C309.181 62.06 308.489 61.832 307.953 61.376C307.417 60.912 307.117 60.292 307.053 59.516H308.133C308.221 60.012 308.425 60.4 308.745 60.68C309.073 60.952 309.485 61.088 309.981 61.088C310.597 61.088 311.061 60.904 311.373 60.536C311.685 60.168 311.841 59.684 311.841 59.084C311.841 58.5 311.681 58.044 311.361 57.716C311.041 57.388 310.589 57.224 310.005 57.224C309.589 57.224 309.225 57.316 308.913 57.5C308.601 57.676 308.365 57.916 308.205 58.22H307.149V53.432H312.501V54.404ZM314.196 57.716C314.196 59.076 314.42 60.136 314.868 60.896C315.316 61.656 316.092 62.036 317.196 62.036C318.3 62.036 319.076 61.656 319.524 60.896C319.98 60.136 320.208 59.076 320.208 57.716C320.208 56.372 319.98 55.32 319.524 54.56C319.076 53.8 318.3 53.42 317.196 53.42C316.092 53.42 315.316 53.8 314.868 54.56C314.42 55.312 314.196 56.364 314.196 57.716ZM319.128 57.716C319.128 58.412 319.076 58.996 318.972 59.468C318.876 59.932 318.688 60.304 318.408 60.584C318.128 60.864 317.724 61.004 317.196 61.004C316.676 61.004 316.276 60.864 315.996 60.584C315.716 60.304 315.524 59.932 315.42 59.468C315.324 58.996 315.276 58.412 315.276 57.716C315.276 57.028 315.324 56.452 315.42 55.988C315.524 55.524 315.716 55.156 315.996 54.884C316.276 54.604 316.676 54.464 317.196 54.464C317.724 54.464 318.128 54.604 318.408 54.884C318.688 55.156 318.876 55.524 318.972 55.988C319.076 56.452 319.128 57.028 319.128 57.716Z" fill="#3C3C3C"/>
<rect x="0.5" y="69.5" width="50.1169" height="21.7186" stroke="#3C3C3C"/>
<path d="M13.3132 75.54L11.1652 84H9.8332L7.8772 77.088L5.9212 84H4.5892L2.4292 75.54H3.6412L5.2612 82.728L7.2652 75.54H8.4772L10.4812 82.704L12.1132 75.54H13.3132ZM17.2928 77.328C17.9328 77.328 18.4728 77.488 18.9128 77.808C19.3608 78.128 19.6728 78.556 19.8488 79.092V77.412H20.9408V84H19.8488V82.32C19.6728 82.856 19.3608 83.284 18.9128 83.604C18.4728 83.924 17.9328 84.084 17.2928 84.084C16.7088 84.084 16.1888 83.948 15.7328 83.676C15.2768 83.404 14.9168 83.016 14.6528 82.512C14.3968 82 14.2688 81.4 14.2688 80.712C14.2688 80.024 14.3968 79.424 14.6528 78.912C14.9168 78.4 15.2768 78.008 15.7328 77.736C16.1888 77.464 16.7088 77.328 17.2928 77.328ZM17.6048 78.3C16.9328 78.3 16.3928 78.516 15.9848 78.948C15.5848 79.372 15.3848 79.96 15.3848 80.712C15.3848 81.464 15.5848 82.056 15.9848 82.488C16.3928 82.912 16.9328 83.124 17.6048 83.124C18.0368 83.124 18.4208 83.024 18.7568 82.824C19.1008 82.624 19.3688 82.344 19.5608 81.984C19.7528 81.616 19.8488 81.192 19.8488 80.712C19.8488 80.232 19.7528 79.808 19.5608 79.44C19.3688 79.072 19.1008 78.792 18.7568 78.6C18.4208 78.4 18.0368 78.3 17.6048 78.3ZM22.4867 75.48C22.4867 75.28 22.5547 75.12 22.6907 75C22.8267 74.872 23.0067 74.808 23.2307 74.808C23.4547 74.808 23.6347 74.872 23.7707 75C23.9067 75.12 23.9747 75.28 23.9747 75.48C23.9747 75.68 23.9067 75.844 23.7707 75.972C23.6347 76.092 23.4547 76.152 23.2307 76.152C23.0067 76.152 22.8267 76.092 22.6907 75.972C22.5547 75.844 22.4867 75.68 22.4867 75.48ZM23.7707 77.412V84H22.6787V77.412H23.7707ZM27.5904 77.328C28.3344 77.328 28.9304 77.524 29.3784 77.916C29.8344 78.3 30.1104 78.82 30.2064 79.476H29.1624C29.1144 79.084 28.9504 78.764 28.6704 78.516C28.3984 78.26 28.0304 78.132 27.5664 78.132C27.1744 78.132 26.8664 78.228 26.6424 78.42C26.4264 78.604 26.3184 78.856 26.3184 79.176C26.3184 79.416 26.3904 79.612 26.5344 79.764C26.6864 79.908 26.8704 80.02 27.0864 80.1C27.3104 80.172 27.6144 80.252 27.9984 80.34C28.4864 80.452 28.8784 80.568 29.1744 80.688C29.4784 80.8 29.7344 80.984 29.9424 81.24C30.1584 81.496 30.2664 81.84 30.2664 82.272C30.2664 82.808 30.0624 83.244 29.6544 83.58C29.2544 83.916 28.7184 84.084 28.0464 84.084C27.2624 84.084 26.6224 83.896 26.1264 83.52C25.6304 83.144 25.3384 82.62 25.2504 81.948H26.3064C26.3464 82.348 26.5184 82.672 26.8224 82.92C27.1344 83.168 27.5424 83.292 28.0464 83.292C28.4224 83.292 28.7144 83.196 28.9224 83.004C29.1384 82.812 29.2464 82.56 29.2464 82.248C29.2464 81.992 29.1704 81.788 29.0184 81.636C28.8664 81.484 28.6784 81.368 28.4544 81.288C28.2304 81.208 27.9224 81.124 27.5304 81.036C27.0424 80.924 26.6504 80.812 26.3544 80.7C26.0664 80.588 25.8184 80.412 25.6104 80.172C25.4104 79.924 25.3104 79.592 25.3104 79.176C25.3104 78.624 25.5144 78.18 25.9224 77.844C26.3304 77.5 26.8864 77.328 27.5904 77.328ZM34.8696 83.04V84H34.0536C33.3816 84 32.8776 83.84 32.5416 83.52C32.2136 83.2 32.0496 82.664 32.0496 81.912V78.36H31.0656V77.412H32.0496V75.768H33.1536V77.412H34.8576V78.36H33.1536V81.936C33.1536 82.36 33.2296 82.652 33.3816 82.812C33.5416 82.964 33.8136 83.04 34.1976 83.04H34.8696Z" fill="#3C3C3C"/>
<rect x="50.5" y="69.5" width="27.3983" height="21.7186" stroke="#3C3C3C"/>
<path d="M57.8731 83.16C59.2331 82.248 60.3211 81.344 61.1371 80.448C61.9531 79.544 62.3611 78.704 62.3611 77.928C62.3611 77.448 62.2371 77.064 61.9891 76.776C61.7491 76.48 61.3571 76.332 60.8131 76.332C60.2531 76.332 59.8291 76.512 59.5411 76.872C59.2531 77.224 59.0931 77.712 59.0611 78.336H57.9811C58.0371 77.392 58.3291 76.668 58.8571 76.164C59.3851 75.652 60.0651 75.396 60.8971 75.396C61.6891 75.396 62.3171 75.608 62.7811 76.032C63.2451 76.456 63.4771 77.056 63.4771 77.832C63.4771 78.472 63.2691 79.124 62.8531 79.788C62.4451 80.444 61.9291 81.056 61.3051 81.624C60.6891 82.184 60.0531 82.66 59.3971 83.052H63.6931V83.952H57.8731V83.16ZM69.6377 77.796C69.5737 77.292 69.4017 76.904 69.1217 76.632C68.8497 76.352 68.4697 76.212 67.9817 76.212C67.3017 76.212 66.7857 76.476 66.4337 77.004C66.0897 77.532 65.9177 78.368 65.9177 79.512L65.9297 79.956C66.0497 79.476 66.3257 79.096 66.7577 78.816C67.1897 78.528 67.6977 78.384 68.2817 78.384C69.1217 78.384 69.7777 78.636 70.2497 79.14C70.7297 79.644 70.9697 80.348 70.9697 81.252C70.9697 81.78 70.8657 82.26 70.6577 82.692C70.4497 83.116 70.1297 83.456 69.6977 83.712C69.2737 83.96 68.7457 84.084 68.1137 84.084C66.9057 84.084 66.0737 83.704 65.6177 82.944C65.1697 82.184 64.9457 81.152 64.9457 79.848C64.9457 78.344 65.1857 77.216 65.6657 76.464C66.1537 75.704 66.9457 75.324 68.0417 75.324C68.8497 75.324 69.4697 75.552 69.9017 76.008C70.3417 76.464 70.6017 77.06 70.6817 77.796H69.6377ZM66.0497 81.072C66.0497 81.656 66.2177 82.148 66.5537 82.548C66.8977 82.94 67.4097 83.136 68.0897 83.136C68.6497 83.136 69.0977 82.972 69.4337 82.644C69.7697 82.308 69.9377 81.84 69.9377 81.24C69.9377 80.592 69.7697 80.1 69.4337 79.764C69.0977 79.42 68.6337 79.248 68.0417 79.248C67.7057 79.248 67.3857 79.316 67.0817 79.452C66.7777 79.588 66.5297 79.796 66.3377 80.076C66.1457 80.348 66.0497 80.68 66.0497 81.072Z" fill="#3C3C3C"/>
<rect x="78.5" y="69.5" width="27.3983" height="21.7186" stroke="#3C3C3C"/>
<path d="M85.8497 83.159C87.2097 82.247 88.2977 81.343 89.1137 80.447C89.9297 79.543 90.3377 78.703 90.3377 77.927C90.3377 77.447 90.2137 77.063 89.9657 76.775C89.7257 76.479 89.3337 76.331 88.7897 76.331C88.2297 76.331 87.8057 76.511 87.5177 76.871C87.2297 77.223 87.0697 77.711 87.0377 78.335H85.9577C86.0137 77.391 86.3057 76.667 86.8337 76.163C87.3617 75.651 88.0417 75.395 88.8737 75.395C89.6657 75.395 90.2937 75.607 90.7577 76.031C91.2217 76.455 91.4537 77.055 91.4537 77.831C91.4537 78.471 91.2457 79.123 90.8297 79.787C90.4217 80.443 89.9057 81.055 89.2817 81.623C88.6657 82.183 88.0297 82.659 87.3737 83.051H91.6697V83.951H85.8497V83.159ZM93.0063 77.531C93.0063 77.115 93.1183 76.735 93.3423 76.391C93.5663 76.047 93.8983 75.775 94.3383 75.575C94.7783 75.375 95.3023 75.275 95.9103 75.275C96.5183 75.275 97.0383 75.375 97.4703 75.575C97.9103 75.775 98.2423 76.047 98.4663 76.391C98.6903 76.735 98.8023 77.115 98.8023 77.531C98.8023 78.003 98.6743 78.411 98.4183 78.755C98.1623 79.099 97.7743 79.343 97.2543 79.487C97.8143 79.639 98.2503 79.903 98.5623 80.279C98.8743 80.655 99.0303 81.119 99.0303 81.671C99.0303 82.471 98.7463 83.099 98.1783 83.555C97.6103 84.011 96.8543 84.239 95.9103 84.239C94.9663 84.239 94.2103 84.011 93.6423 83.555C93.0743 83.099 92.7903 82.471 92.7903 81.671C92.7903 81.119 92.9423 80.655 93.2463 80.279C93.5583 79.903 93.9943 79.639 94.5543 79.487C94.0343 79.343 93.6463 79.099 93.3903 78.755C93.1343 78.411 93.0063 78.003 93.0063 77.531ZM94.0863 77.687C94.0863 78.167 94.2503 78.539 94.5783 78.803C94.9063 79.059 95.3503 79.187 95.9103 79.187C96.4703 79.187 96.9103 79.059 97.2303 78.803C97.5583 78.539 97.7223 78.167 97.7223 77.687C97.7223 77.207 97.5583 76.839 97.2303 76.583C96.9023 76.319 96.4623 76.187 95.9103 76.187C95.3583 76.187 94.9143 76.319 94.5783 76.583C94.2503 76.839 94.0863 77.207 94.0863 77.687ZM93.8583 81.611C93.8583 82.155 94.0423 82.579 94.4103 82.883C94.7783 83.179 95.2783 83.327 95.9103 83.327C96.5343 83.327 97.0303 83.175 97.3983 82.871C97.7663 82.567 97.9503 82.147 97.9503 81.611C97.9503 81.067 97.7583 80.655 97.3743 80.375C96.9903 80.095 96.5023 79.955 95.9103 79.955C95.3103 79.955 94.8183 80.095 94.4343 80.375C94.0503 80.655 93.8583 81.067 93.8583 81.611Z" fill="#3C3C3C"/>
<rect x="106.5" y="69.5" width="27.3983" height="21.7186" stroke="#3C3C3C"/>
<path d="M115.869 75.311C116.413 75.311 116.881 75.407 117.273 75.599C117.665 75.791 117.961 76.055 118.161 76.391C118.361 76.727 118.461 77.107 118.461 77.531C118.461 78.059 118.305 78.503 117.993 78.863C117.689 79.223 117.241 79.439 116.649 79.511V79.583C117.265 79.743 117.745 79.991 118.089 80.327C118.441 80.663 118.617 81.127 118.617 81.719C118.617 82.415 118.385 82.983 117.921 83.423C117.457 83.863 116.789 84.083 115.917 84.083C115.045 84.083 114.337 83.859 113.793 83.411C113.257 82.955 112.941 82.291 112.845 81.419H113.925C113.997 81.947 114.197 82.367 114.525 82.679C114.861 82.991 115.313 83.147 115.881 83.147C116.417 83.147 116.829 83.011 117.117 82.739C117.405 82.459 117.549 82.099 117.549 81.659C117.549 81.131 117.341 80.731 116.925 80.459C116.517 80.179 115.933 80.039 115.173 80.039H114.885V79.127H115.173C116.645 79.127 117.381 78.635 117.381 77.651C117.381 77.219 117.245 76.875 116.973 76.619C116.701 76.363 116.325 76.235 115.845 76.235C115.365 76.235 114.961 76.375 114.633 76.655C114.305 76.927 114.113 77.331 114.057 77.867H112.989C113.045 77.067 113.321 76.443 113.817 75.995C114.321 75.539 115.005 75.311 115.869 75.311ZM120.032 79.715C120.032 81.075 120.256 82.135 120.704 82.895C121.152 83.655 121.928 84.035 123.032 84.035C124.136 84.035 124.912 83.655 125.36 82.895C125.816 82.135 126.044 81.075 126.044 79.715C126.044 78.371 125.816 77.319 125.36 76.559C124.912 75.799 124.136 75.419 123.032 75.419C121.928 75.419 121.152 75.799 120.704 76.559C120.256 77.311 120.032 78.363 120.032 79.715ZM124.964 79.715C124.964 80.411 124.912 80.995 124.808 81.467C124.712 81.931 124.524 82.303 124.244 82.583C123.964 82.863 123.56 83.003 123.032 83.003C122.512 83.003 122.112 82.863 121.832 82.583C121.552 82.303 121.36 81.931 121.256 81.467C121.16 80.995 121.112 80.411 121.112 79.715C121.112 79.027 121.16 78.451 121.256 77.987C121.36 77.523 121.552 77.155 121.832 76.883C122.112 76.603 122.512 76.463 123.032 76.463C123.56 76.463 123.964 76.603 124.244 76.883C124.524 77.155 124.712 77.523 124.808 77.987C124.912 78.451 124.964 79.027 124.964 79.715Z" fill="#3C3C3C"/>
<rect x="133.5" y="69.5" width="27.3983" height="21.7186" stroke="#3C3C3C"/>
<path d="M144.651 75.312C145.195 75.312 145.663 75.408 146.055 75.6C146.447 75.792 146.743 76.056 146.943 76.392C147.143 76.728 147.243 77.108 147.243 77.532C147.243 78.06 147.087 78.504 146.775 78.864C146.471 79.224 146.023 79.44 145.431 79.512V79.584C146.047 79.744 146.527 79.992 146.871 80.328C147.223 80.664 147.398 81.128 147.398 81.72C147.398 82.416 147.167 82.984 146.703 83.424C146.239 83.864 145.571 84.084 144.699 84.084C143.827 84.084 143.119 83.86 142.575 83.412C142.039 82.956 141.723 82.292 141.627 81.42H142.707C142.779 81.948 142.979 82.368 143.307 82.68C143.643 82.992 144.095 83.148 144.663 83.148C145.199 83.148 145.611 83.012 145.899 82.74C146.187 82.46 146.331 82.1 146.331 81.66C146.331 81.132 146.123 80.732 145.707 80.46C145.299 80.18 144.715 80.04 143.955 80.04H143.667V79.128H143.955C145.427 79.128 146.163 78.636 146.163 77.652C146.163 77.22 146.027 76.876 145.755 76.62C145.483 76.364 145.107 76.236 144.627 76.236C144.147 76.236 143.743 76.376 143.415 76.656C143.087 76.928 142.895 77.332 142.839 77.868H141.771C141.827 77.068 142.103 76.444 142.599 75.996C143.103 75.54 143.787 75.312 144.651 75.312ZM148.633 83.16C149.993 82.248 151.081 81.344 151.897 80.448C152.713 79.544 153.121 78.704 153.121 77.928C153.121 77.448 152.997 77.064 152.749 76.776C152.509 76.48 152.117 76.332 151.573 76.332C151.013 76.332 150.589 76.512 150.301 76.872C150.013 77.224 149.853 77.712 149.821 78.336H148.741C148.797 77.392 149.089 76.668 149.617 76.164C150.145 75.652 150.825 75.396 151.657 75.396C152.449 75.396 153.077 75.608 153.541 76.032C154.005 76.456 154.237 77.056 154.237 77.832C154.237 78.472 154.029 79.124 153.613 79.788C153.205 80.444 152.689 81.056 152.065 81.624C151.449 82.184 150.813 82.66 150.157 83.052H154.453V83.952H148.633V83.16Z" fill="#3C3C3C"/>
<rect x="161.5" y="69.5" width="27.3983" height="21.7186" stroke="#3C3C3C"/>
<path d="M171.834 75.312C172.378 75.312 172.846 75.408 173.238 75.6C173.63 75.792 173.926 76.056 174.126 76.392C174.326 76.728 174.426 77.108 174.426 77.532C174.426 78.06 174.27 78.504 173.958 78.864C173.654 79.224 173.206 79.44 172.614 79.512V79.584C173.23 79.744 173.71 79.992 174.054 80.328C174.406 80.664 174.582 81.128 174.582 81.72C174.582 82.416 174.35 82.984 173.886 83.424C173.422 83.864 172.754 84.084 171.882 84.084C171.01 84.084 170.302 83.86 169.758 83.412C169.222 82.956 168.906 82.292 168.81 81.42H169.89C169.962 81.948 170.162 82.368 170.49 82.68C170.826 82.992 171.278 83.148 171.846 83.148C172.382 83.148 172.794 83.012 173.082 82.74C173.37 82.46 173.514 82.1 173.514 81.66C173.514 81.132 173.306 80.732 172.89 80.46C172.482 80.18 171.898 80.04 171.138 80.04H170.85V79.128H171.138C172.61 79.128 173.346 78.636 173.346 77.652C173.346 77.22 173.21 76.876 172.938 76.62C172.666 76.364 172.29 76.236 171.81 76.236C171.33 76.236 170.926 76.376 170.598 76.656C170.27 76.928 170.078 77.332 170.022 77.868H168.954C169.01 77.068 169.286 76.444 169.782 75.996C170.286 75.54 170.97 75.312 171.834 75.312ZM175.685 82.056V81.144L180.029 75.48H181.205V81.108H182.453V82.056H181.205V84H180.101V82.056H175.685ZM180.173 76.812L176.837 81.108H180.173V76.812Z" fill="#3C3C3C"/>
<rect x="189.5" y="69.5" width="27.3983" height="21.7186" stroke="#3C3C3C"/>
<path d="M199.828 75.312C200.372 75.312 200.84 75.408 201.232 75.6C201.624 75.792 201.92 76.056 202.12 76.392C202.32 76.728 202.42 77.108 202.42 77.532C202.42 78.06 202.264 78.504 201.952 78.864C201.648 79.224 201.2 79.44 200.608 79.512V79.584C201.224 79.744 201.704 79.992 202.048 80.328C202.4 80.664 202.576 81.128 202.576 81.72C202.576 82.416 202.344 82.984 201.88 83.424C201.416 83.864 200.748 84.084 199.876 84.084C199.004 84.084 198.296 83.86 197.752 83.412C197.216 82.956 196.9 82.292 196.804 81.42H197.884C197.956 81.948 198.156 82.368 198.484 82.68C198.82 82.992 199.272 83.148 199.84 83.148C200.376 83.148 200.788 83.012 201.076 82.74C201.364 82.46 201.508 82.1 201.508 81.66C201.508 81.132 201.3 80.732 200.884 80.46C200.476 80.18 199.892 80.04 199.132 80.04H198.844V79.128H199.132C200.604 79.128 201.34 78.636 201.34 77.652C201.34 77.22 201.204 76.876 200.932 76.62C200.66 76.364 200.284 76.236 199.804 76.236C199.324 76.236 198.92 76.376 198.592 76.656C198.264 76.928 198.072 77.332 198.016 77.868H196.948C197.004 77.068 197.28 76.444 197.776 75.996C198.28 75.54 198.964 75.312 199.828 75.312ZM208.767 77.796C208.703 77.292 208.531 76.904 208.251 76.632C207.979 76.352 207.599 76.212 207.111 76.212C206.431 76.212 205.915 76.476 205.563 77.004C205.219 77.532 205.047 78.368 205.047 79.512L205.059 79.956C205.179 79.476 205.455 79.096 205.887 78.816C206.319 78.528 206.827 78.384 207.411 78.384C208.251 78.384 208.907 78.636 209.379 79.14C209.859 79.644 210.099 80.348 210.099 81.252C210.099 81.78 209.995 82.26 209.787 82.692C209.579 83.116 209.259 83.456 208.827 83.712C208.403 83.96 207.875 84.084 207.243 84.084C206.035 84.084 205.203 83.704 204.747 82.944C204.299 82.184 204.075 81.152 204.075 79.848C204.075 78.344 204.315 77.216 204.795 76.464C205.283 75.704 206.075 75.324 207.171 75.324C207.979 75.324 208.599 75.552 209.031 76.008C209.471 76.464 209.731 77.06 209.811 77.796H208.767ZM205.179 81.072C205.179 81.656 205.347 82.148 205.683 82.548C206.027 82.94 206.539 83.136 207.219 83.136C207.779 83.136 208.227 82.972 208.563 82.644C208.899 82.308 209.067 81.84 209.067 81.24C209.067 80.592 208.899 80.1 208.563 79.764C208.227 79.42 207.763 79.248 207.171 79.248C206.835 79.248 206.515 79.316 206.211 79.452C205.907 79.588 205.659 79.796 205.467 80.076C205.275 80.348 205.179 80.68 205.179 81.072Z" fill="#3C3C3C"/>
<rect x="217.5" y="69.5" width="27.3983" height="21.7186" stroke="#3C3C3C"/>
<path d="M226.805 75.312C227.349 75.312 227.817 75.408 228.209 75.6C228.601 75.792 228.897 76.056 229.097 76.392C229.297 76.728 229.397 77.108 229.397 77.532C229.397 78.06 229.241 78.504 228.929 78.864C228.625 79.224 228.177 79.44 227.585 79.512V79.584C228.201 79.744 228.681 79.992 229.025 80.328C229.377 80.664 229.553 81.128 229.553 81.72C229.553 82.416 229.321 82.984 228.857 83.424C228.393 83.864 227.725 84.084 226.853 84.084C225.981 84.084 225.273 83.86 224.729 83.412C224.193 82.956 223.877 82.292 223.781 81.42H224.861C224.933 81.948 225.133 82.368 225.461 82.68C225.797 82.992 226.249 83.148 226.817 83.148C227.353 83.148 227.765 83.012 228.053 82.74C228.341 82.46 228.485 82.1 228.485 81.66C228.485 81.132 228.277 80.732 227.861 80.46C227.453 80.18 226.869 80.04 226.109 80.04H225.821V79.128H226.109C227.581 79.128 228.317 78.636 228.317 77.652C228.317 77.22 228.181 76.876 227.909 76.62C227.637 76.364 227.261 76.236 226.781 76.236C226.301 76.236 225.897 76.376 225.569 76.656C225.241 76.928 225.049 77.332 224.993 77.868H223.925C223.981 77.068 224.257 76.444 224.753 75.996C225.257 75.54 225.941 75.312 226.805 75.312ZM231.135 77.532C231.135 77.116 231.247 76.736 231.471 76.392C231.695 76.048 232.027 75.776 232.467 75.576C232.907 75.376 233.431 75.276 234.039 75.276C234.647 75.276 235.167 75.376 235.599 75.576C236.039 75.776 236.371 76.048 236.595 76.392C236.819 76.736 236.931 77.116 236.931 77.532C236.931 78.004 236.803 78.412 236.547 78.756C236.291 79.1 235.903 79.344 235.383 79.488C235.943 79.64 236.379 79.904 236.691 80.28C237.003 80.656 237.159 81.12 237.159 81.672C237.159 82.472 236.875 83.1 236.307 83.556C235.739 84.012 234.983 84.24 234.039 84.24C233.095 84.24 232.339 84.012 231.771 83.556C231.203 83.1 230.919 82.472 230.919 81.672C230.919 81.12 231.071 80.656 231.375 80.28C231.687 79.904 232.123 79.64 232.683 79.488C232.163 79.344 231.775 79.1 231.519 78.756C231.263 78.412 231.135 78.004 231.135 77.532ZM232.215 77.688C232.215 78.168 232.379 78.54 232.707 78.804C233.035 79.06 233.479 79.188 234.039 79.188C234.599 79.188 235.039 79.06 235.359 78.804C235.687 78.54 235.851 78.168 235.851 77.688C235.851 77.208 235.687 76.84 235.359 76.584C235.031 76.32 234.591 76.188 234.039 76.188C233.487 76.188 233.043 76.32 232.707 76.584C232.379 76.84 232.215 77.208 232.215 77.688ZM231.987 81.612C231.987 82.156 232.171 82.58 232.539 82.884C232.907 83.18 233.407 83.328 234.039 83.328C234.663 83.328 235.159 83.176 235.527 82.872C235.895 82.568 236.079 82.148 236.079 81.612C236.079 81.068 235.887 80.656 235.503 80.376C235.119 80.096 234.631 79.956 234.039 79.956C233.439 79.956 232.947 80.096 232.563 80.376C232.179 80.656 231.987 81.068 231.987 81.612Z" fill="#3C3C3C"/>
<rect x="244.5" y="69.5" width="27.3983" height="21.7186" stroke="#3C3C3C"/>
<path d="M251.466 82.056V81.144L255.81 75.48H256.986V81.108H258.234V82.056H256.986V84H255.882V82.056H251.466ZM255.954 76.812L252.618 81.108H255.954V76.812ZM259.219 79.716C259.219 81.076 259.443 82.136 259.891 82.896C260.339 83.656 261.115 84.036 262.219 84.036C263.323 84.036 264.099 83.656 264.547 82.896C265.003 82.136 265.231 81.076 265.231 79.716C265.231 78.372 265.003 77.32 264.547 76.56C264.099 75.8 263.323 75.42 262.219 75.42C261.115 75.42 260.339 75.8 259.891 76.56C259.443 77.312 259.219 78.364 259.219 79.716ZM264.151 79.716C264.151 80.412 264.099 80.996 263.995 81.468C263.899 81.932 263.711 82.304 263.431 82.584C263.151 82.864 262.747 83.004 262.219 83.004C261.699 83.004 261.299 82.864 261.019 82.584C260.739 82.304 260.547 81.932 260.443 81.468C260.347 80.996 260.299 80.412 260.299 79.716C260.299 79.028 260.347 78.452 260.443 77.988C260.547 77.524 260.739 77.156 261.019 76.884C261.299 76.604 261.699 76.464 262.219 76.464C262.747 76.464 263.151 76.604 263.431 76.884C263.711 77.156 263.899 77.524 263.995 77.988C264.099 78.452 264.151 79.028 264.151 79.716Z" fill="#3C3C3C"/>
<rect x="272.5" y="69.5" width="27.3983" height="21.7186" stroke="#3C3C3C"/>
<path d="M279.747 82.056V81.144L284.091 75.48H285.267V81.108H286.515V82.056H285.267V84H284.163V82.056H279.747ZM284.235 76.812L280.899 81.108H284.235V76.812ZM287.32 83.16C288.68 82.248 289.768 81.344 290.584 80.448C291.4 79.544 291.808 78.704 291.808 77.928C291.808 77.448 291.684 77.064 291.436 76.776C291.196 76.48 290.804 76.332 290.26 76.332C289.7 76.332 289.276 76.512 288.988 76.872C288.7 77.224 288.54 77.712 288.508 78.336H287.428C287.484 77.392 287.776 76.668 288.304 76.164C288.832 75.652 289.512 75.396 290.344 75.396C291.136 75.396 291.764 75.608 292.228 76.032C292.692 76.456 292.924 77.056 292.924 77.832C292.924 78.472 292.716 79.124 292.3 79.788C291.892 80.444 291.376 81.056 290.752 81.624C290.136 82.184 289.5 82.66 288.844 83.052H293.14V83.952H287.32V83.16Z" fill="#3C3C3C"/>
<rect x="300.5" y="69.5" width="27.3983" height="21.7186" stroke="#3C3C3C"/>
<path d="M306.431 82.056V81.144L310.775 75.48H311.951V81.108H313.199V82.056H311.951V84H310.847V82.056H306.431ZM310.919 76.812L307.583 81.108H310.919V76.812ZM313.872 82.056V81.144L318.216 75.48H319.392V81.108H320.64V82.056H319.392V84H318.288V82.056H313.872ZM318.36 76.812L315.024 81.108H318.36V76.812Z" fill="#3C3C3C"/>
<rect x="0.5" y="91.5" width="50.1169" height="21.7186" stroke="#3C3C3C"/>
<path d="M11.4618 97.54V106H10.3578V102.088H6.06175V106H4.96975V97.54H6.06175V101.2H10.3578V97.54H11.4618ZM13.016 97.48C13.016 97.28 13.084 97.12 13.22 97C13.356 96.872 13.536 96.808 13.76 96.808C13.984 96.808 14.164 96.872 14.3 97C14.436 97.12 14.504 97.28 14.504 97.48C14.504 97.68 14.436 97.844 14.3 97.972C14.164 98.092 13.984 98.152 13.76 98.152C13.536 98.152 13.356 98.092 13.22 97.972C13.084 97.844 13.016 97.68 13.016 97.48ZM14.3 99.412V106H13.208V99.412H14.3ZM19.6917 99.328C20.2757 99.328 20.7957 99.464 21.2517 99.736C21.7077 100.008 22.0637 100.4 22.3197 100.912C22.5837 101.424 22.7157 102.024 22.7157 102.712C22.7157 103.4 22.5837 104 22.3197 104.512C22.0637 105.016 21.7077 105.404 21.2517 105.676C20.7957 105.948 20.2757 106.084 19.6917 106.084C19.0517 106.084 18.5077 105.924 18.0597 105.604C17.6197 105.276 17.3157 104.848 17.1477 104.32V109.12H16.0557V99.412H17.1477V101.092C17.3157 100.564 17.6197 100.14 18.0597 99.82C18.5077 99.492 19.0517 99.328 19.6917 99.328ZM19.3797 100.3C18.9557 100.3 18.5717 100.4 18.2277 100.6C17.8837 100.792 17.6157 101.072 17.4237 101.44C17.2317 101.808 17.1357 102.232 17.1357 102.712C17.1357 103.192 17.2317 103.616 17.4237 103.984C17.6157 104.344 17.8837 104.624 18.2277 104.824C18.5717 105.024 18.9557 105.124 19.3797 105.124C20.0597 105.124 20.5997 104.912 20.9997 104.488C21.4077 104.056 21.6117 103.464 21.6117 102.712C21.6117 101.96 21.4077 101.372 20.9997 100.948C20.5997 100.516 20.0597 100.3 19.3797 100.3Z" fill="#3C3C3C"/>
<rect x="50.5" y="91.5" width="27.3983" height="21.7186" stroke="#3C3C3C"/>
<path d="M60.8282 97.312C61.3722 97.312 61.8402 97.408 62.2322 97.6C62.6242 97.792 62.9202 98.056 63.1202 98.392C63.3202 98.728 63.4202 99.108 63.4202 99.532C63.4202 100.06 63.2642 100.504 62.9522 100.864C62.6482 101.224 62.2002 101.44 61.6082 101.512V101.584C62.2242 101.744 62.7042 101.992 63.0482 102.328C63.4002 102.664 63.5762 103.128 63.5762 103.72C63.5762 104.416 63.3442 104.984 62.8802 105.424C62.4162 105.864 61.7482 106.084 60.8762 106.084C60.0042 106.084 59.2962 105.86 58.7522 105.412C58.2162 104.956 57.9002 104.292 57.8042 103.42H58.8842C58.9562 103.948 59.1562 104.368 59.4842 104.68C59.8202 104.992 60.2722 105.148 60.8402 105.148C61.3762 105.148 61.7882 105.012 62.0762 104.74C62.3642 104.46 62.5082 104.1 62.5082 103.66C62.5082 103.132 62.3002 102.732 61.8842 102.46C61.4762 102.18 60.8922 102.04 60.1322 102.04H59.8442V101.128H60.1322C61.6042 101.128 62.3402 100.636 62.3402 99.652C62.3402 99.22 62.2042 98.876 61.9322 98.62C61.6602 98.364 61.2842 98.236 60.8042 98.236C60.3242 98.236 59.9202 98.376 59.5922 98.656C59.2642 98.928 59.0722 99.332 59.0162 99.868H57.9482C58.0042 99.068 58.2802 98.444 58.7762 97.996C59.2802 97.54 59.9642 97.312 60.8282 97.312ZM69.7666 99.796C69.7026 99.292 69.5306 98.904 69.2506 98.632C68.9786 98.352 68.5986 98.212 68.1106 98.212C67.4306 98.212 66.9146 98.476 66.5626 99.004C66.2186 99.532 66.0466 100.368 66.0466 101.512L66.0586 101.956C66.1786 101.476 66.4546 101.096 66.8866 100.816C67.3186 100.528 67.8266 100.384 68.4106 100.384C69.2506 100.384 69.9066 100.636 70.3786 101.14C70.8586 101.644 71.0986 102.348 71.0986 103.252C71.0986 103.78 70.9946 104.26 70.7866 104.692C70.5786 105.116 70.2586 105.456 69.8266 105.712C69.4026 105.96 68.8746 106.084 68.2426 106.084C67.0346 106.084 66.2026 105.704 65.7466 104.944C65.2986 104.184 65.0746 103.152 65.0746 101.848C65.0746 100.344 65.3146 99.216 65.7946 98.464C66.2826 97.704 67.0746 97.324 68.1706 97.324C68.9786 97.324 69.5986 97.552 70.0306 98.008C70.4706 98.464 70.7306 99.06 70.8106 99.796H69.7666ZM66.1786 103.072C66.1786 103.656 66.3466 104.148 66.6826 104.548C67.0266 104.94 67.5386 105.136 68.2186 105.136C68.7786 105.136 69.2266 104.972 69.5626 104.644C69.8986 104.308 70.0666 103.84 70.0666 103.24C70.0666 102.592 69.8986 102.1 69.5626 101.764C69.2266 101.42 68.7626 101.248 68.1706 101.248C67.8346 101.248 67.5146 101.316 67.2106 101.452C66.9066 101.588 66.6586 101.796 66.4666 102.076C66.2746 102.348 66.1786 102.68 66.1786 103.072Z" fill="#3C3C3C"/>
<rect x="78.5" y="91.5" width="27.3983" height="21.7186" stroke="#3C3C3C"/>
<path d="M88.8048 97.312C89.3488 97.312 89.8168 97.408 90.2088 97.6C90.6008 97.792 90.8968 98.056 91.0968 98.392C91.2968 98.728 91.3968 99.108 91.3968 99.532C91.3968 100.06 91.2408 100.504 90.9288 100.864C90.6248 101.224 90.1768 101.44 89.5848 101.512V101.584C90.2008 101.744 90.6808 101.992 91.0248 102.328C91.3768 102.664 91.5528 103.128 91.5528 103.72C91.5528 104.416 91.3208 104.984 90.8568 105.424C90.3928 105.864 89.7248 106.084 88.8528 106.084C87.9808 106.084 87.2728 105.86 86.7288 105.412C86.1928 104.956 85.8768 104.292 85.7808 103.42H86.8608C86.9328 103.948 87.1328 104.368 87.4608 104.68C87.7968 104.992 88.2488 105.148 88.8168 105.148C89.3528 105.148 89.7648 105.012 90.0528 104.74C90.3408 104.46 90.4848 104.1 90.4848 103.66C90.4848 103.132 90.2768 102.732 89.8608 102.46C89.4528 102.18 88.8688 102.04 88.1088 102.04H87.8208V101.128H88.1088C89.5808 101.128 90.3168 100.636 90.3168 99.652C90.3168 99.22 90.1808 98.876 89.9088 98.62C89.6368 98.364 89.2608 98.236 88.7808 98.236C88.3008 98.236 87.8968 98.376 87.5688 98.656C87.2408 98.928 87.0488 99.332 86.9928 99.868H85.9248C85.9808 99.068 86.2568 98.444 86.7528 97.996C87.2568 97.54 87.9408 97.312 88.8048 97.312ZM93.1352 99.532C93.1352 99.116 93.2472 98.736 93.4712 98.392C93.6952 98.048 94.0272 97.776 94.4672 97.576C94.9072 97.376 95.4312 97.276 96.0392 97.276C96.6472 97.276 97.1672 97.376 97.5992 97.576C98.0392 97.776 98.3712 98.048 98.5952 98.392C98.8192 98.736 98.9312 99.116 98.9312 99.532C98.9312 100.004 98.8032 100.412 98.5472 100.756C98.2912 101.1 97.9032 101.344 97.3832 101.488C97.9432 101.64 98.3792 101.904 98.6912 102.28C99.0032 102.656 99.1592 103.12 99.1592 103.672C99.1592 104.472 98.8752 105.1 98.3072 105.556C97.7392 106.012 96.9832 106.24 96.0392 106.24C95.0952 106.24 94.3392 106.012 93.7712 105.556C93.2032 105.1 92.9192 104.472 92.9192 103.672C92.9192 103.12 93.0712 102.656 93.3752 102.28C93.6872 101.904 94.1232 101.64 94.6832 101.488C94.1632 101.344 93.7752 101.1 93.5192 100.756C93.2632 100.412 93.1352 100.004 93.1352 99.532ZM94.2152 99.688C94.2152 100.168 94.3792 100.54 94.7072 100.804C95.0352 101.06 95.4792 101.188 96.0392 101.188C96.5992 101.188 97.0392 101.06 97.3592 100.804C97.6872 100.54 97.8512 100.168 97.8512 99.688C97.8512 99.208 97.6872 98.84 97.3592 98.584C97.0312 98.32 96.5912 98.188 96.0392 98.188C95.4872 98.188 95.0432 98.32 94.7072 98.584C94.3792 98.84 94.2152 99.208 94.2152 99.688ZM93.9872 103.612C93.9872 104.156 94.1712 104.58 94.5392 104.884C94.9072 105.18 95.4072 105.328 96.0392 105.328C96.6632 105.328 97.1592 105.176 97.5272 104.872C97.8952 104.568 98.0792 104.148 98.0792 103.612C98.0792 103.068 97.8872 102.656 97.5032 102.376C97.1192 102.096 96.6312 101.956 96.0392 101.956C95.4392 101.956 94.9472 102.096 94.5632 102.376C94.1792 102.656 93.9872 103.068 93.9872 103.612Z" fill="#3C3C3C"/>
<rect x="106.5" y="91.5" width="27.3983" height="21.7186" stroke="#3C3C3C"/>
<path d="M113.466 104.056V103.144L117.81 97.48H118.986V103.108H120.234V104.056H118.986V106H117.882V104.056H113.466ZM117.954 98.812L114.618 103.108H117.954V98.812ZM121.219 101.716C121.219 103.076 121.443 104.136 121.891 104.896C122.339 105.656 123.115 106.036 124.219 106.036C125.323 106.036 126.099 105.656 126.547 104.896C127.003 104.136 127.231 103.076 127.231 101.716C127.231 100.372 127.003 99.32 126.547 98.56C126.099 97.8 125.323 97.42 124.219 97.42C123.115 97.42 122.339 97.8 121.891 98.56C121.443 99.312 121.219 100.364 121.219 101.716ZM126.151 101.716C126.151 102.412 126.099 102.996 125.995 103.468C125.899 103.932 125.711 104.304 125.431 104.584C125.151 104.864 124.747 105.004 124.219 105.004C123.699 105.004 123.299 104.864 123.019 104.584C122.739 104.304 122.547 103.932 122.443 103.468C122.347 102.996 122.299 102.412 122.299 101.716C122.299 101.028 122.347 100.452 122.443 99.988C122.547 99.524 122.739 99.156 123.019 98.884C123.299 98.604 123.699 98.464 124.219 98.464C124.747 98.464 125.151 98.604 125.431 98.884C125.711 99.156 125.899 99.524 125.995 99.988C126.099 100.452 126.151 101.028 126.151 101.716Z" fill="#3C3C3C"/>
<rect x="133.5" y="91.5" width="27.3983" height="21.7186" stroke="#3C3C3C"/>
<path d="M140.747 104.056V103.144L145.091 97.48H146.267V103.108H147.515V104.056H146.267V106H145.163V104.056H140.747ZM145.235 98.812L141.899 103.108H145.235V98.812ZM148.32 105.16C149.68 104.248 150.768 103.344 151.584 102.448C152.4 101.544 152.808 100.704 152.808 99.928C152.808 99.448 152.684 99.064 152.436 98.776C152.196 98.48 151.804 98.332 151.26 98.332C150.7 98.332 150.276 98.512 149.988 98.872C149.7 99.224 149.54 99.712 149.508 100.336H148.428C148.484 99.392 148.776 98.668 149.304 98.164C149.832 97.652 150.512 97.396 151.344 97.396C152.136 97.396 152.764 97.608 153.228 98.032C153.692 98.456 153.924 99.056 153.924 99.832C153.924 100.472 153.716 101.124 153.3 101.788C152.892 102.444 152.376 103.056 151.752 103.624C151.136 104.184 150.5 104.66 149.844 105.052H154.14V105.952H148.32V105.16Z" fill="#3C3C3C"/>
<rect x="161.5" y="91.5" width="27.3983" height="21.7186" stroke="#3C3C3C"/>
<path d="M168.431 104.056V103.144L172.775 97.48H173.951V103.108H175.199V104.056H173.951V106H172.847V104.056H168.431ZM172.919 98.812L169.583 103.108H172.919V98.812ZM175.872 104.056V103.144L180.216 97.48H181.392V103.108H182.64V104.056H181.392V106H180.288V104.056H175.872ZM180.36 98.812L177.024 103.108H180.36V98.812Z" fill="#3C3C3C"/>
<rect x="189.5" y="91.5" width="27.3983" height="21.7186" stroke="#3C3C3C"/>
<path d="M196.425 104.056V103.144L200.769 97.48H201.945V103.108H203.193V104.056H201.945V106H200.841V104.056H196.425ZM200.913 98.812L197.577 103.108H200.913V98.812ZM208.954 99.796C208.89 99.292 208.718 98.904 208.438 98.632C208.166 98.352 207.786 98.212 207.298 98.212C206.618 98.212 206.102 98.476 205.75 99.004C205.406 99.532 205.234 100.368 205.234 101.512L205.246 101.956C205.366 101.476 205.642 101.096 206.074 100.816C206.506 100.528 207.014 100.384 207.598 100.384C208.438 100.384 209.094 100.636 209.566 101.14C210.046 101.644 210.286 102.348 210.286 103.252C210.286 103.78 210.182 104.26 209.974 104.692C209.766 105.116 209.446 105.456 209.014 105.712C208.59 105.96 208.062 106.084 207.43 106.084C206.222 106.084 205.39 105.704 204.934 104.944C204.486 104.184 204.262 103.152 204.262 101.848C204.262 100.344 204.502 99.216 204.982 98.464C205.47 97.704 206.262 97.324 207.358 97.324C208.166 97.324 208.786 97.552 209.218 98.008C209.658 98.464 209.918 99.06 209.998 99.796H208.954ZM205.366 103.072C205.366 103.656 205.534 104.148 205.87 104.548C206.214 104.94 206.726 105.136 207.406 105.136C207.966 105.136 208.414 104.972 208.75 104.644C209.086 104.308 209.254 103.84 209.254 103.24C209.254 102.592 209.086 102.1 208.75 101.764C208.414 101.42 207.95 101.248 207.358 101.248C207.022 101.248 206.702 101.316 206.398 101.452C206.094 101.588 205.846 101.796 205.654 102.076C205.462 102.348 205.366 102.68 205.366 103.072Z" fill="#3C3C3C"/>
<rect x="217.5" y="91.5" width="27.3983" height="21.7186" stroke="#3C3C3C"/>
<path d="M223.401 104.056V103.144L227.745 97.48H228.921V103.108H230.169V104.056H228.921V106H227.817V104.056H223.401ZM227.889 98.812L224.553 103.108H227.889V98.812ZM231.323 99.532C231.323 99.116 231.435 98.736 231.659 98.392C231.883 98.048 232.215 97.776 232.655 97.576C233.095 97.376 233.619 97.276 234.227 97.276C234.835 97.276 235.355 97.376 235.787 97.576C236.227 97.776 236.559 98.048 236.783 98.392C237.007 98.736 237.119 99.116 237.119 99.532C237.119 100.004 236.991 100.412 236.735 100.756C236.479 101.1 236.091 101.344 235.571 101.488C236.131 101.64 236.567 101.904 236.879 102.28C237.191 102.656 237.347 103.12 237.347 103.672C237.347 104.472 237.063 105.1 236.495 105.556C235.927 106.012 235.171 106.24 234.227 106.24C233.283 106.24 232.527 106.012 231.959 105.556C231.391 105.1 231.107 104.472 231.107 103.672C231.107 103.12 231.259 102.656 231.563 102.28C231.875 101.904 232.311 101.64 232.871 101.488C232.351 101.344 231.963 101.1 231.707 100.756C231.451 100.412 231.323 100.004 231.323 99.532ZM232.403 99.688C232.403 100.168 232.567 100.54 232.895 100.804C233.223 101.06 233.667 101.188 234.227 101.188C234.787 101.188 235.227 101.06 235.547 100.804C235.875 100.54 236.039 100.168 236.039 99.688C236.039 99.208 235.875 98.84 235.547 98.584C235.219 98.32 234.779 98.188 234.227 98.188C233.675 98.188 233.231 98.32 232.895 98.584C232.567 98.84 232.403 99.208 232.403 99.688ZM232.175 103.612C232.175 104.156 232.359 104.58 232.727 104.884C233.095 105.18 233.595 105.328 234.227 105.328C234.851 105.328 235.347 105.176 235.715 104.872C236.083 104.568 236.267 104.148 236.267 103.612C236.267 103.068 236.075 102.656 235.691 102.376C235.307 102.096 234.819 101.956 234.227 101.956C233.627 101.956 233.135 102.096 232.751 102.376C232.367 102.656 232.175 103.068 232.175 103.612Z" fill="#3C3C3C"/>
<rect x="244.5" y="91.5" width="27.3983" height="21.7186" stroke="#3C3C3C"/>
<path d="M257.501 98.404H253.157V101.236C253.357 100.964 253.645 100.748 254.021 100.588C254.397 100.428 254.809 100.348 255.257 100.348C255.857 100.348 256.353 100.476 256.745 100.732C257.145 100.98 257.437 101.312 257.621 101.728C257.813 102.136 257.909 102.592 257.909 103.096C257.909 103.968 257.665 104.68 257.177 105.232C256.689 105.784 255.973 106.06 255.029 106.06C254.181 106.06 253.489 105.832 252.953 105.376C252.417 104.912 252.117 104.292 252.053 103.516H253.133C253.221 104.012 253.425 104.4 253.745 104.68C254.073 104.952 254.485 105.088 254.981 105.088C255.597 105.088 256.061 104.904 256.373 104.536C256.685 104.168 256.841 103.684 256.841 103.084C256.841 102.5 256.681 102.044 256.361 101.716C256.041 101.388 255.589 101.224 255.005 101.224C254.589 101.224 254.225 101.316 253.913 101.5C253.601 101.676 253.365 101.916 253.205 102.22H252.149V97.432H257.501V98.404ZM259.196 101.716C259.196 103.076 259.42 104.136 259.868 104.896C260.316 105.656 261.092 106.036 262.196 106.036C263.3 106.036 264.076 105.656 264.524 104.896C264.98 104.136 265.208 103.076 265.208 101.716C265.208 100.372 264.98 99.32 264.524 98.56C264.076 97.8 263.3 97.42 262.196 97.42C261.092 97.42 260.316 97.8 259.868 98.56C259.42 99.312 259.196 100.364 259.196 101.716ZM264.128 101.716C264.128 102.412 264.076 102.996 263.972 103.468C263.876 103.932 263.688 104.304 263.408 104.584C263.128 104.864 262.724 105.004 262.196 105.004C261.676 105.004 261.276 104.864 260.996 104.584C260.716 104.304 260.524 103.932 260.42 103.468C260.324 102.996 260.276 102.412 260.276 101.716C260.276 101.028 260.324 100.452 260.42 99.988C260.524 99.524 260.716 99.156 260.996 98.884C261.276 98.604 261.676 98.464 262.196 98.464C262.724 98.464 263.128 98.604 263.408 98.884C263.688 99.156 263.876 99.524 263.972 99.988C264.076 100.452 264.128 101.028 264.128 101.716Z" fill="#3C3C3C"/>
<rect x="272.5" y="91.5" width="27.3983" height="21.7186" stroke="#3C3C3C"/>
<path d="M285.782 98.404H281.438V101.236C281.638 100.964 281.926 100.748 282.302 100.588C282.678 100.428 283.09 100.348 283.538 100.348C284.138 100.348 284.634 100.476 285.026 100.732C285.426 100.98 285.718 101.312 285.902 101.728C286.094 102.136 286.19 102.592 286.19 103.096C286.19 103.968 285.946 104.68 285.458 105.232C284.97 105.784 284.254 106.06 283.31 106.06C282.462 106.06 281.77 105.832 281.234 105.376C280.698 104.912 280.398 104.292 280.334 103.516H281.414C281.502 104.012 281.706 104.4 282.026 104.68C282.354 104.952 282.766 105.088 283.262 105.088C283.878 105.088 284.342 104.904 284.654 104.536C284.966 104.168 285.122 103.684 285.122 103.084C285.122 102.5 284.962 102.044 284.642 101.716C284.322 101.388 283.87 101.224 283.286 101.224C282.87 101.224 282.506 101.316 282.194 101.5C281.882 101.676 281.646 101.916 281.486 102.22H280.43V97.432H285.782V98.404ZM287.297 105.16C288.657 104.248 289.745 103.344 290.561 102.448C291.377 101.544 291.785 100.704 291.785 99.928C291.785 99.448 291.661 99.064 291.413 98.776C291.173 98.48 290.781 98.332 290.237 98.332C289.677 98.332 289.253 98.512 288.965 98.872C288.677 99.224 288.517 99.712 288.485 100.336H287.405C287.461 99.392 287.753 98.668 288.281 98.164C288.809 97.652 289.489 97.396 290.321 97.396C291.113 97.396 291.741 97.608 292.205 98.032C292.669 98.456 292.901 99.056 292.901 99.832C292.901 100.472 292.693 101.124 292.277 101.788C291.869 102.444 291.353 103.056 290.729 103.624C290.113 104.184 289.477 104.66 288.821 105.052H293.117V105.952H287.297V105.16Z" fill="#3C3C3C"/>
<rect x="300.5" y="91.5" width="27.3983" height="21.7186" stroke="#3C3C3C"/>
<path d="M312.466 98.404H308.122V101.236C308.322 100.964 308.61 100.748 308.986 100.588C309.362 100.428 309.774 100.348 310.222 100.348C310.822 100.348 311.318 100.476 311.71 100.732C312.11 100.98 312.402 101.312 312.586 101.728C312.778 102.136 312.874 102.592 312.874 103.096C312.874 103.968 312.63 104.68 312.142 105.232C311.654 105.784 310.938 106.06 309.994 106.06C309.146 106.06 308.454 105.832 307.918 105.376C307.382 104.912 307.082 104.292 307.018 103.516H308.098C308.186 104.012 308.39 104.4 308.71 104.68C309.038 104.952 309.45 105.088 309.946 105.088C310.562 105.088 311.026 104.904 311.338 104.536C311.65 104.168 311.806 103.684 311.806 103.084C311.806 102.5 311.646 102.044 311.326 101.716C311.006 101.388 310.554 101.224 309.97 101.224C309.554 101.224 309.19 101.316 308.878 101.5C308.566 101.676 308.33 101.916 308.17 102.22H307.114V97.432H312.466V98.404ZM313.849 104.056V103.144L318.193 97.48H319.369V103.108H320.617V104.056H319.369V106H318.265V104.056H313.849ZM318.337 98.812L315.001 103.108H318.337V98.812Z" fill="#3C3C3C"/>
</svg>
