<svg width="25" height="25" viewBox="0 0 25 25" fill="none" xmlns="http://www.w3.org/2000/svg">
<g clip-path="url(#clip0_5215_3079)">
<path d="M19.3886 0H5.61136C2.51229 0 0 2.51229 0 5.61136V19.3886C0 22.4877 2.51229 25 5.61136 25H19.3886C22.4877 25 25 22.4877 25 19.3886V5.61136C25 2.51229 22.4877 0 19.3886 0Z" fill="#FFFC00"/>
<path d="M19.7705 16.1757V16.115C19.6179 16.0534 19.4577 16.0126 19.2942 15.9938C18.5139 15.7188 17.8288 15.2259 17.3199 14.5736C17.0248 14.2266 16.8038 13.8229 16.6704 13.3873C16.6101 13.2343 16.6101 13.064 16.6704 12.911C16.8444 12.6858 17.0989 12.5368 17.3805 12.4954C17.6917 12.3817 17.9838 12.2211 18.2464 12.0191C18.3071 11.9585 18.3071 11.8979 18.3677 11.8372V11.7766C18.3952 11.7439 18.4102 11.7025 18.4102 11.6597C18.4102 11.617 18.3952 11.5756 18.3677 11.5428C18.3435 11.475 18.3046 11.4133 18.2537 11.3624C18.2027 11.3115 18.1411 11.2725 18.0732 11.2484C17.9957 11.1948 17.9061 11.1612 17.8124 11.1506C17.7187 11.1401 17.6239 11.1528 17.5364 11.1878C17.3838 11.2495 17.2236 11.2902 17.0601 11.309H16.9995C16.825 11.3659 16.637 11.3659 16.4626 11.309V11.1878C16.4549 10.8518 16.4752 10.5158 16.5232 10.1833C16.5314 9.63128 16.5112 9.07922 16.4626 8.52931C16.2522 7.61082 15.7014 6.80626 14.9212 6.27784C14.3691 5.91308 13.7356 5.69001 13.0767 5.62837C12.8644 5.57625 12.6455 5.55583 12.4272 5.56776C11.5039 5.55257 10.6039 5.85867 9.88135 6.43371C9.36678 6.86267 8.95039 7.39719 8.66036 8.00108V8.06169C8.45052 8.69148 8.3883 9.36108 8.47851 10.0187C8.50807 10.4512 8.50807 10.8852 8.47851 11.3177C8.26605 11.3767 8.04151 11.3767 7.82905 11.3177H7.79441C7.63092 11.2989 7.47071 11.2581 7.31814 11.1964C7.23542 11.1694 7.14673 11.1665 7.06241 11.1879C6.97808 11.2094 6.90159 11.2544 6.84186 11.3177H6.79857C6.73795 11.3783 6.56476 11.4995 6.56476 11.6727V11.7333C6.58859 11.8499 6.65303 11.9542 6.74661 12.0277C6.80723 12.0884 6.86784 12.0884 6.92846 12.149C7.23533 12.3473 7.5757 12.4881 7.93296 12.5646C8.11481 12.6859 8.34862 12.7984 8.34862 12.9803C8.37594 13.1143 8.37382 13.2526 8.34242 13.3856C8.31102 13.5187 8.25109 13.6434 8.16677 13.751C7.82292 14.4531 7.315 15.062 6.68599 15.5262C6.33547 15.7529 5.95708 15.9334 5.56026 16.0631H5.49964C5.42732 16.0748 5.3583 16.1017 5.29711 16.142C5.23593 16.1823 5.18395 16.2351 5.1446 16.2969H5.08398C5.08398 16.4181 5.08398 16.5913 5.1446 16.6519C5.20522 16.7125 5.26583 16.7732 5.32645 16.7732C5.66176 16.944 6.02079 17.0637 6.39157 17.1282C6.62538 17.1888 6.86784 17.2494 7.04103 17.31C7.04821 17.3743 7.06887 17.4362 7.10165 17.4919C7.16227 17.6737 7.22288 17.9076 7.2835 18.1414C7.2835 18.202 7.34412 18.202 7.40473 18.2626C7.48664 18.2641 7.56641 18.2364 7.62988 18.1847H7.6905C8.21753 18.0765 8.7588 18.056 9.2925 18.124C9.83138 18.3656 10.3473 18.6554 10.8339 18.99C11.1929 19.2693 11.6271 19.4351 12.0809 19.4663H13.146C13.4153 19.4045 13.6747 19.3054 13.9167 19.1718H13.9773C14.4567 18.8006 14.9666 18.4704 15.5014 18.1847H15.588C15.779 18.1292 15.9785 18.1087 16.1768 18.124C16.6307 18.0839 17.0879 18.1043 17.5364 18.1847H17.597C17.6285 18.1826 17.6581 18.1692 17.6804 18.1469C17.7027 18.1246 17.7162 18.0949 17.7182 18.0634C17.7343 18.0634 17.7497 18.057 17.7611 18.0457C17.7724 18.0343 17.7788 18.0189 17.7788 18.0028C17.7788 17.9422 17.8394 17.9422 17.7788 17.9422H17.8394C17.8606 17.7093 17.9411 17.4857 18.0732 17.2927C18.1533 17.2178 18.258 17.1747 18.3677 17.1715C18.7315 17.1087 19.0883 17.0101 19.4328 16.8771C19.6087 16.8099 19.7703 16.71 19.9091 16.5826C19.9177 16.4528 19.9177 16.2276 19.7705 16.1757Z" fill="#FEFEFE" stroke="black" stroke-width="0.5" stroke-miterlimit="10"/>
</g>
<defs>
<clipPath id="clip0_5215_3079">
<rect width="25" height="25" fill="white"/>
</clipPath>
</defs>
</svg>
