<svg width="24" height="24" viewBox="0 0 24 24" fill="none" xmlns="http://www.w3.org/2000/svg">
<path fill-rule="evenodd" clip-rule="evenodd" d="M19.4038 3.12012C19.0439 3.12031 18.6989 3.26335 18.4444 3.51782C18.19 3.77228 18.047 4.11735 18.0469 4.47719C18.047 4.83704 18.19 5.1821 18.4444 5.43657C18.6989 5.69103 19.0439 5.83408 19.4038 5.83427C19.7636 5.83412 20.1087 5.6911 20.3632 5.43663C20.6177 5.18216 20.7607 4.83707 20.7608 4.47719C20.7607 4.11732 20.6177 3.77222 20.3632 3.51775C20.1087 3.26328 19.7636 3.12026 19.4038 3.12012ZM19.4038 3.84227C19.5696 3.8462 19.7272 3.91483 19.8431 4.03347C19.9589 4.15211 20.0238 4.31136 20.0238 4.47719C20.0238 4.64302 19.9589 4.80227 19.8431 4.92091C19.7272 5.03956 19.5696 5.10818 19.4038 5.11212C19.2354 5.11202 19.074 5.0451 18.9549 4.92605C18.8359 4.807 18.7689 4.64556 18.7688 4.47719C18.7689 4.30883 18.8359 4.14739 18.9549 4.02834C19.074 3.90929 19.2354 3.84236 19.4038 3.84227Z" fill="#A585C1"/>
<path fill-rule="evenodd" clip-rule="evenodd" d="M1.78899 13.3734C1.68313 13.4793 1.59915 13.6049 1.54186 13.7432C1.48457 13.8815 1.45508 14.0297 1.45508 14.1794C1.45508 14.3291 1.48457 14.4773 1.54186 14.6156C1.59915 14.7539 1.68313 14.8796 1.78899 14.9854L8.89658 22.093C9.11033 22.3067 9.40025 22.4268 9.70255 22.4268C10.0048 22.4268 10.2948 22.3067 10.5085 22.093L22.6443 9.95703C22.712 9.88933 22.7501 9.79745 22.7501 9.70181V1.49273C22.7501 1.397 22.712 1.3052 22.6443 1.23753C22.5766 1.16985 22.4848 1.13184 22.3891 1.13184H14.1802C14.0843 1.13184 13.9925 1.16981 13.9248 1.23751L1.78899 13.3734ZM22.028 9.55225V1.85381H14.3297L2.29944 13.8839C2.2211 13.9623 2.17709 14.0685 2.17709 14.1793C2.17709 14.2901 2.2211 14.3964 2.29944 14.4748L9.40702 21.5823C9.48538 21.6607 9.59165 21.7047 9.70246 21.7047C9.81326 21.7047 9.91953 21.6607 9.99789 21.5823L22.028 9.55225Z" fill="#A585C1"/>
<path fill-rule="evenodd" clip-rule="evenodd" d="M4.96888 14.4347L9.4465 18.9124C9.51435 18.9794 9.60597 19.0168 9.70135 19.0165C9.79672 19.0162 9.88811 18.9782 9.95555 18.9108C10.023 18.8433 10.061 18.752 10.0613 18.6566C10.0616 18.5612 10.0241 18.4696 9.95712 18.4017L5.47951 13.9241C5.41175 13.8565 5.31993 13.8185 5.2242 13.8185C5.12847 13.8185 5.03664 13.8565 4.96888 13.9241C4.90126 13.9919 4.86328 14.0837 4.86328 14.1794C4.86328 14.2752 4.90126 14.367 4.96888 14.4347ZM6.46154 13.3309L10.9392 17.8085C10.9727 17.842 11.0125 17.8686 11.0563 17.8868C11.1001 17.9049 11.147 17.9142 11.1944 17.9142C11.2418 17.9142 11.2888 17.9049 11.3326 17.8867C11.3764 17.8686 11.4162 17.842 11.4497 17.8084C11.4832 17.7749 11.5098 17.7351 11.5279 17.6913C11.5461 17.6475 11.5554 17.6006 11.5554 17.5532C11.5554 17.5057 11.546 17.4588 11.5279 17.415C11.5097 17.3712 11.4831 17.3314 11.4496 17.2979L6.97199 12.8203C6.90383 12.7548 6.8127 12.7186 6.71818 12.7196C6.62365 12.7205 6.53327 12.7585 6.46644 12.8254C6.39961 12.8922 6.36166 12.9826 6.36074 13.0771C6.35983 13.1717 6.39602 13.2628 6.46154 13.3309ZM7.95402 11.8384L12.4316 16.3161C12.4994 16.3837 12.5912 16.4217 12.6869 16.4217C12.7827 16.4217 12.8745 16.3837 12.9423 16.3161C13.0099 16.2483 13.0479 16.1565 13.0479 16.0607C13.0479 15.965 13.0099 15.8732 12.9423 15.8054L8.46465 11.3278C8.39679 11.2608 8.30517 11.2233 8.20979 11.2236C8.11442 11.2239 8.02303 11.2619 7.95559 11.3294C7.88815 11.3968 7.85013 11.4882 7.84984 11.5836C7.84954 11.679 7.887 11.7706 7.95402 11.8384Z" fill="#A585C1"/>
</svg>
