<svg width="66" height="66" viewBox="0 0 66 66" fill="none" xmlns="http://www.w3.org/2000/svg">
<path fill-rule="evenodd" clip-rule="evenodd" d="M53.3604 8.5791C52.3708 8.57962 51.4219 8.97299 50.7222 9.67277C50.0225 10.3726 49.6293 11.3215 49.6289 12.3111C49.6293 13.3006 50.0225 14.2496 50.7222 14.9493C51.4219 15.6491 52.3708 16.0425 53.3604 16.043C54.35 16.0426 55.299 15.6493 55.9988 14.9495C56.6986 14.2497 57.0919 13.3007 57.0923 12.3111C57.0919 11.3214 56.6986 10.3724 55.9988 9.6726C55.299 8.97281 54.35 8.57949 53.3604 8.5791ZM53.3604 10.565C53.8163 10.5758 54.2498 10.7646 54.5685 11.0908C54.8871 11.4171 55.0654 11.855 55.0654 12.3111C55.0654 12.7671 54.8871 13.205 54.5685 13.5313C54.2498 13.8576 53.8163 14.0463 53.3604 14.0571C52.8974 14.0568 52.4534 13.8728 52.126 13.5454C51.7986 13.218 51.6146 12.7741 51.6143 12.3111C51.6146 11.8481 51.7986 11.4041 52.126 11.0767C52.4534 10.7493 52.8974 10.5653 53.3604 10.565Z" fill="#757575" stroke="#757575"/>
<path fill-rule="evenodd" clip-rule="evenodd" d="M4.91827 36.7777C4.62715 37.0687 4.39621 37.4143 4.23865 37.7946C4.08109 38.1749 4 38.5825 4 38.9941C4 39.4058 4.08109 39.8134 4.23865 40.1937C4.39621 40.574 4.62715 40.9195 4.91827 41.2105L24.4641 60.7564C25.052 61.3442 25.8492 61.6745 26.6805 61.6745C27.5119 61.6745 28.3091 61.3442 28.897 60.7564L62.2703 27.3826C62.4565 27.1964 62.5614 26.9437 62.5614 26.6807V4.10574C62.5613 3.84248 62.4566 3.59005 62.2704 3.40394C62.0842 3.21783 61.8317 3.11328 61.5684 3.11328H38.994C38.7305 3.11328 38.4778 3.2177 38.2916 3.40388L4.91827 36.7777ZM60.5755 26.2694V5.0987H39.4052L6.322 38.1814C6.10656 38.3969 5.98553 38.6892 5.98553 38.9939C5.98553 39.2986 6.10656 39.5908 6.322 39.8063L25.8678 59.3522C26.0833 59.5676 26.3756 59.6886 26.6803 59.6886C26.985 59.6886 27.2772 59.5676 27.4927 59.3522L60.5755 26.2694Z" fill="#757575" stroke="#757575"/>
<path fill-rule="evenodd" clip-rule="evenodd" d="M13.6635 39.6968L25.9769 52.0102C26.1635 52.1945 26.4154 52.2975 26.6777 52.2967C26.94 52.2959 27.1913 52.1913 27.3768 52.0059C27.5622 51.8204 27.6668 51.5691 27.6676 51.3068C27.6684 51.0445 27.5654 50.7926 27.3811 50.606L15.0677 38.2925C14.8813 38.1066 14.6288 38.0021 14.3656 38.0021C14.1023 38.0021 13.8498 38.1066 13.6635 38.2925C13.4775 38.4789 13.373 38.7314 13.373 38.9946C13.373 39.2579 13.4775 39.5104 13.6635 39.6968ZM17.7683 36.6612L30.0817 48.9747C30.1739 49.0669 30.2834 49.14 30.4038 49.1898C30.5243 49.2397 30.6534 49.2654 30.7837 49.2653C30.9141 49.2653 31.0432 49.2396 31.1636 49.1897C31.2841 49.1398 31.3935 49.0666 31.4857 48.9744C31.5778 48.8822 31.6509 48.7728 31.7008 48.6523C31.7507 48.5319 31.7763 48.4028 31.7763 48.2724C31.7763 48.142 31.7506 48.0129 31.7007 47.8925C31.6508 47.7721 31.5776 47.6626 31.4854 47.5705L19.172 35.257C18.9846 35.0769 18.734 34.9775 18.474 34.9801C18.2141 34.9827 17.9655 35.0871 17.7817 35.271C17.5979 35.4548 17.4936 35.7034 17.4911 35.9634C17.4886 36.2233 17.5881 36.4739 17.7683 36.6612ZM21.8726 32.5569L34.186 44.8704C34.3724 45.0563 34.6249 45.1608 34.8881 45.1608C35.1514 45.1608 35.4039 45.0563 35.5902 44.8704C35.7762 44.684 35.8806 44.4315 35.8806 44.1683C35.8806 43.905 35.7762 43.6525 35.5902 43.4661L23.2768 31.1527C23.0902 30.9684 22.8382 30.8654 22.576 30.8662C22.3137 30.867 22.0624 30.9716 21.8769 31.157C21.6914 31.3425 21.5869 31.5938 21.5861 31.8561C21.5853 32.1184 21.6883 32.3703 21.8726 32.5569Z" fill="#757575" stroke="#757575"/>
</svg>
