<svg width="26" height="12" viewBox="0 0 26 12" fill="none" xmlns="http://www.w3.org/2000/svg">
<path d="M18.8054 7.75859H17.6907L19.2396 2.16504H20.3542L18.8054 7.75859ZM18.2265 2.34023C18.1503 2.23359 18.031 2.18027 17.8685 2.18027H11.7443L11.4421 3.27715H17.0128L16.6878 4.44766H12.2318V4.44512H11.1171L10.1929 7.78398H11.3075L11.9271 5.54453H16.9366C17.0941 5.54453 17.2413 5.49121 17.3784 5.38457C17.5155 5.27793 17.607 5.1459 17.6501 4.98848L18.2696 2.74902C18.3179 2.58145 18.3027 2.44687 18.2265 2.34023ZM9.54289 7.4082C9.48195 7.6291 9.27883 7.78398 9.05031 7.78398H3.30441C3.14699 7.78398 3.0302 7.73066 2.95402 7.62402C2.87785 7.51738 2.86008 7.38535 2.90578 7.22793L4.30734 2.18027H5.42199L4.17023 6.68965H8.62883L9.88059 2.18027H10.9952L9.54289 7.4082Z" fill="black"/>
<path d="M22.2805 2.17676L23.6896 4.97988L20.7266 7.78301L22.2805 2.17676Z" fill="#38393B"/>
<path d="M21.2889 2.17676L22.698 4.97988L19.7324 7.78301L21.2889 2.17676Z" fill="black"/>
</svg>
