<svg width="28" height="28" viewBox="0 0 28 28" fill="none" xmlns="http://www.w3.org/2000/svg">
<circle cx="14" cy="14" r="14" fill="white"/>
<path d="M21.2194 8.66398C20.8023 8.24667 20.307 7.91562 19.7619 7.68977C19.2168 7.46391 18.6326 7.34766 18.0426 7.34766C17.4525 7.34766 16.8683 7.46391 16.3232 7.68977C15.7781 7.91562 15.2828 8.24667 14.8657 8.66398L14.0001 9.52965L13.1344 8.66398C12.2918 7.82143 11.1491 7.34809 9.95756 7.34809C8.76602 7.34809 7.62328 7.82143 6.78073 8.66398C5.93818 9.50653 5.46484 10.6493 5.46484 11.8408C5.46484 13.0324 5.93818 14.1751 6.78073 15.0176L7.6464 15.8833L14.0001 22.237L20.3537 15.8833L21.2194 15.0176C21.6367 14.6005 21.9678 14.1053 22.1936 13.5602C22.4195 13.0151 22.5357 12.4308 22.5357 11.8408C22.5357 11.2508 22.4195 10.6665 22.1936 10.1214C21.9678 9.57635 21.6367 9.0811 21.2194 8.66398Z" fill="#FFD5CC"/>
</svg>
